<svg width="1920" height="50" viewBox="0 0 1920 50" fill="none" xmlns="http://www.w3.org/2000/svg">
<g clip-path="url(#clip0_1409_1605)">
<rect width="1920" height="50" fill="#FFFAE6"/>
<path d="M1116.5 835C1436.5 800 1617.13 832.691 1920 911.384V-155.5L0 -204.5V881.5C375.074 993.56 934.376 854.92 1116.5 835Z" fill="#FFF0B3" stroke="#10069F" stroke-width="2"/>
<path d="M1693 -178V857" stroke="#10069F" stroke-width="2"/>
<path d="M1408 -182L1408 822" stroke="#10069F" stroke-width="2"/>
<path d="M1161 -186L1161 830" stroke="#10069F" stroke-width="2"/>
<path d="M984 -189L984 855" stroke="#10069F" stroke-width="2"/>
<path d="M863 -190L863 875" stroke="#10069F" stroke-width="2"/>
<path d="M763 -192L763 890" stroke="#10069F" stroke-width="2"/>
<path d="M651 -193L651 905" stroke="#10069F" stroke-width="2"/>
<path d="M504 -195L504 920" stroke="#10069F" stroke-width="2"/>
<path d="M301 -199L301 924" stroke="#10069F" stroke-width="2"/>
<path d="M121 -201L121 909" stroke="#10069F" stroke-width="2"/>
</g>
<defs>
<clipPath id="clip0_1409_1605">
<rect width="1920" height="50" fill="white"/>
</clipPath>
</defs>
</svg>
