<svg width="1920" height="5" viewBox="0 0 1920 5" fill="none" xmlns="http://www.w3.org/2000/svg">
<g clip-path="url(#clip0_1409_1603)">
<rect width="1920" height="5" fill="#FFFAE6"/>
<path d="M1116.5 798C1436.5 763 1617.13 795.691 1920 874.384V-192.5L0 -241.5V844.5C375.074 956.56 934.376 817.92 1116.5 798Z" fill="#FFF0B3" stroke="#10069F" stroke-width="2"/>
<path d="M1693 -215V820" stroke="#10069F" stroke-width="2"/>
<path d="M1408 -219L1408 785" stroke="#10069F" stroke-width="2"/>
<path d="M1161 -223L1161 793" stroke="#10069F" stroke-width="2"/>
<path d="M984 -226L984 818" stroke="#10069F" stroke-width="2"/>
<path d="M863 -227L863 838" stroke="#10069F" stroke-width="2"/>
<path d="M763 -229L763 853" stroke="#10069F" stroke-width="2"/>
<path d="M651 -230L651 868" stroke="#10069F" stroke-width="2"/>
<path d="M504 -232L504 883" stroke="#10069F" stroke-width="2"/>
<path d="M301 -236L301 887" stroke="#10069F" stroke-width="2"/>
<path d="M121 -238L121 872" stroke="#10069F" stroke-width="2"/>
</g>
<defs>
<clipPath id="clip0_1409_1603">
<rect width="1920" height="5" fill="white"/>
</clipPath>
</defs>
</svg>
