<svg width="1920" height="662" viewBox="0 0 1920 662" fill="none" xmlns="http://www.w3.org/2000/svg">
<g clip-path="url(#clip0_1404_1567)">
<g clip-path="url(#clip1_1404_1567)">
<mask id="mask0_1404_1567" style="mask-type:luminance" maskUnits="userSpaceOnUse" x="0" y="-45" width="1920" height="2808">
<path d="M1920 -45H0V2763H1920V-45Z" fill="white"/>
</mask>
<g mask="url(#mask0_1404_1567)">
<path d="M1920 2.06641H0V2763H1920V2.06641Z" fill="#FFFAE6"/>
<path d="M1116.5 1605.35C1436.5 1570.3 1617.13 1603.04 1920 1681.84V613.437L0 564.367V1651.92C375.074 1764.14 934.376 1625.3 1116.5 1605.35Z" fill="#FFF0B3" stroke="#10069F" stroke-width="2"/>
<path d="M1693 590.904V1627.38" stroke="#10069F" stroke-width="2"/>
<path d="M1408 586.898V1592.33" stroke="#10069F" stroke-width="2"/>
<path d="M1161 582.895V1600.34" stroke="#10069F" stroke-width="2"/>
<path d="M984 579.889V1625.38" stroke="#10069F" stroke-width="2"/>
<path d="M863 578.889V1645.41" stroke="#10069F" stroke-width="2"/>
<path d="M763 576.885V1660.43" stroke="#10069F" stroke-width="2"/>
<path d="M651 575.883V1675.45" stroke="#10069F" stroke-width="2"/>
<path d="M504 573.881V1690.47" stroke="#10069F" stroke-width="2"/>
<path d="M301 569.875V1694.48" stroke="#10069F" stroke-width="2"/>
<path d="M121 567.873V1679.46" stroke="#10069F" stroke-width="2"/>
<path d="M-1951.99 513.728C-1951.99 513.728 -1113.6 94.0069 -358.26 15.0689C397.08 -63.8685 414.88 214.411 1381.8 264.403C2234.49 308.483 2730.35 66.2984 2730.35 66.2984L2781.76 635.969L-1952 513.736L-1951.99 513.728Z" fill="#FFCD00"/>
<mask id="mask1_1404_1567" style="mask-type:luminance" maskUnits="userSpaceOnUse" x="-1952" y="1" width="4734" height="635">
<path d="M-1951.99 513.728C-1951.99 513.728 -1113.6 94.0069 -358.26 15.0689C397.08 -63.8685 414.88 214.411 1381.8 264.403C2234.49 308.483 2730.35 66.2984 2730.35 66.2984L2781.76 635.969L-1952 513.736L-1951.99 513.728Z" fill="white"/>
</mask>
<g mask="url(#mask1_1404_1567)">
<path d="M2805.49 181.587L1893.98 240.539C1893.98 240.539 1342.26 551.984 294.27 218.707C-753.72 -114.578 -1248.06 405.639 -1323.2 409.235C-1398.34 412.83 -1418.11 274.634 -1805.67 519.535C-2193.23 764.436 -1904.54 1183.66 -1904.54 1183.66L2745.58 1207.33L2821.3 165.017" fill="#FFCD00"/>
<path d="M1255.26 240.54L2767.28 608.553L2459.55 657.374L1063.99 210.731L985.51 202.173L2117.94 670.903L1914.91 724.994L862.64 165.011L830.79 151.704L1503.57 673.756L1239.44 688.934L754.33 102.967H735.87L1094.43 806.136L888.79 675.414L712.15 63.2596L688.42 83.3913L775.42 668.649L648.87 655.128L664.69 102.967L635.69 122.578L440.59 797.125L245.49 652.873L609.32 122.578H582.96L-57.6994 738.524L-239.62 646.117C-239.62 646.117 606.68 95.4164 517.04 83.3913L471.63 80.393C471.63 80.393 221.75 309.552 -289.72 471.835L-295.66 384.441C-295.66 384.441 420.8 112.457 414.87 60.3635L379.94 48.8419C379.94 48.8419 147.93 193.41 -318.72 265.404L-287.08 198.483C-287.08 198.483 277.12 96.2877 345.67 35.381H319.31C319.31 35.381 100.48 103.933 -86.6994 122.595V93.9303C-86.6994 93.9303 258.68 48.9529 269.22 15.0957" stroke="#0A1F8F" stroke-width="2" stroke-linecap="round" stroke-linejoin="round"/>
</g>
<path d="M-1951.99 513.728C-1951.99 513.728 -1113.6 94.0069 -358.26 15.0689C397.08 -63.8685 414.88 214.411 1381.8 264.403C2234.49 308.483 2730.35 66.2984 2730.35 66.2984L2781.76 635.969L-1952 513.736L-1951.99 513.728Z" stroke="#0A1F8F" stroke-width="2" stroke-linecap="round" stroke-linejoin="round"/>
</g>
</g>
</g>
<defs>
<clipPath id="clip0_1404_1567">
<rect width="1920" height="662" fill="white"/>
</clipPath>
<clipPath id="clip1_1404_1567">
<rect width="1920" height="662" fill="white"/>
</clipPath>
</defs>
</svg>
