<svg width="49" height="51" viewBox="0 0 49 51" fill="none" xmlns="http://www.w3.org/2000/svg">
<path d="M33.2586 40.3247C41.2515 40.3247 47.731 33.8393 47.731 25.8391C47.731 17.8389 41.2515 11.3535 33.2586 11.3535C25.2657 11.3535 18.7861 17.8389 18.7861 25.8391C18.7861 33.8393 25.2657 40.3247 33.2586 40.3247Z" fill="#F7941D"/>
<path d="M32.1396 17.084C32.1396 17.084 36.1651 18.0742 31.2805 21.5063C28.0179 23.7983 23.7825 22.2976 25.9455 20.8166" stroke="#0A1F8F" stroke-linecap="round" stroke-linejoin="round"/>
<path d="M47.0926 30.0933C48.9354 24.085 46.6817 17.797 41.926 14.2371C40.0537 13.8491 37.8491 14.0469 36.7058 16.5062C34.4826 21.287 36.1276 23.8555 32.2026 26.1148C29.0045 27.9554 26.7879 33.7111 28.6864 39.5838C28.7936 39.6199 28.9018 39.6549 29.01 39.6877C36.6512 42.0365 44.747 37.7399 47.0937 30.0922L47.0926 30.0933Z" fill="#FDB913"/>
<g style="mix-blend-mode:overlay" opacity="0.6">
<path d="M45.2765 32.9718C47.333 29.5855 47.7691 26.0929 46.2506 25.1708C44.7322 24.2486 41.8341 26.2461 39.7777 29.6324C37.7213 33.0186 37.2852 36.5112 38.8036 37.4334C40.3221 38.3555 43.2201 36.358 45.2765 32.9718Z" fill="white"/>
</g>
<path d="M29.5742 24.0404C22.697 25.2099 20.4104 20.1569 20.0639 19.8848C19.9601 20.1624 19.5109 21.3024 19.4224 21.5888C17.0757 29.2365 21.3679 37.34 29.0091 39.6889C30.8005 40.2398 32.616 40.4245 34.3779 40.2879C36.4043 35.3497 35.0589 23.1091 29.5731 24.0415L29.5742 24.0404Z" fill="#0A1F8F" stroke="#0A1F8F" stroke-linecap="round" stroke-linejoin="round"/>
<path d="M46.2282 27.9688C46.2282 27.9688 46.7277 31.8413 42.6016 34.4339L46.2282 27.9688Z" fill="white"/>
<g style="mix-blend-mode:overlay" opacity="0.6">
<path d="M45.441 23.857C46.0645 23.8169 46.521 23.0245 46.4608 22.0871C46.4005 21.1498 45.8462 20.4224 45.2227 20.4625C44.5992 20.5026 44.1426 21.295 44.2029 22.2324C44.2632 23.1697 44.8175 23.8971 45.441 23.857Z" fill="white"/>
</g>
<path d="M33.2586 40.3247C41.2515 40.3247 47.731 33.8393 47.731 25.8391C47.731 17.8389 41.2515 11.3535 33.2586 11.3535C25.2657 11.3535 18.7861 17.8389 18.7861 25.8391C18.7861 33.8393 25.2657 40.3247 33.2586 40.3247Z" stroke="#0A1F8F" stroke-linecap="round" stroke-linejoin="round"/>
<path d="M25.5148 24.8568C25.5148 24.8568 23.0129 24.3267 18.5206 19.5197C14.0273 14.7127 2.95188 17.8157 1.15498 31.6619C-0.641918 45.5091 13.577 53.7405 23.5736 48.7488C33.5691 43.757 38.1105 25.8307 25.5148 24.8557V24.8568Z" fill="#FFD100"/>
<path d="M23.5739 48.7496C23.5739 48.7496 23.5772 48.7485 23.5783 48.7474C23.9969 40.6624 14.4321 29.9007 13.209 22.8891C12.7445 20.2265 13.2014 18.5215 14.032 17.4317C8.95722 17.0131 2.4921 21.3676 1.15645 31.6626C-0.640453 45.5099 13.5784 53.7413 23.575 48.7496H23.5739Z" fill="#FDB913"/>
<path d="M25.5148 24.8573C25.5148 24.8573 23.013 24.3272 18.5207 19.5202C17.9534 18.9136 17.2812 18.4337 16.5369 18.084C15.057 18.8491 14.3203 20.3225 17.525 23.1468C19.1907 24.6158 22.8108 25.1382 27.2254 25.1153C26.6942 24.9918 26.1258 24.9043 25.5148 24.8562V24.8573Z" fill="#F7941D"/>
<g style="mix-blend-mode:overlay" opacity="0.6">
<path d="M27.0765 40.1997C28.5036 40.1997 29.6604 39.0414 29.6604 37.6125C29.6604 36.1837 28.5036 35.0254 27.0765 35.0254C25.6495 35.0254 24.4927 36.1837 24.4927 37.6125C24.4927 39.0414 25.6495 40.1997 27.0765 40.1997Z" fill="white"/>
</g>
<path d="M25.5148 24.8568C25.5148 24.8568 23.0129 24.3267 18.5206 19.5197C14.0273 14.7127 2.95188 17.8157 1.15498 31.6619C-0.641918 45.5091 13.577 53.7405 23.5736 48.7488C33.5691 43.757 38.1105 25.8307 25.5148 24.8557V24.8568Z" stroke="#0A1F8F" stroke-linecap="round" stroke-linejoin="round"/>
<g style="mix-blend-mode:overlay" opacity="0.6">
<path d="M27.7502 32.5049C29.7088 33.6865 31.5833 32.8175 31.697 30.5321C31.9134 26.2125 21.3353 25.0222 21.2533 26.4475C21.2118 27.1656 24.3531 30.4545 27.7502 32.5049Z" fill="white"/>
</g>
<path d="M15.7085 21.0449C15.7085 21.0449 16.3304 23.0495 19.1154 23.8518C21.9004 24.654 25.9193 24.9295 25.9193 24.9295" stroke="#0A1F8F" stroke-linecap="round" stroke-linejoin="round"/>
<path d="M30.676 21.7128C30.676 21.7128 23.4501 6.51238 15.7248 3.30988C15.6723 3.28802 13.6459 1.59824 18.3239 4.96906C19.3361 5.69809 25.7258 9.25473 20.546 23.8638" stroke="#0A1F8F" stroke-linecap="round" stroke-linejoin="round"/>
<path d="M17.21 1.2439L12.8121 3.57739C12.5572 3.71264 12.4602 4.02889 12.5955 4.28378L12.596 4.28474C12.7312 4.53963 13.0475 4.63663 13.3024 4.50139L17.7003 2.1679C17.9552 2.03266 18.0522 1.71639 17.9169 1.46151L17.9164 1.46054C17.7812 1.20565 17.4649 1.10866 17.21 1.2439Z" fill="#0A1F8F" stroke="#0A1F8F" stroke-linecap="round" stroke-linejoin="round"/>
</svg>
