<svg width="75" height="112" viewBox="0 0 75 112" fill="none" xmlns="http://www.w3.org/2000/svg">
<path d="M42.2958 3.03436C42.8213 3.20419 43.3857 2.91534 43.5555 2.38982C43.725 1.86444 43.4364 1.30081 42.911 1.13103L42.0204 0.848808C41.1235 0.56926 40.2063 0.298569 39.2684 0.0372849L39.1688 0.0148239C38.6693 -0.071434 38.1761 0.23291 38.037 0.731621C37.8888 1.26363 38.1993 1.8158 38.7313 1.96404L39.6434 2.22283C40.5483 2.48472 41.4323 2.75532 42.2958 3.03436ZM55.8495 8.96502C56.326 9.24355 56.9378 9.08304 57.2167 8.60662C57.4956 8.12996 57.3359 7.5174 56.8592 7.23845C54.7825 6.02316 52.5085 4.87274 50.0311 3.80096C49.5244 3.58192 48.936 3.8148 48.7167 4.32146C48.4974 4.82834 48.7303 5.41759 49.2372 5.63689C51.6452 6.67868 53.8468 7.79308 55.8495 8.96502ZM67.0546 18.2931C67.4004 18.7236 68.0303 18.7922 68.4608 18.4465C68.8913 18.1006 68.96 17.4707 68.6141 17.0402C67.1047 15.1616 65.292 13.3342 63.162 11.59C62.7347 11.2402 62.1047 11.3035 61.7548 11.7306C61.4049 12.1579 61.4672 12.788 61.8944 13.1379C63.9252 14.8008 65.6383 16.5305 67.0546 18.2931ZM73.4901 32.341C74.0416 32.3121 74.4653 31.8417 74.4364 31.2902L74.4061 30.8195C74.2294 28.4627 73.6491 26.0618 72.6385 23.6789L72.5936 23.5871C72.3497 23.1429 71.8046 22.9466 71.328 23.1486C70.8195 23.3642 70.5821 23.9517 70.7977 24.4601L70.9784 24.8976C71.8537 27.0875 72.3282 29.2716 72.4393 31.3947L72.4501 31.4963C72.5274 31.9973 72.973 32.368 73.4901 32.341ZM69.3319 45.8263C70.9924 43.9346 72.2806 41.8092 73.1512 39.5265L73.3202 39.0685L73.3495 38.9699C73.4691 38.4776 73.1988 37.9648 72.7108 37.7922C72.1901 37.608 71.6186 37.8809 71.4344 38.4015C70.6528 40.611 69.4375 42.6744 67.829 44.507L68.5809 45.1662L69.3319 45.8263ZM57.4618 45.7033C57.8278 46.1167 58.4603 46.1552 58.8739 45.7892C59.2874 45.4232 59.3258 44.7907 58.9598 44.3771C58.0284 43.3245 56.9228 42.3262 55.6483 41.3908C54.2364 40.3546 52.817 39.8462 51.454 39.8029L51.3514 39.8049C50.8458 39.84 50.4392 40.2532 50.4227 40.7707C50.4053 41.3226 50.8386 41.7844 51.3905 41.8019L51.7313 41.8273C52.5435 41.9215 53.463 42.268 54.4647 43.0031C55.6373 43.8637 56.6346 44.7684 57.4618 45.7033ZM47.493 53.301C47.9577 53.5035 48.5097 53.3255 48.7635 52.8742C49.0342 52.3928 48.8631 51.7826 48.3817 51.5119L48.202 51.4054C46.5056 50.3362 46.0003 48.2804 46.5341 46.1965L46.66 45.7648L46.6864 45.6662C46.7934 45.1708 46.5098 44.665 46.0175 44.5051C45.5249 44.3451 44.9982 44.588 44.7938 45.0519L44.7577 45.1476L44.6757 45.4142C43.8712 48.1941 44.4021 51.5684 47.4012 53.2551L47.493 53.301ZM67.9208 45.9181C68.3357 46.2824 68.9675 46.2411 69.3319 45.8263L67.829 44.507C67.4649 44.922 67.5059 45.5539 67.9208 45.9181ZM58.8495 61.6037C59.2924 61.8718 59.8609 61.7556 60.1659 61.3508L60.2225 61.2658L60.536 60.7306C62.0452 58.0516 62.7492 55.3047 62.579 52.6115L62.5673 52.5099C62.4845 52.0098 62.0343 51.6433 61.5175 51.676C61.4904 51.6777 61.4637 51.6819 61.4374 51.6857C62.064 51.3897 62.6714 51.0738 63.2587 50.7385C63.7382 50.4646 63.9054 49.8537 63.6317 49.3742C63.3749 48.9245 62.8216 48.7494 62.3583 48.9552L62.2675 49.0011L61.8817 49.217C60.9752 49.7128 60.0157 50.1616 59.0057 50.5588C57.8419 51.0164 56.7714 51.3701 55.7899 51.632L55.3749 51.7385L55.2762 51.7677C54.7992 51.9383 54.5196 52.4459 54.6434 52.9484C54.7758 53.4845 55.3173 53.812 55.8534 53.6799C57.0436 53.386 58.3366 52.9708 59.7372 52.4201C60.1401 52.2617 60.5359 52.095 60.9247 51.9211C60.6982 52.1185 60.5625 52.4144 60.5829 52.7375L60.6014 53.1886C60.6439 55.2993 60.0546 57.5099 58.7928 59.7492L58.5126 60.2297L58.4637 60.3205C58.2465 60.7783 58.4067 61.3356 58.8495 61.6037ZM49.537 70.2121C49.847 70.669 50.4686 70.7877 50.9257 70.4777C52.1838 69.6243 53.3433 68.7491 54.4022 67.8556C54.8243 67.4995 54.8775 66.8686 54.5214 66.4465C54.1652 66.0244 53.5343 65.9712 53.1122 66.3273C52.361 66.9611 51.5527 67.5884 50.6874 68.2072L49.8036 68.8234L49.7216 68.8849C49.3331 69.2104 49.2463 69.7836 49.537 70.2121Z" fill="#10069F"/>
<path d="M22.8983 86.3911C18.4547 84.605 14.3814 89.368 12.9002 91.9729C10.6784 86.3911 4.10599 87.0265 1.79134 89.7402C-4.87397 97.5546 9.09151 112.067 10.6784 111.509C32.8963 103.694 29.0083 88.8471 22.8983 86.3911Z" fill="#10069F"/>
</svg>
