<svg width="1920" height="1107" viewBox="0 0 1920 1107" fill="none" xmlns="http://www.w3.org/2000/svg">
<path d="M0 0H192V868C192 921.019 149.019 964 96 964C42.9807 964 0 921.019 0 868V0Z" fill="#E7E6F5"/>
<path d="M384 0H576V1011C576 1064.02 533.019 1107 480 1107C426.981 1107 384 1064.02 384 1011V0Z" fill="#E7E6F5"/>
<path d="M768 0H960V868C960 921.019 917.019 964 864 964C810.981 964 768 921.019 768 868V0Z" fill="#E7E6F5"/>
<path d="M1152 0H1344V892C1344 945.019 1301.02 988 1248 988C1194.98 988 1152 945.019 1152 892V0Z" fill="#E7E6F5"/>
<path d="M1536 0H1728V930C1728 983.019 1685.02 1026 1632 1026C1578.98 1026 1536 983.019 1536 930V0Z" fill="#E7E6F5"/>
<path d="M192 0H384V930C384 983.019 341.019 1026 288 1026C234.981 1026 192 983.019 192 930V0Z" fill="#FFF0B3"/>
<path d="M576 0H768V892C768 945.019 725.019 988 672 988C618.981 988 576 945.019 576 892V0Z" fill="#FFF0B3"/>
<path d="M960 0H1152V868C1152 921.019 1109.02 964 1056 964C1002.98 964 960 921.019 960 868V0Z" fill="#FFF0B3"/>
<path d="M1344 0H1536V1011C1536 1064.02 1493.02 1107 1440 1107C1386.98 1107 1344 1064.02 1344 1011V0Z" fill="#FFF0B3"/>
<path d="M1728 0H1920V868C1920 921.019 1877.02 964 1824 964C1770.98 964 1728 921.019 1728 868V0Z" fill="#FFF0B3"/>
</svg>
