<svg width="156" height="132" viewBox="0 0 156 132" fill="none" xmlns="http://www.w3.org/2000/svg">
<path d="M120.602 9.79937L152.567 76.6388C155.519 82.817 151.499 89.3319 145.489 93.6314L111.546 120.302C108.835 122.244 105.588 123.328 102.299 123.391L43.6326 130.448C37.8227 130.564 32.6655 127.496 30.3499 122.549L5.32133 59.9302C2.94266 54.8466 4.01098 48.7158 8.04734 44.2689L39.6751 9.44149C42.6379 6.17872 46.8532 4.21581 51.2422 4.05793L107.099 2.0108C112.966 1.79504 118.224 4.82628 120.602 9.79937Z" fill="#FDB913" stroke="#0A1F8F" stroke-width="2.39" stroke-linecap="round" stroke-linejoin="round"/>
<path d="M42.8374 6.75625C45.3318 5.12487 48.2473 4.17235 51.2416 4.06184L107.098 2.01471C112.966 1.79894 118.223 4.83016 120.602 9.80325L152.566 76.6427C156.292 81.8842 151.056 88.4886 151.056 88.4886L84.7587 87.094" fill="#FFD100"/>
<path d="M42.8374 6.75625C45.3318 5.12487 48.2473 4.17235 51.2416 4.06184L107.098 2.01471C112.966 1.79894 118.223 4.83016 120.602 9.80325L152.566 76.6427C156.292 81.8842 151.056 88.4886 151.056 88.4886L84.7587 87.094" fill="#FFD100"/>
<path d="M42.8374 6.75625C45.3318 5.12487 48.2473 4.17235 51.2416 4.06184L107.098 2.01471C112.966 1.79894 118.223 4.83016 120.602 9.80325L152.566 76.6427C156.292 81.8842 151.056 88.4886 151.056 88.4886L84.7587 87.094" stroke="#0A1F8F" stroke-width="2.39" stroke-linecap="round" stroke-linejoin="round"/>
<path d="M60.6879 105.456L79.5857 88.7786C86.8743 83.0687 96.0048 80.1006 105.109 80.4795L147.093 80.448C152.33 80.669 153.535 85.9157 150.056 89.889C149.246 90.8099 146.53 92.8833 145.488 93.6306L111.545 120.301C108.835 122.243 105.588 123.327 102.299 123.39L43.6321 130.447C40.5903 130.505 37.7275 129.684 35.3594 128.19L49.9418 114.67" fill="#FFD100"/>
<path d="M60.6879 105.456L79.5857 88.7786C86.8743 83.0687 96.0048 80.1006 105.109 80.4795L147.093 80.448C152.33 80.669 153.535 85.9157 150.056 89.889C149.246 90.8099 146.53 92.8833 145.488 93.6306L111.545 120.301C108.835 122.243 105.588 123.327 102.299 123.39L43.6321 130.447C40.5903 130.505 37.7275 129.684 35.3594 128.19L49.9418 114.67" stroke="#0A1F8F" stroke-width="2.39" stroke-linecap="round" stroke-linejoin="round"/>
<g style="mix-blend-mode:overlay" opacity="0.6">
<path d="M108.808 100.282C96.9099 105.435 85.0902 110.755 73.3495 116.26C69.3658 118.128 65.2715 119.791 61.2035 121.506C58.967 122.448 59.8511 125.806 62.2613 125.516L101.878 120.748C101.925 120.743 101.972 120.738 102.02 120.738C105.019 120.664 107.977 119.67 110.45 117.896L141.652 93.3781C142.615 92.6887 145.109 90.7837 145.851 89.9364C146.267 89.4575 146.614 88.9628 146.883 88.4576C147.798 86.7631 146.025 84.8528 144.236 85.5685C132.358 90.2995 120.544 95.1989 108.803 100.277L108.808 100.282Z" fill="white"/>
</g>
<path d="M111.335 6.14567C109.982 5.81413 108.561 5.66678 107.098 5.71941L51.2418 7.76651C46.8581 7.92965 42.6376 9.89259 39.6748 13.1501L8.04701 47.9775C6.68402 49.4773 5.04735 51.7508 3.81592 54.6767C3.85276 54.7609 3.90017 54.8399 3.93174 54.9346C8.15755 67.7699 13.6358 80.1526 18.0932 92.8984C19.8245 90.3619 21.6927 87.4096 24.4819 85.9519C24.4819 85.9519 24.4819 85.9519 24.4872 85.9519C24.6924 85.8467 24.9029 85.7467 25.1186 85.6572C25.1239 85.6572 25.1344 85.652 25.1397 85.6467C25.3555 85.5572 25.5765 85.4783 25.8028 85.4046C25.8028 85.4046 25.8081 85.4046 25.8133 85.4046C26.2764 85.2625 26.7606 85.1573 27.271 85.0994C27.7078 85.052 28.1604 85.0363 28.634 85.0573C38.0382 85.5151 75.339 119.779 76.181 78.7791C77.023 37.7787 71.7341 3.98802 95.6944 12.1134C101.041 13.9289 105.667 14.7289 109.551 14.792C115.003 14.8815 116.555 7.4192 111.34 6.14567H111.335Z" fill="#0A1F8F" stroke="#0A1F8F" stroke-width="2.39" stroke-linecap="round" stroke-linejoin="round"/>
<path d="M2.01096 60.6658C1.77414 52.8667 5.42632 47.1622 8.04706 44.2783L39.6749 9.45088C42.6377 6.18811 46.8529 4.2252 51.2419 4.06732L107.098 2.02019C108.561 1.96756 109.982 2.11491 111.335 2.44645C116.55 3.71998 114.997 11.1822 109.545 11.0928C105.662 11.0296 101.041 10.2245 95.6892 8.41418C71.7289 0.288829 77.0178 34.0848 76.1758 75.0799C75.3338 116.08 38.033 81.8107 28.6288 81.3581C28.1552 81.337 27.6974 81.3528 27.2658 81.4002C26.7554 81.4581 26.2712 81.5633 25.8081 81.7054C25.8081 81.7054 25.8028 81.7054 25.7976 81.7054C25.5713 81.7738 25.3502 81.858 25.1345 81.9475C25.1292 81.9475 25.1187 81.9528 25.1135 81.958C24.8977 82.0475 24.6872 82.1474 24.4819 82.2527C24.4819 82.2527 24.4819 82.2527 24.4767 82.2527C18.6142 85.3155 16.8039 95.0091 11.8308 93.5093C6.13147 91.7884 1.76888 74.101 2.01096 60.6711V60.6658Z" fill="#F7941D"/>
<path d="M51.2421 4.06146L107.099 2.01433C108.562 1.9617 109.982 2.10905 111.335 2.44059C116.55 3.71413 114.998 11.1764 109.546 11.0869C105.662 11.0238 101.041 10.2186 95.6894 8.40832C73.1026 0.751335 74.534 16.8757 74.0972 53.3187C74.0762 54.9238 71.9555 55.4711 71.1608 54.0766L49.1266 15.218C46.7216 10.6081 45.9375 4.29302 51.1316 4.06673C51.1685 4.06673 51.2 4.06673 51.2368 4.06673L51.2421 4.06146Z" fill="#FDB913"/>
<path d="M2.01096 60.6658C1.77414 52.8667 5.42632 47.1622 8.04706 44.2783L39.6749 9.45088C42.6377 6.18811 46.8529 4.2252 51.2419 4.06732L107.098 2.02019C108.561 1.96756 109.982 2.11491 111.335 2.44645C116.55 3.71998 114.997 11.1822 109.545 11.0928C105.662 11.0296 101.041 10.2245 95.6892 8.41418C71.7289 0.288829 77.0178 34.0848 76.1758 75.0799C75.3338 116.08 38.033 81.8107 28.6288 81.3581C28.1552 81.337 27.6974 81.3528 27.2658 81.4002C26.7554 81.4581 26.2712 81.5634 25.8081 81.7054C25.8081 81.7054 25.8028 81.7054 25.7976 81.7054C25.5713 81.7739 25.3502 81.858 25.1345 81.9475C25.1292 81.9475 25.1187 81.9528 25.1135 81.958C24.8977 82.0475 24.6872 82.1474 24.4819 82.2527C24.4819 82.2527 24.4819 82.2527 24.4767 82.2527C18.6142 85.3155 16.8039 95.0091 11.8308 93.5093C6.13147 91.7884 1.76888 74.101 2.01096 60.6711V60.6658Z" stroke="#0A1F8F" stroke-width="2.39" stroke-linecap="round" stroke-linejoin="round"/>
<g style="mix-blend-mode:overlay" opacity="0.6">
<path d="M14.383 76.9904C15.6776 83.3581 15.3302 88.8627 13.6094 89.2837C11.8832 89.6994 9.43622 84.8789 8.13637 78.506C6.84179 72.1384 4.88938 53.288 6.61549 52.8723C8.3416 52.4565 13.0884 70.6227 14.383 76.9957V76.9904Z" fill="white"/>
</g>
<g style="mix-blend-mode:overlay" opacity="0.6">
<path d="M61.9983 51.9356C61.7878 50.6883 63.6087 50.0358 64.156 51.162C68.9606 61.0187 75.744 78.4745 68.5764 86.9156C67.224 88.5049 64.7979 88.9259 61.593 88.4575C60.9458 88.3628 60.5511 87.7629 60.7353 87.1419C61.8562 83.3739 65.0716 70.2334 62.0035 51.9303L61.9983 51.9356Z" fill="white"/>
</g>
<g style="mix-blend-mode:overlay" opacity="0.6">
<path d="M61.5496 47.8319C62.7367 47.2626 62.23 43.7376 60.4178 39.9586C58.6056 36.1796 56.1741 33.5776 54.987 34.1469C53.7998 34.7162 54.3065 38.2412 56.1187 42.0202C57.9309 45.7992 60.3624 48.4012 61.5496 47.8319Z" fill="white"/>
</g>
</svg>
