<svg width="1920" height="636" viewBox="0 0 1920 636" fill="none" xmlns="http://www.w3.org/2000/svg">
<path d="M-1951.99 512.933C-1951.99 512.933 -1113.6 93.8095 -358.26 14.9845C397.08 -63.8405 414.88 214.043 1381.8 263.963C2234.49 307.981 2730.35 66.1414 2730.35 66.1414L2781.76 635L-1952 512.941L-1951.99 512.933Z" fill="#FFCD00"/>
<mask id="mask0_1090_943" style="mask-type:luminance" maskUnits="userSpaceOnUse" x="-1952" y="1" width="4734" height="634">
<path d="M-1951.99 512.933C-1951.99 512.933 -1113.6 93.8095 -358.26 14.9845C397.08 -63.8405 414.88 214.043 1381.8 263.963C2234.49 307.981 2730.35 66.1414 2730.35 66.1414L2781.76 635L-1952 512.941L-1951.99 512.933Z" fill="white"/>
</mask>
<g mask="url(#mask0_1090_943)">
<path d="M2805.49 181.266L1893.98 240.134C1893.98 240.134 1342.26 551.135 294.27 218.333C-753.72 -114.477 -1248.06 404.999 -1323.2 408.59C-1398.34 412.18 -1418.11 274.181 -1805.67 518.733C-2193.23 763.285 -1904.54 1181.91 -1904.54 1181.91L2745.58 1205.55L2821.3 164.72" fill="#FFCD00"/>
<path d="M1255.26 240.135L2767.28 607.624L2459.55 656.375L1063.99 210.368L985.51 201.822L2117.94 669.885L1914.91 723.899L862.64 164.713L830.79 151.425L1503.57 672.734L1239.44 687.89L754.33 102.758H735.87L1094.43 804.925L888.79 674.389L712.15 63.1067L688.42 83.2096L775.42 667.634L648.87 654.132L664.69 102.758L635.69 122.341L440.59 795.927L245.49 651.88L609.32 122.341H582.96L-57.6997 737.409L-239.62 645.134C-239.62 645.134 606.68 95.2185 517.04 83.2096L471.63 80.216C471.63 80.216 221.75 309.049 -289.72 471.1L-295.66 383.831C-295.66 383.831 420.8 112.234 414.87 60.2154L379.94 48.7098C379.94 48.7098 147.93 193.072 -318.72 264.963L-287.08 198.138C-287.08 198.138 277.12 96.0884 345.67 35.2681H319.31C319.31 35.2681 100.48 103.722 -86.6997 122.358V93.7344C-86.6997 93.7344 258.68 48.8207 269.22 15.0117" stroke="#0A1F8F" stroke-width="2" stroke-linecap="round" stroke-linejoin="round"/>
</g>
<path d="M-1951.99 512.933C-1951.99 512.933 -1113.6 93.8095 -358.26 14.9845C397.08 -63.8405 414.88 214.043 1381.8 263.963C2234.49 307.981 2730.35 66.1414 2730.35 66.1414L2781.76 635L-1952 512.941L-1951.99 512.933Z" stroke="#0A1F8F" stroke-width="2" stroke-linecap="round" stroke-linejoin="round"/>
</svg>
