<svg width="182" height="202" viewBox="0 0 182 202" fill="none" xmlns="http://www.w3.org/2000/svg">
<path d="M103.995 39.0664L148.742 50.1413C153.514 51.3229 157.429 54.7278 159.261 59.2934L177.635 105.061C180.802 112.955 180.788 121.768 177.593 129.647L166.389 157.292C160.348 172.199 148.329 183.882 133.266 189.489L114.836 196.351C104.177 200.319 92.6301 201.263 81.4714 199.078L56.6613 194.219C42.1781 191.384 29.6629 182.344 22.4056 169.482L7.20215 142.533C2.03529 133.374 0.654437 122.554 3.35323 112.388L9.57583 88.9486C12.0369 79.6811 17.4834 71.4834 25.0694 65.6278L51.7427 45.0443" fill="#FDB913"/>
<path d="M103.995 39.0664L148.742 50.1413C153.514 51.3229 157.429 54.7278 159.261 59.2934L177.635 105.061C180.802 112.955 180.788 121.768 177.593 129.647L166.389 157.292C160.348 172.199 148.329 183.882 133.266 189.489L114.836 196.351C104.177 200.319 92.6301 201.263 81.4714 199.078L56.6613 194.219C42.1781 191.384 29.6629 182.344 22.4056 169.482L7.20215 142.533C2.03529 133.374 0.654437 122.554 3.35323 112.388L9.57583 88.9486C12.0369 79.6811 17.4834 71.4834 25.0694 65.6278L51.7427 45.0443" stroke="#0A1F8F" stroke-width="2.39" stroke-linecap="round" stroke-linejoin="round"/>
<path d="M47.2857 19.4309L51.5576 43.9472C51.6764 44.6219 51.4107 45.3071 50.8689 45.7231L45.6321 49.7643C44.8351 50.3796 44.6778 51.5228 45.2825 52.3303L54.7668 65.0272C55.0919 65.4607 55.5918 65.7298 56.1336 65.7648L88.201 67.691C88.9386 67.7365 89.6273 67.3344 89.9594 66.6772L103.667 39.2768C103.845 38.9202 103.904 38.5147 103.831 38.1197L98.5417 9.14963C98.2411 7.49959 96.0702 7.0766 95.1717 8.49241L86.6943 21.885C85.9532 23.0526 84.2402 23.0211 83.5445 21.8256L72.5396 2.91652C71.7286 1.52168 69.6451 1.76989 69.1836 3.31505L62.3108 26.3002C61.9053 27.6566 60.1888 28.0691 59.2135 27.0448L50.4424 17.8403C49.1839 16.5224 46.9815 17.634 47.2927 19.4309H47.2857Z" fill="#F7941D" stroke="#0A1F8F" stroke-width="2.39" stroke-linecap="round" stroke-linejoin="round"/>
<path d="M101.643 26.1699L80.2794 44.9007L67.8867 28.8547L56.644 50.1479L89.8511 60.5585L101.643 26.1699Z" fill="#231F20"/>
<path d="M123.579 44.0167L105.432 39.4302C104.617 39.2239 104.097 38.4339 104.222 37.6019L105.995 26.1599C106.26 24.4435 104.016 23.559 103.041 24.9993L87.9982 47.2364C86.3726 49.6415 82.7789 49.4737 81.3841 46.9252L70.9909 27.9638C70.2638 26.6389 68.2816 26.936 67.974 28.4148L64.7788 43.8035C64.1915 46.6281 61.7619 46.6736 59.563 44.8103L44.5064 33.4907C43.171 32.4874 41.3706 33.9102 42.0383 35.4414L46.8451 46.4673C47.1143 47.0826 46.978 47.7992 46.5025 48.2711L32.3688 62.3664C31.6767 63.0586 31.7466 64.2017 32.5191 64.803L63.4119 88.8264C63.7825 89.1131 64.2579 89.2284 64.7194 89.1376L113.591 79.6114C114.098 79.5135 114.528 79.1779 114.748 78.713L122.873 61.5833C122.95 61.4225 122.999 61.2512 123.02 61.0729L124.792 45.7821C124.886 44.9711 124.365 44.216 123.575 44.0167H123.579Z" fill="#FDB913"/>
<path d="M83.4046 172.001L30.9355 140.049C29.4428 139.14 28.6073 137.455 28.7856 135.714L31.4075 110.289C31.5368 109.044 32.173 107.911 33.1659 107.153L82.6356 69.3906C85.5126 67.1953 84.7785 62.6786 81.3561 61.504C75.8047 59.5988 68.1138 56.8825 60.6607 53.9775C55.1093 47.3773 47.6177 38.4979 43.0836 33.2227C42.2271 33.4779 41.6013 34.4322 42.0383 35.439L46.8451 46.4649C47.1143 47.0802 46.9779 47.7968 46.5025 48.2687L42.8878 51.873L25.066 65.6256C17.4765 71.4811 12.0335 79.6789 9.57241 88.9464L3.34981 112.386C0.651017 122.552 2.03188 133.372 7.19874 142.531L17.4485 160.699C22.9825 164.432 29.261 167.075 35.9625 168.386L60.7725 173.245C68.7046 174.797 76.8324 174.762 84.6946 173.193C84.359 172.738 83.936 172.329 83.3976 172.001H83.4046Z" fill="#F7941D"/>
<path d="M124.96 44.367L105.628 39.4798C104.712 39.2491 104.132 38.3402 104.306 37.4103L106.488 25.7761C106.841 23.8849 104.38 22.8396 103.265 24.4058L86.8656 47.5272C85.8483 49.6143 82.9013 49.6842 81.7826 47.6496L71.2112 28.356C70.4106 26.8948 68.2258 27.2234 67.8867 28.8525L64.5691 44.832C64.0797 46.7442 61.8109 46.7092 60.5943 45.5801M60.5943 45.5801C60.465 45.4577 60.7377 45.6884 60.5943 45.5801ZM60.5943 45.5801L45.0168 33.8655C43.5451 32.7573 41.563 34.327 42.2971 36.0154L47.6213 48.223" stroke="#0A1F8F" stroke-width="2.39" stroke-linecap="round" stroke-linejoin="round"/>
<path d="M103.995 39.0664L148.742 50.1413C153.514 51.3229 157.429 54.7278 159.261 59.2934L177.635 105.061C180.802 112.955 180.788 121.768 177.593 129.647L166.389 157.292C160.348 172.199 148.329 183.882 133.266 189.489L114.836 196.351C104.177 200.319 92.6301 201.263 81.4714 199.078L56.6613 194.219C42.1781 191.384 29.6629 182.344 22.4056 169.482L7.20215 142.533C2.03529 133.374 0.654437 122.554 3.35323 112.388L9.57583 88.9486C12.0369 79.6811 17.4834 71.4834 25.0694 65.6278L47.6176 48.229" stroke="#0A1F8F" stroke-width="2.39" stroke-linecap="round" stroke-linejoin="round"/>
<path d="M84.7016 26.169C87.5455 26.169 89.851 23.862 89.851 21.0162C89.851 18.1703 87.5455 15.8633 84.7016 15.8633C81.8577 15.8633 79.5522 18.1703 79.5522 21.0162C79.5522 23.862 81.8577 26.169 84.7016 26.169Z" fill="#0A1F8F" stroke="#0A1F8F" stroke-width="2.39" stroke-linecap="round" stroke-linejoin="round"/>
<path d="M88.5262 38.8248C90.2889 38.8248 91.7179 37.3958 91.7179 35.6331C91.7179 33.8704 90.2889 32.4414 88.5262 32.4414C86.7634 32.4414 85.3345 33.8704 85.3345 35.6331C85.3345 37.3958 86.7634 38.8248 88.5262 38.8248Z" fill="#0A1F8F" stroke="#0A1F8F" stroke-width="2.39" stroke-linecap="round" stroke-linejoin="round"/>
<path d="M57.6611 39.7266C59.5473 39.7266 61.0765 38.1958 61.0765 36.3076C61.0765 34.4194 59.5473 32.8887 57.6611 32.8887C55.7748 32.8887 54.2456 34.4194 54.2456 36.3076C54.2456 38.1958 55.7748 39.7266 57.6611 39.7266Z" fill="#0A1F8F" stroke="#0A1F8F" stroke-width="2.39" stroke-linecap="round" stroke-linejoin="round"/>
<path d="M79.7863 38.3392C81.1339 38.3392 82.2264 37.2467 82.2264 35.8991C82.2264 34.5515 81.1339 33.459 79.7863 33.459C78.4387 33.459 77.3462 34.5515 77.3462 35.8991C77.3462 37.2467 78.4387 38.3392 79.7863 38.3392Z" fill="#0A1F8F" stroke="#0A1F8F" stroke-width="2.39" stroke-linecap="round" stroke-linejoin="round"/>
</svg>
