<svg width="90" height="80" viewBox="0 0 90 80" fill="none" xmlns="http://www.w3.org/2000/svg">
<path d="M90.0032 41.8729C90.0032 48.5931 84.5344 54.0532 77.8227 54.0532H76.8369V60.6964C76.8369 66.971 71.7367 72.0797 65.4622 72.0797H56.5048C55.5191 76.6056 51.4903 80 46.6816 80C41.1356 80 36.6184 75.4913 36.6184 69.9455C36.6184 64.3824 41.1358 59.8737 46.6816 59.8737C51.4903 59.8737 55.5191 63.2681 56.5048 67.794H65.4622C69.3709 67.794 72.551 64.6139 72.551 60.6966V31.8355C72.551 16.6464 60.1906 4.28592 45.0014 4.28592C29.8123 4.28592 17.4518 16.6464 17.4518 31.8355V51.9104C17.4518 53.0933 16.4917 54.0534 15.3089 54.0534H12.1805C5.46879 54.0534 0 48.5933 0 41.8731C0 35.1613 5.46879 29.6927 12.1805 29.6927H13.2433C14.3491 13.1319 28.1668 0 45.0016 0C61.8364 0 75.654 13.1319 76.7599 29.6925H77.8227C84.5344 29.6925 90.0032 35.1612 90.0032 41.8729Z" fill="#10069F"/>
<path d="M52.2 28.0039C51.1231 27.9997 50.0666 28.3007 49.1502 28.8728C48.2338 29.4448 47.4941 30.2651 47.015 31.2406L45.9 33.5133C45.8076 33.6701 45.6765 33.7999 45.5197 33.89C45.3628 33.9802 45.1854 34.0276 45.005 34.0276C44.8246 34.0276 44.6472 33.9802 44.4903 33.89C44.3335 33.7999 44.2024 33.6701 44.11 33.5133L42.989 31.2456C42.405 30.0628 41.4432 29.1141 40.2593 28.5535C39.0755 27.9929 37.7392 27.8532 36.4671 28.157C35.1949 28.4609 34.0615 29.1905 33.2507 30.2275C32.4399 31.2646 31.9992 32.5483 32.0001 33.8704V35.1084C31.9939 37.1547 32.4502 39.1754 33.3341 41.016C34.218 42.8567 35.5061 44.4687 37.1 45.7289L45 52L52.9 45.7289C54.4939 44.4687 55.782 42.8567 56.6659 41.016C57.5498 39.1754 58.0061 37.1547 57.9999 35.1084V33.8704C57.9984 32.315 57.3868 30.8237 56.2994 29.7239C55.212 28.6241 53.7377 28.0055 52.2 28.0039Z" fill="#10069F"/>
</svg>
