<svg width="127" height="117" viewBox="0 0 127 117" fill="none" xmlns="http://www.w3.org/2000/svg">
<path d="M79.4389 59.6397C79.4389 59.6397 104.93 66.0256 109.332 33.8953C111.39 18.8777 104.166 19.5805 98.2845 20.017C91.4665 20.5211 78.9478 30.3925 77.8456 33.4806C77.8456 33.4806 84.8274 20.8136 78.256 3.76196C76.4794 -0.845231 68.0246 4.37305 62.5335 10.3312C52.7036 20.9925 56.2894 42.4528 61.9114 45.8007C69.8272 50.517 79.4389 59.6397 79.4389 59.6397Z" fill="#FFD100" stroke="#0A1F8F" stroke-width="2.39" stroke-linecap="round" stroke-linejoin="round"/>
<path d="M79.8598 56.6493C79.8598 56.6493 97.1733 46.7213 109.679 52.5899C122.184 58.4564 131.442 79.2968 119.36 89.7617C103.956 103.101 112.518 79.7267 112.651 73.5612C112.651 73.5612 95.6325 70.0191 88.223 78.4893C80.8113 86.9616 79.8598 56.6471 79.8598 56.6471V56.6493Z" fill="#FFD100" stroke="#0A1F8F" stroke-width="2.39" stroke-linecap="round" stroke-linejoin="round"/>
<path d="M81.859 55.6189C85.9883 53.6198 95.8159 49.5473 104.749 51.0729C110.687 55.0384 112.407 63.4518 111.848 73.4192C108.398 72.8474 94.6701 71.1188 88.2209 78.4934C86.6321 80.3092 85.3422 80.3398 84.2925 79.2725C84.2379 79.1329 78.605 64.7264 81.8569 55.6189H81.859Z" fill="#FDB913" stroke="#0A1F8F" stroke-width="2.39" stroke-linecap="round" stroke-linejoin="round"/>
<path d="M101.671 72.9346C101.671 72.9346 97.0773 61.9852 86.4421 53.7136C85.9096 53.299 90.3225 52.6377 89.7507 52.2994C77.71 45.1955 76.9855 37.2076 71.3765 26.651C66.0557 16.6379 58.4869 16.9129 58.4869 16.9129L51.479 36.7559L85.5015 71.7386L96.9114 74.0935L101.671 72.9303V72.9346Z" fill="#231F20"/>
<path d="M84.4739 53.2862C80.301 49.2596 76.82 44.4821 74.2752 39.1809C69.2425 28.6963 60.1721 14.9533 43.2885 17.9542C20.102 22.0747 3.34719 58.092 2.101 79.1703C0.854813 100.246 11.2782 111.927 26.9986 114.465C36.6211 116.019 96.9685 115.958 100.991 87.6885C103.599 69.3557 90.6394 59.2378 84.4739 53.2884V53.2862Z" fill="#FDB913" stroke="#0A1F8F" stroke-width="2.39" stroke-linecap="round" stroke-linejoin="round"/>
<path d="M69.9493 42.8086C69.9493 42.8086 78.8516 46.868 85.1938 53.9959" stroke="#0A1F8F" stroke-width="2.39" stroke-linecap="round" stroke-linejoin="round"/>
<path d="M112.651 73.561C112.651 73.561 116.176 50.2632 99.7678 50.7477" stroke="#0A1F8F" stroke-width="2.39" stroke-linecap="round" stroke-linejoin="round"/>
<path d="M109.657 73.1168C109.657 73.1168 116.953 53.1297 101.606 50.7988C101.606 50.7988 113.182 50.7486 112.959 69.555L112.654 73.562L109.659 73.1168H109.657Z" fill="#0A1F8F" stroke="#0A1F8F" stroke-width="2.39" stroke-linecap="round" stroke-linejoin="round"/>
<g style="mix-blend-mode:overlay" opacity="0.6">
<path d="M112.173 92.6105C112.167 92.641 112.16 92.6716 112.152 92.6999C113.439 93.0186 115.622 92.0212 119.151 88.9679C128.001 81.3031 124.627 67.6954 117.132 59.498C120.646 66.0367 123.404 77.7544 112.328 92.7349L112.173 92.6105Z" fill="white"/>
</g>
<path d="M101.922 21.562C102.684 20.9662 107.485 20.4272 108.544 25.5603C109.707 31.2085 107.057 39.9493 105.61 44.0917C105.434 44.6002 104.788 44.3972 104.792 43.8341C104.836 39.1244 104.731 29.2531 103.216 25.1216C102.236 22.4481 101.097 22.2059 101.922 21.562Z" fill="#FFD100"/>
<g style="mix-blend-mode:overlay" opacity="0.79">
<path d="M82.6339 58.3627C83.3214 58.7774 83.8517 57.6621 83.2275 57.1122C78.8298 53.247 72.3566 48.1291 68.0724 47.2911C63.0986 46.3155 75.1698 53.8712 82.6339 58.3627Z" fill="#FFD100"/>
</g>
<g style="mix-blend-mode:overlay" opacity="0.79">
<path d="M62.14 26.2409C55.6756 19.3399 38.4122 17.308 20.7669 37.3868C20.1668 38.0699 20.9372 39.4754 21.7818 39.2397L62.0047 27.9956C62.6267 27.821 62.6987 26.8367 62.14 26.2387V26.2409Z" fill="#FFD100"/>
</g>
<path d="M84.4739 53.2862C80.301 49.2596 76.82 44.4821 74.2752 39.1809C69.2425 28.6963 60.1721 14.9533 43.2885 17.9542C20.102 22.0747 3.34719 58.092 2.101 79.1703C0.854809 100.246 11.2782 111.927 26.9986 114.465C36.6211 116.019 96.9685 115.958 100.991 87.6885C103.599 69.3557 90.6394 59.2378 84.4739 53.2884V53.2862Z" stroke="#0A1F8F" stroke-width="2.39" stroke-linecap="round" stroke-linejoin="round"/>
<g style="mix-blend-mode:overlay" opacity="0.79">
<path d="M42.9408 28.1625C40.767 29.9107 39.6758 32.2394 40.503 33.3655C41.3301 34.4917 43.7614 33.9897 45.9351 32.2416C48.1088 30.4934 49.2001 28.1647 48.3729 27.0386C47.5457 25.9124 45.1145 26.4144 42.9408 28.1625Z" fill="white"/>
<path d="M53.6243 42.7563C51.4506 44.5044 50.3594 46.8331 51.1865 47.9593C52.0137 49.0854 54.4449 48.5835 56.6186 46.8353C58.7924 45.0871 59.8837 42.7585 59.0565 41.6323C58.2293 40.5062 55.798 41.0081 53.6243 42.7563Z" fill="white"/>
<path d="M64.8724 58.6664C62.6986 60.4146 61.6074 62.7433 62.4346 63.8694C63.2617 64.9956 65.693 64.4936 67.8667 62.7455C70.0404 60.9973 71.1317 58.6686 70.3045 57.5425C69.4774 56.4163 67.0461 56.9183 64.8724 58.6664Z" fill="white"/>
<path d="M77.0116 75.1586C74.8378 76.9068 73.7465 79.2355 74.5737 80.3616C75.4009 81.4878 77.8322 80.9858 80.0059 79.2376C82.1796 77.4895 83.2709 75.1608 82.4437 74.0346C81.6165 72.9085 79.1853 73.4105 77.0116 75.1586Z" fill="white"/>
<path d="M82.2529 97.484C81.4402 96.3447 82.6167 94.1121 84.8805 92.4973C87.1443 90.8825 89.6383 90.4971 90.4509 91.6364C91.2636 92.7756 90.0872 95.0082 87.8233 96.623C85.5595 98.2378 83.0655 98.6233 82.2529 97.484Z" fill="white"/>
<path d="M57.4197 81.7595C56.7504 80.9491 57.5814 79.1579 59.2757 77.7587C60.97 76.3595 62.886 75.8823 63.5553 76.6927C64.2245 77.5032 63.3936 79.2944 61.6993 80.6936C60.005 82.0927 58.0889 82.57 57.4197 81.7595Z" fill="white"/>
<path d="M66.7626 96.8654C66.3199 95.9042 67.5674 94.3851 69.549 93.4724C71.5306 92.5597 73.4959 92.5991 73.9386 93.5603C74.3813 94.5215 73.1338 96.0407 71.1522 96.9534C69.1706 97.866 67.2053 97.8267 66.7626 96.8654Z" fill="white"/>
<path d="M45.9148 66.1599C45.2455 65.3495 46.0765 63.5583 47.7708 62.1591C49.4651 60.7599 51.3811 60.2827 52.0504 61.0931C52.7197 61.9036 51.8887 63.6948 50.1944 65.0939C48.5001 66.4931 46.5841 66.9704 45.9148 66.1599Z" fill="white"/>
<path d="M36.4284 48.8982C35.7592 48.0878 36.5901 46.2965 38.2844 44.8974C39.9787 43.4982 41.8948 43.021 42.5641 43.8314C43.2333 44.6418 42.4024 46.4331 40.7081 47.8322C39.0138 49.2314 37.0977 49.7087 36.4284 48.8982Z" fill="white"/>
<path d="M27.6418 35.2029C26.9726 34.3925 27.8035 32.6012 29.4978 31.2021C31.1921 29.8029 33.1082 29.3256 33.7775 30.1361C34.4467 30.9465 33.6158 32.7378 31.9215 34.1369C30.2272 35.5361 28.3111 36.0133 27.6418 35.2029Z" fill="white"/>
<path d="M25.0948 50.4617C24.0473 51.9807 23.7396 53.6503 24.4118 54.1937C25.0818 54.735 26.4764 53.9449 27.5261 52.4259C28.5737 50.9069 28.8814 49.2374 28.2092 48.6939C27.5392 48.1527 26.1446 48.9427 25.0948 50.4617Z" fill="white"/>
<path d="M33.4562 62.8738C32.4086 64.3928 32.1009 66.0624 32.7731 66.6058C33.4431 67.1471 34.8377 66.357 35.8874 64.838C36.935 63.319 37.2428 61.6495 36.5706 61.106C35.9006 60.5648 34.506 61.3548 33.4562 62.8738Z" fill="white"/>
<path d="M42.3818 80.7008C41.8244 80.0262 42.5053 78.5432 43.9027 77.3884C45.3002 76.2336 46.8849 75.8443 47.4423 76.5188C47.9998 77.1934 47.3188 78.6764 45.9214 79.8312C44.524 80.986 42.9393 81.3753 42.3818 80.7008Z" fill="white"/>
<path d="M29.6162 79.0546C29.0799 78.4252 29.4594 77.221 30.4639 76.3649C31.4684 75.5088 32.7176 75.3249 33.2539 75.9543C33.7903 76.5836 33.4108 77.7878 32.4062 78.6439C31.4017 79.5 30.1526 79.6839 29.6162 79.0546Z" fill="white"/>
<path d="M18.5934 77.6946C17.8164 78.6462 17.5611 79.768 18.0238 80.2001C18.4843 80.6322 19.4882 80.211 20.2652 79.2573C21.0421 78.3057 21.2975 77.1839 20.8348 76.7518C20.3743 76.3196 19.3703 76.7409 18.5934 77.6946Z" fill="white"/>
<path d="M26.419 92.692C26.0465 92.1715 26.5424 91.1787 27.5265 90.4744C28.5106 89.7701 29.6103 89.6211 29.9828 90.1416C30.3553 90.662 29.8595 91.6549 28.8754 92.3592C27.8912 93.0635 26.7915 93.2125 26.419 92.692Z" fill="white"/>
<path d="M16.0077 94.596C15.5503 94.1569 15.865 93.0869 16.7106 92.2061C17.5562 91.3252 18.6124 90.9671 19.0698 91.4062C19.5272 91.8452 19.2125 92.9152 18.3669 93.7961C17.5213 94.6769 16.4651 95.035 16.0077 94.596Z" fill="white"/>
<path d="M22.4126 64.9321C21.6946 66.0713 21.6378 67.3874 22.2904 67.8741C22.9408 68.3607 24.0516 67.8326 24.7718 66.6933C25.4899 65.5541 25.5466 64.2381 24.8941 63.7514C24.2437 63.2647 23.1328 63.7928 22.4126 64.9321Z" fill="white"/>
<path d="M10.0053 64.1384C9.49463 65.437 9.6583 66.7552 10.3698 67.0826C11.0813 67.4099 12.0721 66.6264 12.5806 65.3278C13.0913 64.0293 12.9276 62.7111 12.2161 62.3837C11.5047 62.0541 10.5138 62.8398 10.0053 64.1384Z" fill="white"/>
<path d="M13.6128 48.3448C13.0344 49.5976 13.1282 50.9201 13.8245 51.302C14.5207 51.6818 15.5529 50.9747 16.1313 49.7219C16.7096 48.4692 16.6158 47.1466 15.9196 46.7647C15.2234 46.385 14.1911 47.0921 13.6128 48.3448Z" fill="white"/>
<path d="M38.1768 92.8436C37.6404 92.2143 38.02 91.0101 39.0245 90.154C40.029 89.2978 41.2781 89.114 41.8145 89.7433C42.3508 90.3726 41.9713 91.5768 40.9668 92.433C39.9623 93.2891 38.7131 93.4729 38.1768 92.8436Z" fill="white"/>
<path d="M35.6955 105.743C35.3451 104.988 36.0246 103.928 37.2132 103.377C38.4018 102.826 39.6494 102.992 39.9998 103.747C40.3502 104.503 39.6707 105.562 38.4821 106.113C37.2935 106.665 36.0459 106.499 35.6955 105.743Z" fill="white"/>
<path d="M50.3966 95.0331C49.9943 94.2492 50.9678 92.9467 52.5709 92.1239C54.1741 91.301 55.7998 91.2694 56.2022 92.0533C56.6045 92.8372 55.6311 94.1397 54.0279 94.9625C52.4248 95.7854 50.799 95.817 50.3966 95.0331Z" fill="white"/>
</g>
</svg>
