<svg width="80" height="80" viewBox="0 0 80 80" fill="none" xmlns="http://www.w3.org/2000/svg">
<path d="M8.27425 64.1373L5.51562 62.0684V65.5166L8.27425 67.5856V64.1373Z" fill="#10069F"/>
<path d="M44.1367 19.311L47.4471 16.8283C47.6858 16.6492 47.9762 16.5524 48.2746 16.5524C48.5731 16.5524 48.8635 16.6492 49.1022 16.8283L52.4126 19.311V11.0352H44.1367V19.311Z" fill="#10069F"/>
<path d="M0 69.6069L13.7931 78.8028V10.389L0 1.19727V69.6069ZM2.75862 59.3104C2.75862 59.0542 2.82995 58.8031 2.96462 58.5852C3.09929 58.3673 3.29197 58.1912 3.52108 58.0767C3.7502 57.9621 4.00668 57.9136 4.2618 57.9366C4.51692 57.9596 4.76059 58.0532 4.96552 58.2069L10.4828 62.3448C10.6541 62.4733 10.7931 62.6399 10.8889 62.8315C10.9846 63.023 11.0345 63.2342 11.0345 63.4483V70.3448C11.0345 70.601 10.9632 70.8521 10.8285 71.07C10.6938 71.2879 10.5011 71.464 10.272 71.5785C10.0429 71.6931 9.78642 71.7416 9.5313 71.7186C9.27618 71.6956 9.03251 71.602 8.82759 71.4483L3.31034 67.3104C3.13904 67.1819 3 67.0153 2.90424 66.8238C2.80848 66.6322 2.75862 66.4211 2.75862 66.2069V59.3104Z" fill="#10069F"/>
<path d="M55.1715 11.0352V22.0696C55.1715 22.3258 55.1001 22.5769 54.9655 22.7948C54.8308 23.0127 54.6381 23.1888 54.409 23.3033C54.1799 23.4179 53.9234 23.4664 53.6683 23.4434C53.4132 23.4204 53.1695 23.3268 52.9646 23.1731L48.2749 19.6558L43.5853 23.1731C43.3803 23.3268 43.1367 23.4204 42.8815 23.4434C42.6264 23.4664 42.3699 23.4179 42.1408 23.3033C41.9117 23.1888 41.719 23.0127 41.5844 22.7948C41.4497 22.5769 41.3784 22.3258 41.3784 22.0696V11.0352H16.5508V80.0007H79.9991V11.0352H55.1715ZM68.9646 44.1703C68.9742 47.38 68.2501 50.5495 66.8476 53.4365C65.4451 56.3236 63.4012 58.8519 60.8722 60.8283L49.1273 70.0545C48.8843 70.2455 48.5841 70.3494 48.2749 70.3494C47.9658 70.3494 47.6656 70.2455 47.4225 70.0545L35.6777 60.8283C33.1486 58.8519 31.1048 56.3236 29.7022 53.4365C28.2997 50.5495 27.5756 47.38 27.5853 44.1703V42.4834C27.5875 40.0616 28.4068 37.7114 29.9106 35.8131C31.4144 33.9148 33.5147 32.5793 35.8717 32.0228C38.2287 31.4663 40.7045 31.7213 42.8985 32.7466C45.0926 33.7718 46.8766 35.5074 47.9618 37.6724L48.2749 38.2972L48.588 37.6724C49.6733 35.5074 51.4572 33.7718 53.6513 32.7466C55.8454 31.7213 58.3212 31.4663 60.6782 32.0228C63.0352 32.5793 65.1354 33.9148 66.6392 35.8131C68.143 37.7114 68.9623 40.0616 68.9646 42.4834V44.1703Z" fill="#10069F"/>
<path d="M49.2362 8.27586L36.8224 0H30.7617L43.1755 8.27586H49.2362Z" fill="#10069F"/>
<path d="M25.7882 0H3.17578L15.5896 8.27586H38.202L25.7882 0Z" fill="#10069F"/>
<path d="M76.8231 8.27586L64.4093 0H41.7969L54.2107 8.27586H76.8231Z" fill="#10069F"/>
<path d="M58.2059 34.4818C56.7206 34.4761 55.2633 34.8866 53.9993 35.6667C52.7353 36.4468 51.715 37.5654 51.0542 38.8956L49.5162 41.9949C49.3888 42.2087 49.208 42.3857 48.9916 42.5086C48.7752 42.6315 48.5306 42.6962 48.2818 42.6962C48.0329 42.6962 47.7883 42.6315 47.5719 42.5086C47.3555 42.3857 47.1747 42.2087 47.0473 41.9949L45.5011 38.9025C44.6956 37.2895 43.3689 35.9958 41.736 35.2314C40.1032 34.4669 38.2599 34.2763 36.5052 34.6907C34.7505 35.1051 33.1873 36.1 32.0689 37.5142C30.9505 38.9284 30.3426 40.6789 30.3438 42.4818V44.1701C30.3354 46.9606 30.9648 49.716 32.1839 52.2261C33.4031 54.7361 35.1798 56.9344 37.3783 58.6529L48.2749 67.2046L59.1714 58.6529C61.3699 56.9344 63.1466 54.7361 64.3658 52.2261C65.585 49.716 66.2144 46.9606 66.2059 44.1701V42.4818C66.2037 40.3608 65.3602 38.3272 63.8603 36.8274C62.3605 35.3276 60.327 34.484 58.2059 34.4818Z" fill="#10069F"/>
</svg>
