<svg width="82" height="80" viewBox="0 0 82 80" fill="none" xmlns="http://www.w3.org/2000/svg">
<g clip-path="url(#clip0_2526_2861)">
<path d="M79.5977 59.6875H42.7617C41.435 59.6875 40.3594 60.7369 40.3594 62.0312V69.0625C40.3594 75.1031 45.3787 80 51.5703 80H70.7891C76.9807 80 82 75.1031 82 69.0625V62.0312C82 60.7369 80.9244 59.6875 79.5977 59.6875Z" fill="#10069F"/>
<path d="M43.5625 55H59.5781C59.5781 50.6853 55.9929 47.1875 51.5703 47.1875C47.1478 47.1875 43.5625 50.6853 43.5625 55Z" fill="#10069F"/>
<path d="M35.5547 62.0312C35.5547 59.5986 36.8276 57.4505 38.7578 56.1877V55C38.7578 48.1075 44.5055 42.5 51.5703 42.5C53.2684 42.5 54.8905 42.8241 56.375 43.412V12.0312C56.375 10.7369 55.2994 9.6875 53.9727 9.6875H46.7656V15.1562C46.7656 19.0333 43.5326 22.1875 39.5586 22.1875C38.2319 22.1875 37.1562 21.1381 37.1562 19.8438C37.1562 18.5494 38.2319 17.5 39.5586 17.5C40.8832 17.5 41.9609 16.4486 41.9609 15.1562V9.6875H37.1562V7.03125C37.1562 5.73891 38.2339 4.6875 39.5586 4.6875C40.8832 4.6875 41.9609 5.73891 41.9609 7.03125V9.6875H46.7656V7.03125C46.7656 3.15422 43.5326 0 39.5586 0C35.5846 0 32.3516 3.15422 32.3516 7.03125V9.6875H24.0234V15.1562C24.0234 19.0333 20.7904 22.1875 16.8164 22.1875C15.4897 22.1875 14.4141 21.1381 14.4141 19.8438C14.4141 18.5494 15.4897 17.5 16.8164 17.5C18.1411 17.5 19.2188 16.4486 19.2188 15.1562V9.6875H14.4141V7.03125C14.4141 5.73891 15.4918 4.6875 16.8164 4.6875C18.1411 4.6875 19.2188 5.73891 19.2188 7.03125V9.6875H24.0234V7.03125C24.0234 3.15422 20.7904 0 16.8164 0C12.8424 0 9.60938 3.15422 9.60938 7.03125V9.6875H2.40234C1.07561 9.6875 0 10.7369 0 12.0312V77.6562C0 78.9506 1.07561 80 2.40234 80H40.1435C37.3066 77.1795 35.5547 73.3169 35.5547 69.0625V62.0312ZM10.4102 70.625C9.08342 70.625 8.00781 69.5756 8.00781 68.2812C8.00781 66.9869 9.08342 65.9375 10.4102 65.9375C11.7369 65.9375 12.8125 66.9869 12.8125 68.2812C12.8125 69.5756 11.7369 70.625 10.4102 70.625ZM10.4102 61.25C9.08342 61.25 8.00781 60.2006 8.00781 58.9062C8.00781 57.6119 9.08342 56.5625 10.4102 56.5625C11.7369 56.5625 12.8125 57.6119 12.8125 58.9062C12.8125 60.2006 11.7369 61.25 10.4102 61.25ZM10.4102 51.875C9.08342 51.875 8.00781 50.8256 8.00781 49.5312C8.00781 48.2369 9.08342 47.1875 10.4102 47.1875C11.7369 47.1875 12.8125 48.2369 12.8125 49.5312C12.8125 50.8256 11.7369 51.875 10.4102 51.875ZM10.4102 42.5C9.08342 42.5 8.00781 41.4506 8.00781 40.1562C8.00781 38.8619 9.08342 37.8125 10.4102 37.8125C11.7369 37.8125 12.8125 38.8619 12.8125 40.1562C12.8125 41.4506 11.7369 42.5 10.4102 42.5ZM10.4102 33.125C9.08342 33.125 8.00781 32.0756 8.00781 30.7812C8.00781 29.4869 9.08342 28.4375 10.4102 28.4375C11.7369 28.4375 12.8125 29.4869 12.8125 30.7812C12.8125 32.0756 11.7369 33.125 10.4102 33.125ZM20.0195 28.4375H42.7617C44.0885 28.4375 45.1641 29.4869 45.1641 30.7812C45.1641 32.0756 44.0885 33.125 42.7617 33.125H20.0195C18.6928 33.125 17.6172 32.0756 17.6172 30.7812C17.6172 29.4869 18.6928 28.4375 20.0195 28.4375ZM20.0195 37.8125H36.3555C37.6822 37.8125 38.7578 38.8619 38.7578 40.1562C38.7578 41.4506 37.6822 42.5 36.3555 42.5H20.0195C18.6928 42.5 17.6172 41.4506 17.6172 40.1562C17.6172 38.8619 18.6928 37.8125 20.0195 37.8125ZM28.3477 70.625H20.0195C18.6928 70.625 17.6172 69.5756 17.6172 68.2812C17.6172 66.9869 18.6928 65.9375 20.0195 65.9375H28.3477C29.6744 65.9375 30.75 66.9869 30.75 68.2812C30.75 69.5756 29.6744 70.625 28.3477 70.625ZM28.3477 61.25H20.0195C18.6928 61.25 17.6172 60.2006 17.6172 58.9062C17.6172 57.6119 18.6928 56.5625 20.0195 56.5625H28.3477C29.6744 56.5625 30.75 57.6119 30.75 58.9062C30.75 60.2006 29.6744 61.25 28.3477 61.25ZM33.1523 51.875H20.0195C18.6928 51.875 17.6172 50.8256 17.6172 49.5312C17.6172 48.2369 18.6928 47.1875 20.0195 47.1875H33.1523C34.4791 47.1875 35.5547 48.2369 35.5547 49.5312C35.5547 50.8256 34.4791 51.875 33.1523 51.875Z" fill="#10069F"/>
<path d="M63.2617 33.125C64.5885 33.125 65.6641 32.0757 65.6641 30.7812C65.6641 29.4868 64.5885 28.4375 63.2617 28.4375C61.9349 28.4375 60.8594 29.4868 60.8594 30.7812C60.8594 32.0757 61.9349 33.125 63.2617 33.125Z" fill="#10069F"/>
<path d="M65.7965 47.0324C69.3766 48.7247 73.8102 48.1213 76.7819 45.2221C79.7534 42.323 80.372 37.9975 78.6375 34.5046C77.9241 33.0682 75.9509 32.7746 74.794 33.9032L65.1802 43.2825C64.0234 44.4113 64.3243 46.3364 65.7965 47.0324Z" fill="#10069F"/>
</g>
<defs>
<clipPath id="clip0_2526_2861">
<rect width="82" height="80" fill="white"/>
</clipPath>
</defs>
</svg>
