<svg width="49" height="51" viewBox="0 0 49 51" fill="none" xmlns="http://www.w3.org/2000/svg">
<path d="M33.2586 40.3266C41.2515 40.3266 47.731 33.8412 47.731 25.841C47.731 17.8409 41.2515 11.3555 33.2586 11.3555C25.2657 11.3555 18.7861 17.8409 18.7861 25.841C18.7861 33.8412 25.2657 40.3266 33.2586 40.3266Z" fill="#F7941D"/>
<path d="M32.1396 17.0859C32.1396 17.0859 36.1651 18.0762 31.2805 21.5082C28.0179 23.8003 23.7825 22.2996 25.9455 20.8185" stroke="#0A1F8F" stroke-linecap="round" stroke-linejoin="round"/>
<path d="M47.0926 30.0952C48.9354 24.087 46.6817 17.799 41.926 14.239C40.0537 13.851 37.8491 14.0489 36.7058 16.5081C34.4826 21.2889 36.1276 23.8575 32.2026 26.1167C29.0045 27.9573 26.7879 33.7131 28.6864 39.5858C28.7936 39.6219 28.9018 39.6568 29.01 39.6896C36.6512 42.0385 44.747 37.7419 47.0937 30.0941L47.0926 30.0952Z" fill="#FDB913"/>
<g style="mix-blend-mode:overlay" opacity="0.6">
<path d="M45.2765 32.9737C47.333 29.5875 47.7691 26.0949 46.2506 25.1727C44.7322 24.2506 41.8341 26.2481 39.7777 29.6343C37.7213 33.0205 37.2852 36.5132 38.8036 37.4353C40.3221 38.3575 43.2201 36.3599 45.2765 32.9737Z" fill="white"/>
</g>
<path d="M29.5742 24.0423C22.697 25.2118 20.4104 20.1589 20.0639 19.8867C19.9601 20.1643 19.5109 21.3043 19.4224 21.5907C17.0757 29.2385 21.3679 37.342 29.0091 39.6909C30.8005 40.2417 32.616 40.4264 34.3779 40.2898C36.4043 35.3516 35.0589 23.1111 29.5731 24.0434L29.5742 24.0423Z" fill="#0A1F8F" stroke="#0A1F8F" stroke-linecap="round" stroke-linejoin="round"/>
<path d="M46.2282 27.9707C46.2282 27.9707 46.7277 31.8432 42.6016 34.4358L46.2282 27.9707Z" fill="white"/>
<g style="mix-blend-mode:overlay" opacity="0.6">
<path d="M45.441 23.8589C46.0645 23.8188 46.521 23.0264 46.4608 22.0891C46.4005 21.1518 45.8462 20.4244 45.2227 20.4645C44.5992 20.5046 44.1426 21.297 44.2029 22.2343C44.2632 23.1717 44.8175 23.899 45.441 23.8589Z" fill="white"/>
</g>
<path d="M33.2586 40.3266C41.2515 40.3266 47.731 33.8412 47.731 25.841C47.731 17.8409 41.2515 11.3555 33.2586 11.3555C25.2657 11.3555 18.7861 17.8409 18.7861 25.841C18.7861 33.8412 25.2657 40.3266 33.2586 40.3266Z" stroke="#0A1F8F" stroke-linecap="round" stroke-linejoin="round"/>
<path d="M25.5148 24.8607C25.5148 24.8607 23.0129 24.3306 18.5206 19.5236C14.0273 14.7166 2.95188 17.8196 1.15498 31.6658C-0.641918 45.513 13.577 53.7444 23.5736 48.7527C33.5691 43.761 38.1105 25.8346 25.5148 24.8596V24.8607Z" fill="#FFD100"/>
<path d="M23.5739 48.7515C23.5739 48.7515 23.5772 48.7504 23.5783 48.7493C23.9969 40.6644 14.4321 29.9027 13.209 22.8911C12.7445 20.2285 13.2014 18.5234 14.032 17.4337C8.95722 17.0151 2.4921 21.3696 1.15645 31.6646C-0.640453 45.5119 13.5784 53.7433 23.575 48.7515H23.5739Z" fill="#FDB913"/>
<path d="M25.5148 24.8593C25.5148 24.8593 23.013 24.3292 18.5207 19.5221C17.9534 18.9155 17.2812 18.4357 16.5369 18.0859C15.057 18.851 14.3203 20.3244 17.525 23.1487C19.1907 24.6177 22.8108 25.1402 27.2254 25.1172C26.6942 24.9937 26.1258 24.9063 25.5148 24.8582V24.8593Z" fill="#F7941D"/>
<g style="mix-blend-mode:overlay" opacity="0.6">
<path d="M27.0765 40.2016C28.5036 40.2016 29.6604 39.0433 29.6604 37.6145C29.6604 36.1856 28.5036 35.0273 27.0765 35.0273C25.6495 35.0273 24.4927 36.1856 24.4927 37.6145C24.4927 39.0433 25.6495 40.2016 27.0765 40.2016Z" fill="white"/>
</g>
<path d="M25.5148 24.8607C25.5148 24.8607 23.0129 24.3306 18.5206 19.5236C14.0273 14.7166 2.95188 17.8196 1.15498 31.6658C-0.641918 45.513 13.577 53.7444 23.5736 48.7527C33.5691 43.761 38.1105 25.8346 25.5148 24.8596V24.8607Z" stroke="#0A1F8F" stroke-linecap="round" stroke-linejoin="round"/>
<g style="mix-blend-mode:overlay" opacity="0.6">
<path d="M27.7502 32.5069C29.7088 33.6884 31.5833 32.8195 31.697 30.534C31.9134 26.2145 21.3353 25.0242 21.2533 26.4495C21.2118 27.1676 24.3531 30.4564 27.7502 32.5069Z" fill="white"/>
</g>
<path d="M15.7085 21.0469C15.7085 21.0469 16.3304 23.0514 19.1154 23.8537C21.9004 24.656 25.9193 24.9314 25.9193 24.9314" stroke="#0A1F8F" stroke-linecap="round" stroke-linejoin="round"/>
<path d="M30.676 21.7147C30.676 21.7147 23.4501 6.51433 15.7248 3.31183C15.6723 3.28997 13.6459 1.60019 18.3239 4.97101C19.3361 5.70005 25.7258 9.25668 20.546 23.8658" stroke="#0A1F8F" stroke-linecap="round" stroke-linejoin="round"/>
<path d="M17.21 1.24586L12.8121 3.57935C12.5572 3.71459 12.4602 4.03085 12.5955 4.28573L12.596 4.2867C12.7312 4.54158 13.0475 4.63858 13.3024 4.50334L17.7003 2.16985C17.9552 2.03461 18.0522 1.71835 17.9169 1.46346L17.9164 1.46249C17.7812 1.20761 17.4649 1.11062 17.21 1.24586Z" fill="#0A1F8F" stroke="#0A1F8F" stroke-linecap="round" stroke-linejoin="round"/>
</svg>
