<svg width="1920" height="1064" viewBox="0 0 1920 1064" fill="none" xmlns="http://www.w3.org/2000/svg">
<path d="M971.507 123.156C971.507 123.156 903.243 53.9476 396.038 222.959C272.5 253.5 71 369 0.000133514 501.5C0.000240326 453.5 -0.000129392 341 4.98988e-05 278.5C67 163 147 241 222 209C291.5 179.347 283 109.5 415 79.0009C554.5 46.7685 614.178 102.294 682.5 79.0008C770.5 48.9991 862 35.4994 988 59.4996L971.507 123.156Z" fill="#FFE166"/>
<path d="M102.123 662.887C141.5 590 1096.5 700.499 1920 132.5C1920 228 1920 403 1920 521C1483.5 945.5 733.5 879.5 718.973 804.787C709.773 757.471 939.361 701.334 1069.59 735.307C1250.5 782.5 1405.41 719.053 1358 630C1299.47 520.053 979.223 740.347 634.703 745.747C290.183 751.147 284.592 766.169 246.413 713.397C207.165 659.146 74.8358 713.397 102.123 662.887Z" fill="#FFE166"/>
<g filter="url(#filter0_d_1440_2379)">
<path d="M81 111.03C81 111.03 309.32 93.3697 371.99 13.1497C402.88 -26.4003 81 111.03 81 111.03Z" fill="#FFF0B3"/>
</g>
<g filter="url(#filter1_d_1440_2379)">
<path d="M455.079 1045.03C455.079 1045.03 226.759 1027.37 164.089 947.15C133.199 907.6 455.079 1045.03 455.079 1045.03Z" fill="#FFF0B3"/>
</g>
<path d="M631.631 182.812C592.791 202.092 552.781 218.912 511.671 232.692L511.661 232.682C426.491 261.242 337.091 283.352 542.241 168.672C1181.5 -122 1418.5 140.999 1920 111.001V253C1638.5 335.5 1178.76 127.052 949.921 121.092C789.731 116.922 681.911 157.872 631.631 182.812Z" fill="#FFF0B3"/>
<g filter="url(#filter2_d_1440_2379)">
<path d="M1799.04 743.493C1799.04 743.493 1635.18 980.491 1267.39 920.983C1267.39 920.983 1580.72 886.855 1799.04 743.493Z" fill="#FFF0B3"/>
</g>
<path d="M189.992 583.031C190.682 582.949 183.51 581.519 184.602 581.474C180.813 581.631 176.88 580.075 170.326 578.829C166.325 578.071 142.401 568.072 137.837 569.181C131.426 570.738 131.863 568.56 131.863 568.56C131.863 568.56 135.358 567.471 134.194 566.071C134.194 566.071 138.274 567.167 135.358 563.351C135.358 563.351 139.438 557.981 132.59 556.735C132.59 556.735 134.047 553 130.405 553C126.762 553 123.994 556.735 123.994 556.735C123.994 556.735 120.204 564.358 121.372 566.225C122.536 568.092 125.888 567.782 125.888 567.782V569.649L78.5394 571.049C78.5394 571.049 69.6533 572.295 66.5912 571.981C63.5324 571.67 65.1335 573.537 71.3978 574.005C77.6621 574.473 76.7882 576.494 79.2666 575.251C79.2666 575.251 101.76 578.986 109.161 577.586V586.858C109.161 587.868 110.011 588.636 110.943 588.469L121.768 586.516L122.632 608.047C122.574 608.153 122.574 608.231 122.642 608.279C122.881 608.45 123.154 608.645 123.434 608.849C122.789 627.099 121.369 668.051 121.369 668.051C121.369 668.051 118.928 667.43 119.037 669.645C119.146 671.861 124.574 674.742 124.574 674.742C129.091 678.477 136.522 675.363 137.069 674.08L135.102 610.201C135.433 610.17 134.761 610.232 135.102 610.201L144.575 667.826C144.575 667.826 142.425 668.369 142.097 668.488C141.769 668.604 140.639 668.993 141.623 670.512C142.606 672.028 147.928 673.612 149.089 674.09C153.605 675.957 159.104 674.363 160.415 671.912C161.405 670.062 152.571 629.489 146.767 608.58C152.243 607.457 156.302 605.828 154.895 603.503C154.79 602.913 150.287 598.366 147.218 593.972C146.48 592.917 145.859 591.78 145.323 590.596L142.199 583.659L151.208 589.357C152.26 590.022 153.619 589.463 153.98 588.213L155.51 582.908C164.147 585.615 173.258 585.158 179.683 585.294C180.724 585.315 182.356 586.895 183.254 586.892C186.049 586.878 186.787 586.926 190.866 586.615C194.946 586.305 196.765 586.148 196.912 585.369C197.059 584.591 189.992 583.034 189.992 583.034V583.031Z" fill="#231F20"/>
<mask id="mask0_1440_2379" style="mask-type:luminance" maskUnits="userSpaceOnUse" x="65" y="553" width="132" height="124">
<path d="M189.992 583.031C190.682 582.949 183.51 581.519 184.602 581.474C180.813 581.631 176.88 580.075 170.326 578.829C166.325 578.071 142.401 568.072 137.837 569.181C131.426 570.738 131.863 568.56 131.863 568.56C131.863 568.56 135.358 567.471 134.194 566.071C134.194 566.071 138.274 567.167 135.358 563.351C135.358 563.351 139.438 557.981 132.59 556.735C132.59 556.735 134.047 553 130.405 553C126.762 553 123.994 556.735 123.994 556.735C123.994 556.735 120.204 564.358 121.372 566.225C122.536 568.092 125.888 567.782 125.888 567.782V569.649L78.5394 571.049C78.5394 571.049 69.6533 572.295 66.5912 571.981C63.5324 571.67 65.1335 573.537 71.3978 574.005C77.6621 574.473 76.7882 576.494 79.2666 575.251C79.2666 575.251 101.76 578.986 109.161 577.586V586.858C109.161 587.868 110.011 588.636 110.943 588.469L121.768 586.516L122.632 608.047C122.574 608.153 122.574 608.231 122.642 608.279C122.881 608.45 123.154 608.645 123.434 608.849C122.789 627.099 121.369 668.051 121.369 668.051C121.369 668.051 118.928 667.43 119.037 669.645C119.146 671.861 124.574 674.742 124.574 674.742C129.091 678.477 136.522 675.363 137.069 674.08L135.102 610.201C135.433 610.17 134.761 610.232 135.102 610.201L144.575 667.826C144.575 667.826 142.425 668.369 142.097 668.488C141.769 668.604 140.639 668.993 141.623 670.512C142.606 672.028 147.928 673.612 149.089 674.09C153.605 675.957 159.104 674.363 160.415 671.912C161.405 670.062 152.571 629.489 146.767 608.58C152.243 607.457 156.302 605.828 154.895 603.503C154.79 602.913 150.287 598.366 147.218 593.972C146.48 592.917 145.859 591.78 145.323 590.596L142.199 583.659L151.208 589.357C152.26 590.022 153.619 589.463 153.98 588.213L155.51 582.908C164.147 585.615 173.258 585.158 179.683 585.294C180.724 585.315 182.356 586.895 183.254 586.892C186.049 586.878 186.787 586.926 190.866 586.615C194.946 586.305 196.765 586.148 196.912 585.369C197.059 584.591 189.992 583.034 189.992 583.034V583.031Z" fill="white"/>
</mask>
<g mask="url(#mask0_1440_2379)">
<path d="M133.703 555.214C133.703 555.214 132.696 552.637 130.101 554.2C123.396 558.242 119.686 566.507 123.847 568.197C126.67 569.344 125.885 567.78 125.885 567.78C125.885 567.78 128.411 567.036 128.299 568.726C128.186 570.416 129.425 571.542 123.687 571.768C117.948 571.993 90.16 573.345 87.1217 573.683C84.0835 574.021 69.2813 574.249 65.9938 572.952C62.7063 571.655 65.0789 568.504 65.0789 568.504L109.977 563.438L120.758 549.926L130.992 547.561L134.372 551.391L133.696 555.221L133.703 555.214Z" fill="#0A1F8F"/>
<path d="M109.161 577.584L112.213 577.738C112.213 577.738 113.828 588.061 109.984 588.303C106.14 588.546 105.826 583.48 105.826 583.48L109.161 577.584Z" fill="#0A1F8F"/>
<path d="M121.772 586.512C121.772 586.512 125.715 591.926 127.739 599.02C129.763 606.114 132.802 608.957 132.802 608.957C132.802 608.957 130.552 609.21 128.64 608.957L130.101 678.359L118.064 671.566L112.1 661.97L109.984 607.92L121.772 586.515" fill="#0A1F8F"/>
<path d="M131.863 568.559C131.863 568.559 132.129 571.43 137.642 571.092C143.156 570.754 153.195 572.925 153.195 572.925L150.13 568.388L138.656 566.135L138.431 556.515L135.505 554.197L132.593 556.73C132.593 556.73 135.618 557.915 135.058 560.052C134.495 562.192 135.98 564.244 135.98 564.244L135.847 568.156L131.866 568.552" fill="#0A1F8F"/>
<path d="M135.471 612C135.471 612 139.329 614.748 140.377 623.306C141.882 635.569 150.553 674.906 150.553 674.906L144.552 677.121L139.476 675.558L135.471 612.003V612Z" fill="#0A1F8F"/>
<path d="M127.916 561.201C129.613 560.219 130.485 558.552 129.864 557.479C129.243 556.405 127.363 556.33 125.666 557.312C123.969 558.294 123.096 559.96 123.718 561.034C124.339 562.108 126.218 562.183 127.916 561.201Z" fill="#231F20"/>
</g>
<path d="M1800.26 204.805C1799.88 203.846 1796.94 204.998 1796.94 204.998C1796.94 204.998 1799.68 201.547 1798.92 201.135C1798.15 200.719 1793.37 205.574 1793.37 205.574C1793.37 205.574 1793.75 204.422 1793.37 202.699C1792.98 200.975 1791.07 206.915 1791.07 206.915L1788.61 209.37C1788.12 209.097 1787.55 208.895 1786.85 208.832L1782.68 212.048C1781.02 207.865 1775.96 200.218 1773.45 201.135C1770.39 202.253 1771.92 206.532 1771.92 206.532C1771.92 206.532 1769.04 210.774 1768.06 213.511L1760.82 206.915C1760.82 206.915 1759.72 206.856 1758.62 207.701L1756.13 205.238L1755.46 202.316C1755.46 202.316 1755.55 199.731 1754.98 199.104C1754.63 198.722 1754.4 199.949 1754.28 200.962C1754.23 201.404 1753.68 201.576 1753.38 201.24C1752.22 199.903 1750.11 197.637 1749.42 198.049C1748.47 198.625 1750.67 201.929 1750.67 201.929C1750.67 201.929 1748.42 199.731 1747.84 199.63C1747.41 199.554 1747.98 201.047 1748.82 202.619C1747.69 202.119 1746.78 201.95 1747.05 202.552C1747.14 202.779 1749.08 204.149 1750.44 205.099C1752.17 207.066 1753.92 206.961 1753.92 206.961L1757.16 209.694C1756.92 210.249 1756.73 210.904 1756.6 211.707L1769.05 223.289C1769.78 223.97 1770.2 224.924 1770.2 225.924V235.665C1770.2 235.665 1760.24 242.945 1761.39 246.014C1762.54 249.079 1768.25 254.014 1768.25 254.014L1770.54 251.777L1772.89 253.947C1772.89 253.947 1771.82 259.668 1772.78 260.051C1773.55 260.357 1777.17 257.499 1778.81 255.162L1781.54 263.931C1781.54 263.931 1781.26 267.382 1780.68 269.105C1780.1 270.829 1780.25 272.124 1780.68 272.41C1781.11 272.695 1784.99 268.097 1786.42 265.94C1787.86 263.783 1784.98 260.908 1784.98 260.908L1784.35 256.309L1786.44 255.653L1781.25 237.333L1787.17 236.955C1788.05 236.9 1788.62 235.997 1788.3 235.173L1783.63 223.314C1783.08 222.179 1783.37 220.804 1784.34 219.993L1786.19 218.446L1791.06 213.809C1791.06 213.809 1791.02 212.876 1790.61 211.817L1793.17 209.782C1793.17 209.782 1795.85 209.782 1796.93 209.399C1798.02 209.017 1800.63 205.759 1800.25 204.801L1800.26 204.805Z" fill="#231F20"/>
<mask id="mask1_1440_2379" style="mask-type:luminance" maskUnits="userSpaceOnUse" x="1747" y="198" width="54" height="75">
<path d="M1800.26 204.805C1799.88 203.846 1796.94 204.998 1796.94 204.998C1796.94 204.998 1799.68 201.547 1798.92 201.135C1798.15 200.719 1793.37 205.574 1793.37 205.574C1793.37 205.574 1793.75 204.422 1793.37 202.699C1792.98 200.975 1791.07 206.915 1791.07 206.915L1788.61 209.37C1788.12 209.097 1787.55 208.895 1786.85 208.832L1782.68 212.048C1781.02 207.865 1775.96 200.218 1773.45 201.135C1770.39 202.253 1771.92 206.532 1771.92 206.532C1771.92 206.532 1769.04 210.774 1768.06 213.511L1760.82 206.915C1760.82 206.915 1759.72 206.856 1758.62 207.701L1756.13 205.238L1755.46 202.316C1755.46 202.316 1755.55 199.731 1754.98 199.104C1754.63 198.722 1754.4 199.949 1754.28 200.962C1754.23 201.404 1753.68 201.576 1753.38 201.24C1752.22 199.903 1750.11 197.637 1749.42 198.049C1748.47 198.625 1750.67 201.929 1750.67 201.929C1750.67 201.929 1748.42 199.731 1747.84 199.63C1747.41 199.554 1747.98 201.047 1748.82 202.619C1747.69 202.119 1746.78 201.95 1747.05 202.552C1747.14 202.779 1749.08 204.149 1750.44 205.099C1752.17 207.066 1753.92 206.961 1753.92 206.961L1757.16 209.694C1756.92 210.249 1756.73 210.904 1756.6 211.707L1769.05 223.289C1769.78 223.97 1770.2 224.924 1770.2 225.924V235.665C1770.2 235.665 1760.24 242.945 1761.39 246.014C1762.54 249.079 1768.25 254.014 1768.25 254.014L1770.54 251.777L1772.89 253.947C1772.89 253.947 1771.82 259.668 1772.78 260.051C1773.55 260.357 1777.17 257.499 1778.81 255.162L1781.54 263.931C1781.54 263.931 1781.26 267.382 1780.68 269.105C1780.1 270.829 1780.25 272.124 1780.68 272.41C1781.11 272.695 1784.99 268.097 1786.42 265.94C1787.86 263.783 1784.98 260.908 1784.98 260.908L1784.35 256.309L1786.44 255.653L1781.25 237.333L1787.17 236.955C1788.05 236.9 1788.62 235.997 1788.3 235.173L1783.63 223.314C1783.08 222.179 1783.37 220.804 1784.34 219.993L1786.19 218.446L1791.06 213.809C1791.06 213.809 1791.02 212.876 1790.61 211.817L1793.17 209.782C1793.17 209.782 1795.85 209.782 1796.93 209.399C1798.02 209.017 1800.63 205.759 1800.25 204.801L1800.26 204.805Z" fill="white"/>
</mask>
<g mask="url(#mask1_1440_2379)">
<path d="M1765.69 206.801L1768.07 213.506L1771.23 216.23C1771.23 216.23 1773.03 208.743 1773.65 208.096C1774.28 207.448 1774.89 201.239 1778.24 204.485C1781.58 207.726 1780.93 200.424 1780.93 200.424L1771.51 198.574L1766.34 203.551L1765.69 204.846" fill="#0A1F8F"/>
<path d="M1766.24 245.537C1766.24 245.537 1769.38 242.67 1770.58 240.266C1771.78 237.861 1770.12 237.584 1770.12 237.584L1778.8 237.029C1778.8 237.029 1773.44 223.161 1773.33 222.606C1773.22 222.051 1758.11 208.738 1758.11 208.738C1758.11 208.738 1754.97 205.871 1753.04 204.298C1752.32 203.718 1751.64 202.524 1751.06 201.255L1749.45 195.887L1739.37 204.853L1754.9 231.484L1756.64 242.569L1755.07 249.409L1758.86 255.694L1766.34 262.626L1771.98 262.18C1771.98 262.18 1776.25 255.673 1776.06 255.118C1775.88 254.563 1766.25 245.525 1766.25 245.525L1766.24 245.537Z" fill="#0A1F8F"/>
<path d="M1779.46 257.216C1779.46 257.216 1781.39 255.887 1781.76 257.089C1782.13 258.292 1784.06 264.114 1784.06 264.114L1780.97 273.081L1777.97 268.641L1778.81 258.842L1779.45 257.211L1779.46 257.216Z" fill="#0A1F8F"/>
<path d="M1799.68 199.864C1799.68 199.864 1794.78 206.708 1794.04 206.986C1793.3 207.263 1789.61 210.315 1789.61 210.315C1789.61 210.315 1789.05 209.39 1787.02 210.777C1784.99 212.165 1783.33 213.367 1782.31 213.089C1781.3 212.812 1785.92 207.545 1785.92 207.545L1791.73 201.168L1796.44 198.578L1800.3 199.041" fill="#0A1F8F"/>
</g>
<defs>
<filter id="filter0_d_1440_2379" x="65" y="0" width="317.079" height="129.029" filterUnits="userSpaceOnUse" color-interpolation-filters="sRGB">
<feFlood flood-opacity="0" result="BackgroundImageFix"/>
<feColorMatrix in="SourceAlpha" type="matrix" values="0 0 0 0 0 0 0 0 0 0 0 0 0 0 0 0 0 0 127 0" result="hardAlpha"/>
<feOffset dx="-4" dy="6"/>
<feGaussianBlur stdDeviation="6"/>
<feComposite in2="hardAlpha" operator="out"/>
<feColorMatrix type="matrix" values="0 0 0 0 0 0 0 0 0 0 0 0 0 0 0 0 0 0 0.15 0"/>
<feBlend mode="normal" in2="BackgroundImageFix" result="effect1_dropShadow_1440_2379"/>
<feBlend mode="normal" in="SourceGraphic" in2="effect1_dropShadow_1440_2379" result="shape"/>
</filter>
<filter id="filter1_d_1440_2379" x="146" y="934" width="317.079" height="129.029" filterUnits="userSpaceOnUse" color-interpolation-filters="sRGB">
<feFlood flood-opacity="0" result="BackgroundImageFix"/>
<feColorMatrix in="SourceAlpha" type="matrix" values="0 0 0 0 0 0 0 0 0 0 0 0 0 0 0 0 0 0 127 0" result="hardAlpha"/>
<feOffset dx="-4" dy="6"/>
<feGaussianBlur stdDeviation="6"/>
<feComposite in2="hardAlpha" operator="out"/>
<feColorMatrix type="matrix" values="0 0 0 0 0 0 0 0 0 0 0 0 0 0 0 0 0 0 0.15 0"/>
<feBlend mode="normal" in2="BackgroundImageFix" result="effect1_dropShadow_1440_2379"/>
<feBlend mode="normal" in="SourceGraphic" in2="effect1_dropShadow_1440_2379" result="shape"/>
</filter>
<filter id="filter2_d_1440_2379" x="1251.39" y="737.492" width="555.653" height="211.078" filterUnits="userSpaceOnUse" color-interpolation-filters="sRGB">
<feFlood flood-opacity="0" result="BackgroundImageFix"/>
<feColorMatrix in="SourceAlpha" type="matrix" values="0 0 0 0 0 0 0 0 0 0 0 0 0 0 0 0 0 0 127 0" result="hardAlpha"/>
<feOffset dx="-4" dy="6"/>
<feGaussianBlur stdDeviation="6"/>
<feComposite in2="hardAlpha" operator="out"/>
<feColorMatrix type="matrix" values="0 0 0 0 0 0 0 0 0 0 0 0 0 0 0 0 0 0 0.15 0"/>
<feBlend mode="normal" in2="BackgroundImageFix" result="effect1_dropShadow_1440_2379"/>
<feBlend mode="normal" in="SourceGraphic" in2="effect1_dropShadow_1440_2379" result="shape"/>
</filter>
</defs>
</svg>
