<svg width="24" height="24" viewBox="0 0 24 24" fill="none" xmlns="http://www.w3.org/2000/svg">
<path d="M1 12C1 6.81495 1 4.22126 2.61063 2.61063C4.22126 1 6.81379 1 12 1C17.1851 1 19.7787 1 21.3894 2.61063C23 4.22126 23 6.81379 23 12C23 17.1851 23 19.7787 21.3894 21.3894C19.7787 23 17.1862 23 12 23C6.81495 23 4.22126 23 2.61063 21.3894C1 19.7787 1 17.1862 1 12Z" stroke="#10069F" stroke-width="2" stroke-linecap="round" stroke-linejoin="round"/>
<path d="M18.5 5L18.3662 5.0338M17.2106 12.0005C17.2106 13.3824 16.6616 14.7077 15.6845 15.6849C14.7073 16.662 13.382 17.211 12.0001 17.211C10.6182 17.211 9.29284 16.662 8.31568 15.6849C7.33852 14.7077 6.78955 13.3824 6.78955 12.0005C6.78955 10.6186 7.33852 9.29323 8.31568 8.31607C9.29284 7.33891 10.6182 6.78994 12.0001 6.78994C13.382 6.78994 14.7073 7.33891 15.6845 8.31607C16.6616 9.29323 17.2106 10.6186 17.2106 12.0005Z" stroke="#10069F" stroke-width="2" stroke-linecap="round" stroke-linejoin="round"/>
</svg>
