<svg width="72" height="72" viewBox="0 0 72 72" fill="none" xmlns="http://www.w3.org/2000/svg">
<g filter="url(#filter0_d_2963_489)">
<circle cx="40" cy="30" r="24" fill="#10069F"/>
</g>
<path d="M47.6371 36.5456C47.6371 34.6016 47.6359 33.1985 47.4922 32.1293C47.3506 31.0757 47.0796 30.4282 46.5989 29.9474C46.1182 29.4667 45.4707 29.1958 44.4171 29.0542C43.3477 28.9104 41.9444 28.9093 40.0007 28.9093C38.0567 28.9093 36.6535 28.9105 35.5843 29.0542C34.5308 29.1958 33.8833 29.4667 33.4025 29.9474C32.9218 30.4281 32.6509 31.0756 32.5092 32.1293C32.3655 33.1986 32.3643 34.6019 32.3643 36.5456C32.3643 38.4897 32.3655 39.8928 32.5092 40.962C32.6509 42.0156 32.9218 42.6631 33.4025 43.1438C33.8832 43.6245 34.5307 43.8955 35.5843 44.0371C36.6537 44.1808 38.057 44.182 40.0007 44.182C41.9448 44.182 43.3479 44.1808 44.4171 44.0371C45.4706 43.8955 46.1182 43.6246 46.5989 43.1438C47.0796 42.6631 47.3506 42.0156 47.4922 40.962C47.6359 39.8927 47.6371 38.4894 47.6371 36.5456ZM48.728 36.5456C48.728 38.4585 48.7293 39.9485 48.5735 41.1074C48.4156 42.2819 48.0874 43.1979 47.3702 43.9151C46.653 44.6324 45.737 44.9606 44.5625 45.1184C43.4037 45.2742 41.914 45.2729 40.0007 45.2729C38.0878 45.2729 36.5978 45.2742 35.4389 45.1184C34.2645 44.9606 33.3484 44.6324 32.6312 43.9151C31.914 43.1979 31.5858 42.2819 31.4279 41.1074C31.2722 39.9486 31.2734 38.4589 31.2734 36.5456C31.2734 34.6327 31.2721 33.1428 31.4279 31.9838C31.5858 30.8094 31.914 29.8934 32.6312 29.1761C33.3485 28.4589 34.2644 28.1307 35.4389 27.9728C36.5977 27.8171 38.0874 27.8184 40.0007 27.8184C41.9136 27.8184 43.4036 27.8171 44.5625 27.9728C45.737 28.1307 46.653 28.4589 47.3702 29.1761C48.0875 29.8934 48.4156 30.8094 48.5735 31.9838C48.7293 33.1426 48.728 34.6324 48.728 36.5456Z" fill="#FFCD00"/>
<path d="M43.3295 36.5456C43.3295 35.6625 42.9782 34.8157 42.3537 34.1912C41.7292 33.5668 40.8824 33.2159 39.9993 33.2159C39.1161 33.2159 38.2689 33.5667 37.6444 34.1912C37.0199 34.8157 36.6691 35.6625 36.669 36.5456C36.669 37.4288 37.0199 38.276 37.6444 38.9006C38.2689 39.5251 39.1161 39.8759 39.9993 39.8759C40.8824 39.8759 41.7292 39.525 42.3537 38.9006C42.9782 38.276 43.3295 37.4288 43.3295 36.5456ZM44.4205 36.5456C44.4205 37.7181 43.9545 38.8428 43.1255 39.6719C42.2965 40.501 41.1718 40.9668 39.9993 40.9668C38.8268 40.9668 37.7022 40.501 36.873 39.6719C36.044 38.8428 35.5781 37.7181 35.5781 36.5456C35.5782 35.3732 36.0441 34.249 36.873 33.4199C37.7022 32.5908 38.8268 32.125 39.9993 32.125C41.1718 32.125 42.2965 32.5908 43.1255 33.4199C43.9545 34.249 44.4204 35.3733 44.4205 36.5456Z" fill="#FFCD00"/>
<circle cx="44.5" cy="31.5" r="0.5" fill="#FFCD00"/>
<path d="M40.0014 18.5462C40.0014 17.9675 39.7714 17.4127 39.3622 17.0036C38.953 16.5944 38.3983 16.3643 37.8196 16.3643C37.2409 16.3643 36.6862 16.5944 36.277 17.0036C35.8678 17.4127 35.6378 17.9675 35.6378 18.5462C35.6378 19.1733 35.7213 20.0255 36.5471 20.8649L40.5613 23.875C40.6258 23.8307 40.6992 23.7812 40.7791 23.7259C41.1089 23.4978 41.5587 23.1831 42.0389 22.8384C43.0152 22.1375 44.0666 21.346 44.5249 20.8878C45.3714 20.0412 45.456 19.1789 45.456 18.5462C45.456 17.9675 45.2259 17.4127 44.8168 17.0036C44.4076 16.5944 43.8528 16.3643 43.2741 16.3643C42.6955 16.3643 42.1407 16.5944 41.7315 17.0036C41.3224 17.4127 41.0923 17.9675 41.0923 18.5462C41.0923 18.8474 40.8481 19.0916 40.5469 19.0916C40.2456 19.0916 40.0014 18.8474 40.0014 18.5462ZM46.5469 18.5462C46.5469 19.3186 46.4332 20.5221 45.2962 21.6591C44.7627 22.1926 43.6324 23.0374 42.6749 23.7248C42.1882 24.0742 41.7331 24.3923 41.3997 24.6229C41.2329 24.7382 41.0961 24.8318 41.0012 24.8967C40.9539 24.929 40.9168 24.9541 40.8915 24.9712C40.8789 24.9798 40.8693 24.9865 40.8627 24.9909C40.8595 24.9932 40.857 24.9951 40.8553 24.9963C40.8544 24.9968 40.8536 24.997 40.8532 24.9973L40.8526 24.9979C40.66 25.1282 40.4059 25.1219 40.2198 24.9824L35.8562 21.7097C35.8355 21.6942 35.8158 21.6773 35.7976 21.6591C34.6606 20.5221 34.5469 19.3186 34.5469 18.5462C34.5469 17.6782 34.8919 16.846 35.5057 16.2322C36.1194 15.6185 36.9516 15.2734 37.8196 15.2734C38.6876 15.2734 39.5198 15.6185 40.1335 16.2322C40.2888 16.3875 40.4273 16.5564 40.5469 16.7367C40.6665 16.5564 40.805 16.3875 40.9602 16.2322C41.574 15.6185 42.4062 15.2734 43.2741 15.2734C44.1421 15.2734 44.9743 15.6185 45.5881 16.2322C46.2018 16.846 46.5469 17.6782 46.5469 18.5462Z" fill="#FFCD00"/>
<defs>
<filter id="filter0_d_2963_489" x="0" y="0" width="72" height="72" filterUnits="userSpaceOnUse" color-interpolation-filters="sRGB">
<feFlood flood-opacity="0" result="BackgroundImageFix"/>
<feColorMatrix in="SourceAlpha" type="matrix" values="0 0 0 0 0 0 0 0 0 0 0 0 0 0 0 0 0 0 127 0" result="hardAlpha"/>
<feOffset dx="-4" dy="6"/>
<feGaussianBlur stdDeviation="6"/>
<feComposite in2="hardAlpha" operator="out"/>
<feColorMatrix type="matrix" values="0 0 0 0 0 0 0 0 0 0 0 0 0 0 0 0 0 0 0.15 0"/>
<feBlend mode="normal" in2="BackgroundImageFix" result="effect1_dropShadow_2963_489"/>
<feBlend mode="normal" in="SourceGraphic" in2="effect1_dropShadow_2963_489" result="shape"/>
</filter>
</defs>
</svg>
