<svg width="333" height="112" viewBox="0 0 333 112" fill="none" xmlns="http://www.w3.org/2000/svg">
<mask id="path-1-outside-1_1090_961" maskUnits="userSpaceOnUse" x="0" y="-0.00976562" width="333" height="112" fill="black">
<rect fill="white" y="-0.00976562" width="333" height="112"/>
<path d="M7.87013 25.5742C28.1261 29.2222 47.9021 38.7262 47.9021 59.0782C47.9021 74.2462 35.5181 80.5822 21.1181 80.5822C7.77413 80.5822 1.91813 74.7262 1.91813 65.3182C1.91813 57.9262 4.99013 49.5742 9.98213 41.6062L4.89413 40.4542L7.87013 25.5742ZM22.4621 63.4942C29.2781 63.4942 34.0781 61.4782 34.0781 59.4622C34.0781 54.5662 30.7181 49.4782 21.0221 45.2542C17.5661 50.1502 15.1661 55.7182 15.5501 59.2702C15.9341 62.4382 17.5661 63.4942 22.4621 63.4942ZM63.8801 34.0222L54.9521 25.0942V24.7102L63.8801 15.8782H64.2641L73.1921 24.7102V25.0942L64.2641 34.0222H63.8801ZM39.2081 89.0302C39.9761 88.9342 40.7441 88.9342 41.4161 88.8382C58.1201 86.4382 64.6481 81.3502 64.6481 70.4062C64.6481 64.3582 62.3441 56.2942 58.7921 45.3502L73.6721 38.8222L76.4561 48.9022C79.0481 58.4062 80.8721 60.2302 88.8401 60.2302C93.4481 60.2302 97.2881 64.2622 97.2881 69.0622C97.2881 73.8622 93.4481 77.9902 88.8401 77.9902C85.0961 77.9902 81.6401 77.4142 78.6641 76.1662C77.6081 82.6942 75.4001 88.2622 71.6561 92.6782C65.8961 99.4942 56.6801 103.43 43.4321 103.43C42.1841 103.43 40.9361 103.43 39.6881 103.334L39.2081 89.0302ZM174.556 18.0862H174.172L165.916 9.83023V9.54223L174.172 1.28623H174.556L182.812 9.54223V9.83023L174.556 18.0862ZM168.892 35.2702H168.508L159.58 26.3422V25.9582L168.508 17.1262H168.892L174.268 22.4062L181.564 15.3022H181.948L190.876 24.0382V24.4222L181.948 33.3502H181.564L176.188 27.9742L168.892 35.2702ZM206.716 33.3502C207.964 41.7022 208.924 50.7262 208.924 55.2382C208.924 71.3662 202.396 77.9902 190.684 77.9902C185.116 77.9902 179.932 75.7822 175.516 72.0382C171.004 75.9742 164.476 77.9902 156.508 77.9902C140.764 77.9902 134.812 66.7582 132.988 58.3102C132.7 56.9662 132.508 55.7182 132.412 54.5662C132.124 51.3022 131.644 50.8222 129.532 51.1102C124.444 51.7822 118.684 56.5822 114.46 62.0542L116.092 62.6302C126.748 66.8542 135.004 75.5902 135.004 86.8222C135.004 101.51 127.132 110.822 114.46 110.822C99.8681 110.822 92.2841 97.5742 92.2841 80.6782C92.2841 79.8142 92.3801 78.8542 92.4761 77.9902H88.8281C84.2201 77.9902 80.3801 73.8622 80.3801 69.0622C80.3801 64.2622 84.2201 60.2302 88.8281 60.2302H97.5641C105.052 45.2542 120.412 34.2142 135.868 34.0222C142.3 33.9262 145.852 38.0542 146.428 44.2942C146.62 46.4062 146.812 48.3262 147.196 49.9582C148.828 56.7742 151.9 59.9422 157.18 60.2302C162.076 60.5182 165.436 59.0782 167.26 57.1582C169.564 54.6622 169.948 49.9582 170.524 42.7582L182.332 43.2382C182.236 49.7662 182.236 54.5662 181.852 58.3102C185.02 59.8462 188.476 60.2302 190.78 60.2302C193.372 60.2302 195.004 59.4622 195.004 56.9662C195.004 54.1822 193.852 47.5582 192.028 38.2462L206.716 33.3502ZM121.372 86.8222C121.372 81.6382 116.572 79.0462 109.564 78.0862C108.892 77.9902 108.22 77.9902 107.356 77.9902C107.26 78.5662 107.26 79.1422 107.164 79.8142C106.012 87.7822 109.084 93.7342 115.42 93.7342C118.972 93.7342 121.372 91.8142 121.372 86.8222ZM262.996 60.2302C267.796 60.2302 271.54 64.2622 271.54 69.0622C271.54 73.8622 267.7 77.9902 262.996 77.9902H260.308C256.948 95.4622 244.372 102.278 220.756 103.526C218.932 103.622 217.204 103.526 215.284 103.526L214.708 88.5502C216.052 88.4542 217.396 88.4542 218.74 88.3582C232.948 87.3022 241.108 84.5182 244.66 77.9902H233.716C220.276 77.9902 214.708 70.9822 214.708 58.6942C214.708 41.4142 223.06 30.2782 236.212 30.2782C250.612 30.2782 259.156 41.6062 260.884 60.2302H262.996ZM228.628 55.3342C228.628 60.1342 231.892 60.2302 235.252 60.2302H246.292C245.14 52.7422 242.164 46.5982 236.02 46.5982C231.316 46.5982 228.628 50.9182 228.628 55.3342ZM285.573 20.9662L276.645 12.0382V11.6542L285.573 2.82223H285.957L294.885 11.6542V12.0382L285.957 20.9662H285.573ZM254.661 69.0622C254.661 64.2622 258.501 60.2302 263.109 60.2302H266.181C278.469 60.2302 287.013 58.4062 296.133 54.0862C299.205 52.6462 302.469 50.9182 306.405 48.8062C301.605 46.5022 298.917 45.3502 296.805 44.4862C291.525 42.2782 289.125 41.6062 286.725 41.6062C283.365 41.6062 280.197 44.1022 276.165 50.3422L266.373 43.9102C273.093 27.4942 281.061 24.6142 286.245 24.6142C290.853 24.6142 295.845 26.0542 303.141 29.0302C306.405 30.3742 310.053 32.0062 314.373 34.0222C323.397 38.2462 327.045 39.5902 330.981 41.0302L328.005 57.2542C324.933 57.1582 323.109 56.9662 321.669 56.9662C319.749 56.9662 318.597 57.3502 316.197 58.8862C311.781 61.7662 307.653 64.1662 303.909 66.2782C288.837 74.7262 278.085 77.9902 265.413 77.9902H263.205C258.501 77.9902 254.661 73.8622 254.661 69.0622Z"/>
</mask>
<path d="M7.87013 25.5742L8.04737 24.5901L7.08193 24.4162L6.88954 25.3781L7.87013 25.5742ZM9.98213 41.6062L10.8295 42.1371L11.5781 40.9423L10.203 40.6309L9.98213 41.6062ZM4.89412 40.4542L3.91354 40.2581L3.72232 41.2142L4.6733 41.4295L4.89412 40.4542ZM21.0221 45.2542L21.4215 44.3375L20.6748 44.0122L20.2052 44.6775L21.0221 45.2542ZM15.5501 59.2702L14.5558 59.3777L14.5574 59.3906L15.5501 59.2702ZM7.87013 25.5742L7.69288 26.5584C17.7485 28.3694 27.5925 31.6205 34.8983 36.8741C42.169 42.1025 46.9021 49.2873 46.9021 59.0782H47.9021H48.9021C48.9021 48.5171 43.7472 40.774 36.066 35.2504C28.4198 29.752 18.2477 26.4271 8.04737 24.5901L7.87013 25.5742ZM47.9021 59.0782H46.9021C46.9021 66.3478 43.9553 71.4161 39.3308 74.7032C34.6602 78.0229 28.1921 79.5822 21.1181 79.5822V80.5822V81.5822C28.4441 81.5822 35.368 79.9735 40.4895 76.3333C45.6569 72.6604 48.9021 66.9766 48.9021 59.0782H47.9021ZM21.1181 80.5822V79.5822C14.5719 79.5822 10.041 78.1432 7.15862 75.7136C4.30592 73.3091 2.91813 69.806 2.91813 65.3182H1.91813H0.918125C0.918125 70.2384 2.45833 74.3674 5.86963 77.2428C9.25126 80.0933 14.3203 81.5822 21.1181 81.5822V80.5822ZM1.91813 65.3182H2.91813C2.91813 58.1824 5.89338 50.016 10.8295 42.1371L9.98213 41.6062L9.1347 41.0753C4.08687 49.1324 0.918125 57.6701 0.918125 65.3182H1.91813ZM9.98213 41.6062L10.203 40.6309L5.11495 39.4789L4.89412 40.4542L4.6733 41.4295L9.7613 42.5815L9.98213 41.6062ZM4.89412 40.4542L5.87471 40.6503L8.85071 25.7704L7.87013 25.5742L6.88954 25.3781L3.91354 40.2581L4.89412 40.4542ZM22.4621 63.4942V64.4942C25.9577 64.4942 28.9838 63.9787 31.1718 63.1726C32.2615 62.7711 33.1918 62.2799 33.8689 61.705C34.533 61.1411 35.0781 60.3839 35.0781 59.4622H34.0781H33.0781C33.0781 59.5485 33.0232 59.7994 32.5744 60.1804C32.1385 60.5506 31.4427 60.9414 30.4804 61.2959C28.5645 62.0018 25.7826 62.4942 22.4621 62.4942V63.4942ZM34.0781 59.4622H35.0781C35.0781 53.9887 31.2828 48.6334 21.4215 44.3375L21.0221 45.2542L20.6227 46.171C30.1535 50.323 33.0781 55.1438 33.0781 59.4622H34.0781ZM21.0221 45.2542L20.2052 44.6775C18.4402 47.1779 16.9359 49.8617 15.9183 52.3933C14.9106 54.9002 14.3379 57.3615 14.5559 59.3777L15.5501 59.2702L16.5443 59.1628C16.3783 57.627 16.8136 55.5283 17.774 53.1392C18.7244 50.7747 20.148 48.2266 21.8391 45.8309L21.0221 45.2542ZM15.5501 59.2702L14.5574 59.3906C14.7687 61.1339 15.3604 62.5384 16.7884 63.4209C18.1139 64.24 19.9974 64.4942 22.4621 64.4942V63.4942V62.4942C20.0309 62.4942 18.6504 62.2205 17.8398 61.7196C17.1318 61.282 16.7155 60.5746 16.5429 59.1499L15.5501 59.2702ZM63.8801 34.0222L63.173 34.7293L63.4659 35.0222H63.8801V34.0222ZM54.9521 25.0942H53.9521V25.5084L54.245 25.8013L54.9521 25.0942ZM54.9521 24.7102L54.2489 23.9993L53.9521 24.2929V24.7102H54.9521ZM63.8801 15.8782V14.8782H63.4691L63.1768 15.1673L63.8801 15.8782ZM64.2641 15.8782L64.9674 15.1673L64.6752 14.8782H64.2641V15.8782ZM73.1921 24.7102H74.1921V24.2929L73.8954 23.9993L73.1921 24.7102ZM73.1921 25.0942L73.8992 25.8013L74.1921 25.5084V25.0942H73.1921ZM64.2641 34.0222V35.0222H64.6783L64.9712 34.7293L64.2641 34.0222ZM39.2081 89.0302L39.0841 88.038L38.1781 88.1512L38.2087 89.0638L39.2081 89.0302ZM41.4161 88.8382L41.5575 89.8282L41.5583 89.8281L41.4161 88.8382ZM58.7921 45.3502L58.3904 44.4345L57.5616 44.7981L57.841 45.6589L58.7921 45.3502ZM73.6721 38.8222L74.636 38.556L74.3284 37.4423L73.2704 37.9065L73.6721 38.8222ZM76.4561 48.9022L77.4209 48.6391L77.42 48.636L76.4561 48.9022ZM78.6641 76.1662L79.0508 75.244L77.8798 74.7529L77.677 76.0065L78.6641 76.1662ZM71.6561 92.6782L70.8934 92.0315L70.8923 92.0328L71.6561 92.6782ZM39.6881 103.334L38.6887 103.368L38.7187 104.263L39.6114 104.331L39.6881 103.334ZM63.8801 34.0222L64.5872 33.3151L55.6592 24.3871L54.9521 25.0942L54.245 25.8013L63.173 34.7293L63.8801 34.0222ZM54.9521 25.0942H55.9521V24.7102H54.9521H53.9521V25.0942H54.9521ZM54.9521 24.7102L55.6554 25.4212L64.5834 16.5892L63.8801 15.8782L63.1768 15.1673L54.2489 23.9993L54.9521 24.7102ZM63.8801 15.8782V16.8782H64.2641V15.8782V14.8782H63.8801V15.8782ZM64.2641 15.8782L63.5609 16.5892L72.4889 25.4212L73.1921 24.7102L73.8954 23.9993L64.9674 15.1673L64.2641 15.8782ZM73.1921 24.7102H72.1921V25.0942H73.1921H74.1921V24.7102H73.1921ZM73.1921 25.0942L72.485 24.3871L63.557 33.3151L64.2641 34.0222L64.9712 34.7293L73.8992 25.8013L73.1921 25.0942ZM64.2641 34.0222V33.0222H63.8801V34.0222V35.0222H64.2641V34.0222ZM39.2081 89.0302L39.3322 90.0225C39.6809 89.9789 40.0338 89.9566 40.4125 89.9322C40.7781 89.9086 41.1768 89.8826 41.5575 89.8282L41.4161 88.8382L41.2747 87.8483C40.9834 87.8899 40.6621 87.9119 40.2837 87.9363C39.9184 87.9599 39.5033 87.9855 39.0841 88.038L39.2081 89.0302ZM41.4161 88.8382L41.5583 89.8281C49.9515 88.6222 55.9807 86.7211 59.9162 83.6108C63.9302 80.4384 65.6481 76.1078 65.6481 70.4062H64.6481H63.6481C63.6481 75.6486 62.102 79.3341 58.6761 82.0417C55.1715 84.8114 49.5847 86.6543 41.2739 87.8484L41.4161 88.8382ZM64.6481 70.4062H65.6481C65.6481 64.1698 63.283 55.9476 59.7433 45.0415L58.7921 45.3502L57.841 45.6589C61.4053 56.6408 63.6481 64.5466 63.6481 70.4062H64.6481ZM58.7921 45.3502L59.1939 46.266L74.0739 39.738L73.6721 38.8222L73.2704 37.9065L58.3904 44.4345L58.7921 45.3502ZM73.6721 38.8222L72.7082 39.0885L75.4922 49.1685L76.4561 48.9022L77.42 48.636L74.636 38.556L73.6721 38.8222ZM76.4561 48.9022L75.4914 49.1654C76.7772 53.8803 77.9362 56.9974 79.9528 58.8641C82.0327 60.7894 84.836 61.2302 88.8401 61.2302V60.2302V59.2302C84.8763 59.2302 82.7835 58.7591 81.3114 57.3964C79.776 55.9751 78.727 53.4282 77.4209 48.6391L76.4561 48.9022ZM88.8401 60.2302V61.2302C92.8532 61.2302 96.2881 64.7709 96.2881 69.0622H97.2881H98.2881C98.2881 63.7536 94.0431 59.2302 88.8401 59.2302V60.2302ZM97.2881 69.0622H96.2881C96.2881 73.3679 92.8396 76.9902 88.8401 76.9902V77.9902V78.9902C94.0567 78.9902 98.2881 74.3565 98.2881 69.0622H97.2881ZM88.8401 77.9902V76.9902C85.1939 76.9902 81.8758 76.4287 79.0508 75.244L78.6641 76.1662L78.2774 77.0884C81.4045 78.3998 84.9983 78.9902 88.8401 78.9902V77.9902ZM78.6641 76.1662L77.677 76.0065C76.6415 82.4078 74.4892 87.7903 70.8934 92.0315L71.6561 92.6782L72.4189 93.3249C76.3111 88.7341 78.5748 82.9807 79.6513 76.3259L78.6641 76.1662ZM71.6561 92.6782L70.8923 92.0328C65.3762 98.5603 56.4808 102.43 43.4321 102.43V103.43V104.43C56.8794 104.43 66.4161 100.428 72.4199 93.3237L71.6561 92.6782ZM43.4321 103.43V102.43C42.1778 102.43 40.9682 102.43 39.7648 102.337L39.6881 103.334L39.6114 104.331C40.9041 104.431 42.1905 104.43 43.4321 104.43V103.43ZM39.6881 103.334L40.6876 103.301L40.2076 88.9967L39.2081 89.0302L38.2087 89.0638L38.6887 103.368L39.6881 103.334ZM174.556 18.0862V19.0862H174.97L175.263 18.7933L174.556 18.0862ZM174.172 18.0862L173.465 18.7933L173.758 19.0862H174.172V18.0862ZM165.916 9.83023H164.916V10.2444L165.209 10.5373L165.916 9.83023ZM165.916 9.54223L165.209 8.83512L164.916 9.12802V9.54223H165.916ZM174.172 1.28623V0.286232H173.758L173.465 0.579124L174.172 1.28623ZM174.556 1.28623L175.263 0.579124L174.97 0.286232H174.556V1.28623ZM182.812 9.54223H183.812V9.12802L183.519 8.83512L182.812 9.54223ZM182.812 9.83023L183.519 10.5373L183.812 10.2444V9.83023H182.812ZM168.892 35.2702V36.2702H169.306L169.599 35.9773L168.892 35.2702ZM168.508 35.2702L167.801 35.9773L168.094 36.2702H168.508V35.2702ZM159.58 26.3422H158.58V26.7564L158.873 27.0493L159.58 26.3422ZM159.58 25.9582L158.877 25.2473L158.58 25.5408V25.9582H159.58ZM168.508 17.1262V16.1262H168.097L167.805 16.4153L168.508 17.1262ZM168.892 17.1262L169.593 16.4128L169.301 16.1262H168.892V17.1262ZM174.268 22.4062L173.567 23.1197L174.265 23.8049L174.966 23.1227L174.268 22.4062ZM181.564 15.3022V14.3022H181.158L180.867 14.5858L181.564 15.3022ZM181.948 15.3022L182.648 14.5875L182.356 14.3022H181.948V15.3022ZM190.876 24.0382H191.876V23.6176L191.576 23.3235L190.876 24.0382ZM190.876 24.4222L191.583 25.1293L191.876 24.8364V24.4222H190.876ZM181.948 33.3502V34.3502H182.362L182.655 34.0573L181.948 33.3502ZM181.564 33.3502L180.857 34.0573L181.15 34.3502H181.564V33.3502ZM176.188 27.9742L176.895 27.2671L176.188 26.56L175.481 27.2671L176.188 27.9742ZM206.716 33.3502L207.705 33.2024L207.529 32.0251L206.4 32.4015L206.716 33.3502ZM175.516 72.0382L176.163 71.2755L175.507 70.7193L174.859 71.2847L175.516 72.0382ZM132.988 58.3102L132.01 58.5198L132.011 58.5213L132.988 58.3102ZM132.412 54.5662L133.409 54.4832L133.408 54.4783L132.412 54.5662ZM129.532 51.1102L129.663 52.1016L129.667 52.1011L129.532 51.1102ZM114.46 62.0542L113.669 61.4432L112.824 62.5372L114.127 62.9972L114.46 62.0542ZM116.092 62.6302L116.461 61.7006L116.443 61.6936L116.425 61.6872L116.092 62.6302ZM92.4761 77.9902L93.47 78.1007L93.5934 76.9902H92.4761V77.9902ZM97.5641 60.2302V61.2302H98.1822L98.4585 60.6774L97.5641 60.2302ZM135.868 34.0222L135.881 35.0222L135.883 35.0221L135.868 34.0222ZM146.428 44.2942L147.424 44.2037L147.424 44.2023L146.428 44.2942ZM147.196 49.9582L146.223 50.1873L146.224 50.1911L147.196 49.9582ZM157.18 60.2302L157.239 59.2319L157.235 59.2317L157.18 60.2302ZM167.26 57.1582L167.985 57.847L167.99 57.8418L167.995 57.8365L167.26 57.1582ZM170.524 42.7582L170.565 41.7591L169.604 41.72L169.527 42.6785L170.524 42.7582ZM182.332 43.2382L183.332 43.2529L183.346 42.2786L182.373 42.2391L182.332 43.2382ZM181.852 58.3102L180.857 58.2082L180.786 58.9046L181.416 59.21L181.852 58.3102ZM192.028 38.2462L191.712 37.2975L190.878 37.5756L191.047 38.4385L192.028 38.2462ZM109.564 78.0862L109.423 79.0762L109.428 79.077L109.564 78.0862ZM107.356 77.9902V76.9902H106.509L106.37 77.8258L107.356 77.9902ZM107.164 79.8142L108.154 79.9573L108.154 79.9557L107.164 79.8142ZM174.556 18.0862V17.0862H174.172V18.0862V19.0862H174.556V18.0862ZM174.172 18.0862L174.879 17.3791L166.623 9.12312L165.916 9.83023L165.209 10.5373L173.465 18.7933L174.172 18.0862ZM165.916 9.83023H166.916V9.54223H165.916H164.916V9.83023H165.916ZM165.916 9.54223L166.623 10.2493L174.879 1.99334L174.172 1.28623L173.465 0.579124L165.209 8.83512L165.916 9.54223ZM174.172 1.28623V2.28623H174.556V1.28623V0.286232H174.172V1.28623ZM174.556 1.28623L173.849 1.99334L182.105 10.2493L182.812 9.54223L183.519 8.83512L175.263 0.579124L174.556 1.28623ZM182.812 9.54223H181.812V9.83023H182.812H183.812V9.54223H182.812ZM182.812 9.83023L182.105 9.12313L173.849 17.3791L174.556 18.0862L175.263 18.7933L183.519 10.5373L182.812 9.83023ZM168.892 35.2702V34.2702H168.508V35.2702V36.2702H168.892V35.2702ZM168.508 35.2702L169.215 34.5631L160.287 25.6351L159.58 26.3422L158.873 27.0493L167.801 35.9773L168.508 35.2702ZM159.58 26.3422H160.58V25.9582H159.58H158.58V26.3422H159.58ZM159.58 25.9582L160.283 26.6691L169.211 17.8372L168.508 17.1262L167.805 16.4153L158.877 25.2473L159.58 25.9582ZM168.508 17.1262V18.1262H168.892V17.1262V16.1262H168.508V17.1262ZM168.892 17.1262L168.191 17.8397L173.567 23.1197L174.268 22.4062L174.969 21.6928L169.593 16.4128L168.892 17.1262ZM174.268 22.4062L174.966 23.1227L182.262 16.0187L181.564 15.3022L180.867 14.5858L173.571 21.6898L174.268 22.4062ZM181.564 15.3022V16.3022H181.948V15.3022V14.3022H181.564V15.3022ZM181.948 15.3022L181.249 16.017L190.177 24.753L190.876 24.0382L191.576 23.3235L182.648 14.5875L181.948 15.3022ZM190.876 24.0382H189.876V24.4222H190.876H191.876V24.0382H190.876ZM190.876 24.4222L190.169 23.7151L181.241 32.6431L181.948 33.3502L182.655 34.0573L191.583 25.1293L190.876 24.4222ZM181.948 33.3502V32.3502H181.564V33.3502V34.3502H181.948V33.3502ZM181.564 33.3502L182.271 32.6431L176.895 27.2671L176.188 27.9742L175.481 28.6813L180.857 34.0573L181.564 33.3502ZM176.188 27.9742L175.481 27.2671L168.185 34.5631L168.892 35.2702L169.599 35.9773L176.895 28.6813L176.188 27.9742ZM206.716 33.3502L205.727 33.498C206.974 41.845 207.924 50.806 207.924 55.2382H208.924H209.924C209.924 50.6464 208.954 41.5594 207.705 33.2024L206.716 33.3502ZM208.924 55.2382H207.924C207.924 63.1951 206.309 68.6047 203.432 72.0176C200.584 75.3951 196.35 76.9902 190.684 76.9902V77.9902V78.9902C196.73 78.9902 201.616 77.2734 204.961 73.3068C208.275 69.3758 209.924 63.4093 209.924 55.2382H208.924ZM190.684 77.9902V76.9902C185.393 76.9902 180.432 74.8947 176.163 71.2755L175.516 72.0382L174.869 72.801C179.433 76.6698 184.839 78.9902 190.684 78.9902V77.9902ZM175.516 72.0382L174.859 71.2847C170.585 75.0131 164.32 76.9902 156.508 76.9902V77.9902V78.9902C164.632 78.9902 171.424 76.9353 176.173 72.7918L175.516 72.0382ZM156.508 77.9902V76.9902C148.903 76.9902 143.743 74.2897 140.252 70.6282C136.735 66.939 134.853 62.2091 133.966 58.0992L132.988 58.3102L132.011 58.5213C132.947 62.8593 134.954 67.9694 138.804 72.0083C142.681 76.0747 148.369 78.9902 156.508 78.9902V77.9902ZM132.988 58.3102L133.966 58.1007C133.685 56.7909 133.501 55.5856 133.409 54.4832L132.412 54.5662L131.416 54.6493C131.516 55.8508 131.715 57.1416 132.01 58.5198L132.988 58.3102ZM132.412 54.5662L133.408 54.4783C133.335 53.6504 133.246 52.95 133.111 52.3779C132.977 51.8135 132.776 51.2782 132.417 50.857C131.612 49.9148 130.425 49.9792 129.397 50.1194L129.532 51.1102L129.667 52.1011C130.751 51.9533 130.86 52.1136 130.896 52.1555C130.956 52.2263 131.062 52.405 131.165 52.8396C131.266 53.2665 131.345 53.85 131.416 54.6541L132.412 54.5662ZM129.532 51.1102L129.401 50.1188C126.618 50.4865 123.744 51.9633 121.069 53.9844C118.382 56.0152 115.825 58.65 113.669 61.4432L114.46 62.0542L115.252 62.6653C117.32 59.9865 119.754 57.4852 122.275 55.58C124.809 53.6652 127.358 52.406 129.663 52.1016L129.532 51.1102ZM114.46 62.0542L114.127 62.9972L115.759 63.5732L116.092 62.6302L116.425 61.6872L114.793 61.1112L114.46 62.0542ZM116.092 62.6302L115.724 63.5599C126.147 67.6918 134.004 76.1399 134.004 86.8222H135.004H136.004C136.004 75.0406 127.349 66.0167 116.461 61.7006L116.092 62.6302ZM135.004 86.8222H134.004C134.004 93.9958 132.082 99.7437 128.723 103.681C125.38 107.601 120.533 109.822 114.46 109.822V110.822V111.822C121.059 111.822 126.484 109.388 130.245 104.979C133.99 100.589 136.004 94.3367 136.004 86.8222H135.004ZM114.46 110.822V109.822C107.515 109.822 102.271 106.691 98.7248 101.521C95.1531 96.3128 93.2841 88.9943 93.2841 80.6782H92.2841H91.2841C91.2841 89.2582 93.2072 97.0117 97.0754 102.652C100.97 108.33 106.813 111.822 114.46 111.822V110.822ZM92.2841 80.6782H93.2841C93.2841 79.8758 93.3739 78.9657 93.47 78.1007L92.4761 77.9902L91.4822 77.8798C91.3864 78.7428 91.2841 79.7527 91.2841 80.6782H92.2841ZM92.4761 77.9902V76.9902H88.8281V77.9902V78.9902H92.4761V77.9902ZM88.8281 77.9902V76.9902C84.8287 76.9902 81.3801 73.3679 81.3801 69.0622H80.3801H79.3801C79.3801 74.3565 83.6116 78.9902 88.8281 78.9902V77.9902ZM80.3801 69.0622H81.3801C81.3801 64.7709 84.8151 61.2302 88.8281 61.2302V60.2302V59.2302C83.6252 59.2302 79.3801 63.7536 79.3801 69.0622H80.3801ZM88.8281 60.2302V61.2302H97.5641V60.2302V59.2302H88.8281V60.2302ZM97.5641 60.2302L98.4585 60.6774C105.813 45.9681 120.869 35.2086 135.881 35.0222L135.868 34.0222L135.856 33.0223C119.955 33.2198 104.291 44.5403 96.6697 59.783L97.5641 60.2302ZM135.868 34.0222L135.883 35.0221C138.869 34.9776 141.086 35.9068 142.63 37.4822C144.19 39.0737 145.159 41.4249 145.432 44.3862L146.428 44.2942L147.424 44.2023C147.121 40.9236 146.027 38.0908 144.058 36.0823C142.074 34.0576 139.3 32.9709 135.853 33.0223L135.868 34.0222ZM146.428 44.2942L145.432 44.3848C145.623 46.4853 145.82 48.4755 146.223 50.1873L147.196 49.9582L148.17 49.7292C147.804 48.177 147.617 46.3272 147.424 44.2037L146.428 44.2942ZM147.196 49.9582L146.224 50.1911C147.061 53.6868 148.295 56.3783 150.103 58.239C151.938 60.1282 154.278 61.0734 157.126 61.2288L157.18 60.2302L157.235 59.2317C154.802 59.0991 152.966 58.3163 151.537 56.8455C150.081 55.3462 148.964 53.0457 148.169 49.7254L147.196 49.9582ZM157.18 60.2302L157.121 61.2285C162.231 61.529 165.908 60.0331 167.985 57.847L167.26 57.1582L166.535 56.4695C164.964 58.1234 161.922 59.5074 157.239 59.232L157.18 60.2302ZM167.26 57.1582L167.995 57.8365C169.338 56.3815 170.055 54.3577 170.522 51.9098C170.991 49.4565 171.234 46.4188 171.521 42.838L170.524 42.7582L169.527 42.6785C169.238 46.2976 169.001 49.212 168.558 51.5347C168.113 53.8628 167.486 55.439 166.525 56.48L167.26 57.1582ZM170.524 42.7582L170.484 43.7574L182.292 44.2374L182.332 43.2382L182.373 42.2391L170.565 41.7591L170.524 42.7582ZM182.332 43.2382L181.332 43.2235C181.236 49.7861 181.236 54.5209 180.857 58.2082L181.852 58.3102L182.847 58.4123C183.237 54.6115 183.237 49.7464 183.332 43.2529L182.332 43.2382ZM181.852 58.3102L181.416 59.21C184.767 60.8346 188.387 61.2302 190.78 61.2302V60.2302V59.2302C188.565 59.2302 185.274 58.8578 182.288 57.4104L181.852 58.3102ZM190.78 60.2302V61.2302C192.135 61.2302 193.444 61.0377 194.431 60.3579C195.499 59.6229 196.004 58.4564 196.004 56.9662H195.004H194.004C194.004 57.9721 193.694 58.4376 193.297 58.7106C192.82 59.0388 192.018 59.2302 190.78 59.2302V60.2302ZM195.004 56.9662H196.004C196.004 55.4825 195.702 53.0554 195.187 49.8935C194.668 46.7093 193.922 42.7126 193.009 38.054L192.028 38.2462L191.047 38.4385C191.958 43.0918 192.7 47.0632 193.213 50.215C193.73 53.3891 194.004 55.666 194.004 56.9662H195.004ZM192.028 38.2462L192.344 39.1949L207.032 34.2989L206.716 33.3502L206.4 32.4015L191.712 37.2975L192.028 38.2462ZM121.372 86.8222H122.372C122.372 83.8562 120.971 81.6205 118.66 80.0441C116.398 78.5017 113.269 77.5844 109.7 77.0955L109.564 78.0862L109.428 79.077C112.867 79.548 115.642 80.4068 117.533 81.6964C119.373 82.9519 120.372 84.6042 120.372 86.8222H121.372ZM109.564 78.0862L109.706 77.0963C108.95 76.9884 108.204 76.9902 107.356 76.9902V77.9902V78.9902C108.236 78.9902 108.834 78.9921 109.423 79.0762L109.564 78.0862ZM107.356 77.9902L106.37 77.8258C106.314 78.1619 106.287 78.4905 106.263 78.7865C106.239 79.0924 106.217 79.3729 106.174 79.6728L107.164 79.8142L108.154 79.9557C108.207 79.5835 108.233 79.24 108.257 78.946C108.281 78.642 108.303 78.3946 108.343 78.1546L107.356 77.9902ZM107.164 79.8142L106.174 79.6711C105.578 83.7942 106.054 87.5192 107.615 90.2575C109.205 93.0467 111.885 94.7342 115.42 94.7342V93.7342V92.7342C112.619 92.7342 110.595 91.4458 109.353 89.267C108.082 87.0373 107.598 83.8023 108.154 79.9573L107.164 79.8142ZM115.42 93.7342V94.7342C117.37 94.7342 119.162 94.204 120.455 92.8373C121.738 91.4804 122.372 89.4632 122.372 86.8222H121.372H120.372C120.372 89.1733 119.806 90.612 119.002 91.4632C118.206 92.3045 117.022 92.7342 115.42 92.7342V93.7342ZM260.308 77.9902V76.9902H259.482L259.326 77.8014L260.308 77.9902ZM220.756 103.526L220.809 104.525L220.809 104.525L220.756 103.526ZM215.284 103.526L214.285 103.565L214.322 104.526H215.284V103.526ZM214.708 88.5502L214.637 87.5528L213.672 87.6217L213.709 88.5887L214.708 88.5502ZM218.74 88.3582L218.811 89.3557L218.814 89.3555L218.74 88.3582ZM244.66 77.9902L245.539 78.4682L246.343 76.9902H244.66V77.9902ZM260.884 60.2302L259.888 60.3226L259.973 61.2302H260.884V60.2302ZM246.292 60.2302V61.2302H247.458L247.281 60.0782L246.292 60.2302ZM262.996 60.2302V61.2302C267.201 61.2302 270.54 64.7709 270.54 69.0622H271.54H272.54C272.54 63.7536 268.391 59.2302 262.996 59.2302V60.2302ZM271.54 69.0622H270.54C270.54 73.3604 267.099 76.9902 262.996 76.9902V77.9902V78.9902C268.302 78.9902 272.54 74.3641 272.54 69.0622H271.54ZM262.996 77.9902V76.9902H260.308V77.9902V78.9902H262.996V77.9902ZM260.308 77.9902L259.326 77.8014C257.691 86.3036 253.847 92.1161 247.601 95.9926C241.298 99.9041 232.452 101.907 220.703 102.528L220.756 103.526L220.809 104.525C232.676 103.898 241.926 101.868 248.655 97.6919C255.441 93.4804 259.565 87.1489 261.29 78.1791L260.308 77.9902ZM220.756 103.526L220.704 102.528C218.91 102.622 217.279 102.526 215.284 102.526V103.526V104.526C217.129 104.526 218.954 104.622 220.809 104.525L220.756 103.526ZM215.284 103.526L216.283 103.488L215.707 88.5118L214.708 88.5502L213.709 88.5887L214.285 103.565L215.284 103.526ZM214.708 88.5502L214.779 89.5477C215.431 89.5012 216.085 89.4777 216.76 89.4536C217.429 89.4297 218.119 89.4052 218.811 89.3557L218.74 88.3582L218.669 87.3608C218.018 87.4073 217.363 87.4308 216.688 87.4549C216.019 87.4788 215.33 87.5033 214.637 87.5528L214.708 88.5502ZM218.74 88.3582L218.814 89.3555C232.995 88.3015 241.704 85.515 245.539 78.4682L244.66 77.9902L243.782 77.5123C240.512 83.5214 232.902 86.3029 218.666 87.361L218.74 88.3582ZM244.66 77.9902V76.9902H233.716V77.9902V78.9902H244.66V77.9902ZM233.716 77.9902V76.9902C227.161 76.9902 222.721 75.2837 219.903 72.2675C217.073 69.2382 215.708 64.7074 215.708 58.6942H214.708H213.708C213.708 64.9691 215.128 70.0862 218.441 73.6329C221.767 77.1927 226.831 78.9902 233.716 78.9902V77.9902ZM214.708 58.6942H215.708C215.708 50.2024 217.762 43.331 221.326 38.6087C224.87 33.914 229.951 31.2782 236.212 31.2782V30.2782V29.2782C229.321 29.2782 223.65 32.2104 219.73 37.4038C215.831 42.5694 213.708 49.906 213.708 58.6942H214.708ZM236.212 30.2782V31.2782C243.115 31.2782 248.562 33.9774 252.521 38.8971C256.508 43.8516 259.035 51.1262 259.888 60.3226L260.884 60.2302L261.88 60.1378C261.005 50.7103 258.397 43.0088 254.079 37.6433C249.734 32.2431 243.709 29.2782 236.212 29.2782V30.2782ZM260.884 60.2302V61.2302H262.996V60.2302V59.2302H260.884V60.2302ZM228.628 55.3342H227.628C227.628 56.6415 227.85 57.7197 228.305 58.5885C228.769 59.4734 229.442 60.0776 230.229 60.4749C231.718 61.2266 233.634 61.2302 235.252 61.2302V60.2302V59.2302C233.51 59.2302 232.114 59.1859 231.131 58.6895C230.682 58.4629 230.33 58.143 230.076 57.66C229.815 57.1607 229.628 56.427 229.628 55.3342H228.628ZM235.252 60.2302V61.2302H246.292V60.2302V59.2302H235.252V60.2302ZM246.292 60.2302L247.281 60.0782C246.695 56.2695 245.632 52.6963 243.859 50.0497C242.059 47.3633 239.495 45.5982 236.02 45.5982V46.5982V47.5982C238.689 47.5982 240.685 48.9052 242.197 51.1628C243.736 53.4602 244.738 56.703 245.304 60.3823L246.292 60.2302ZM236.02 46.5982V45.5982C233.326 45.5982 231.198 46.8483 229.769 48.6991C228.355 50.5294 227.628 52.9364 227.628 55.3342H228.628H229.628C229.628 53.3161 230.245 51.355 231.352 49.9213C232.443 48.5082 234.01 47.5982 236.02 47.5982V46.5982ZM285.573 20.9662L284.866 21.6733L285.159 21.9662H285.573V20.9662ZM276.645 12.0382H275.645V12.4524L275.938 12.7453L276.645 12.0382ZM276.645 11.6542L275.942 10.9433L275.645 11.2368V11.6542H276.645ZM285.573 2.82223V1.82223H285.162L284.87 2.11131L285.573 2.82223ZM285.957 2.82223L286.661 2.11131L286.368 1.82223H285.957V2.82223ZM294.885 11.6542H295.885V11.2368L295.589 10.9433L294.885 11.6542ZM294.885 12.0382L295.592 12.7453L295.885 12.4524V12.0382H294.885ZM285.957 20.9662V21.9662H286.372L286.664 21.6733L285.957 20.9662ZM296.133 54.0862L295.709 53.1808L295.705 53.1825L296.133 54.0862ZM306.405 48.8062L306.878 49.6874L308.613 48.7566L306.838 47.9047L306.405 48.8062ZM296.805 44.4862L296.42 45.4088L296.427 45.4118L296.805 44.4862ZM276.165 50.3422L275.616 51.178L276.458 51.7312L277.005 50.8849L276.165 50.3422ZM266.373 43.9102L265.448 43.5314L265.136 44.2938L265.824 44.746L266.373 43.9102ZM303.141 29.0302L303.522 28.1055L303.519 28.1043L303.141 29.0302ZM314.373 34.0222L314.797 33.1165L314.796 33.116L314.373 34.0222ZM330.981 41.0302L331.965 41.2107L332.117 40.3809L331.325 40.0911L330.981 41.0302ZM328.005 57.2542L327.974 58.2537L328.834 58.2806L328.989 57.4347L328.005 57.2542ZM316.197 58.8862L315.658 58.0439L315.651 58.0486L316.197 58.8862ZM303.909 66.2782L304.398 67.1506L304.401 67.1492L303.909 66.2782ZM285.573 20.9662L286.28 20.2591L277.352 11.3311L276.645 12.0382L275.938 12.7453L284.866 21.6733L285.573 20.9662ZM276.645 12.0382H277.645V11.6542H276.645H275.645V12.0382H276.645ZM276.645 11.6542L277.349 12.3651L286.277 3.53315L285.573 2.82223L284.87 2.11131L275.942 10.9433L276.645 11.6542ZM285.573 2.82223V3.82223H285.957V2.82223V1.82223H285.573V2.82223ZM285.957 2.82223L285.254 3.53315L294.182 12.3651L294.885 11.6542L295.589 10.9433L286.661 2.11131L285.957 2.82223ZM294.885 11.6542H293.885V12.0382H294.885H295.885V11.6542H294.885ZM294.885 12.0382L294.178 11.3311L285.25 20.2591L285.957 20.9662L286.664 21.6733L295.592 12.7453L294.885 12.0382ZM285.957 20.9662V19.9662H285.573V20.9662V21.9662H285.957V20.9662ZM254.661 69.0622H255.661C255.661 64.7709 259.096 61.2302 263.109 61.2302V60.2302V59.2302C257.906 59.2302 253.661 63.7536 253.661 69.0622H254.661ZM263.109 60.2302V61.2302H266.181V60.2302V59.2302H263.109V60.2302ZM266.181 60.2302V61.2302C278.593 61.2302 287.287 59.383 296.561 54.99L296.133 54.0862L295.705 53.1825C286.739 57.4295 278.346 59.2302 266.181 59.2302V60.2302ZM296.133 54.0862L296.558 54.9917C299.658 53.5386 302.944 51.7984 306.878 49.6874L306.405 48.8062L305.933 47.9251C301.995 50.0381 298.753 51.7538 295.709 53.1808L296.133 54.0862ZM306.405 48.8062L306.838 47.9047C302.022 45.5928 299.316 44.4327 297.184 43.5607L296.805 44.4862L296.427 45.4118C298.519 46.2678 301.189 47.4117 305.973 49.7078L306.405 48.8062ZM296.805 44.4862L297.191 43.5637C291.908 41.3543 289.344 40.6062 286.725 40.6062V41.6062V42.6062C288.907 42.6062 291.143 43.2022 296.42 45.4088L296.805 44.4862ZM286.725 41.6062V40.6062C282.792 40.6062 279.362 43.5526 275.325 49.7995L276.165 50.3422L277.005 50.8849C281.033 44.6519 283.939 42.6062 286.725 42.6062V41.6062ZM276.165 50.3422L276.714 49.5064L266.922 43.0744L266.373 43.9102L265.824 44.746L275.616 51.178L276.165 50.3422ZM266.373 43.9102L267.299 44.2891C270.617 36.1828 274.203 31.5216 277.508 28.8884C280.795 26.2702 283.858 25.6142 286.245 25.6142V24.6142V23.6142C283.448 23.6142 279.935 24.3982 276.262 27.324C272.608 30.2349 268.85 35.2217 265.448 43.5314L266.373 43.9102ZM286.245 24.6142V25.6142C290.648 25.6142 295.488 26.9883 302.764 29.9562L303.141 29.0302L303.519 28.1043C296.203 25.1201 291.059 23.6142 286.245 23.6142V24.6142ZM303.141 29.0302L302.761 29.9549C306.005 31.2907 309.637 32.9156 313.951 34.9284L314.373 34.0222L314.796 33.116C310.469 31.0968 306.806 29.4577 303.522 28.1056L303.141 29.0302ZM314.373 34.0222L313.949 34.9279C323.003 39.166 326.679 40.5209 330.638 41.9694L330.981 41.0302L331.325 40.0911C327.412 38.6596 323.791 37.3265 314.797 33.1165L314.373 34.0222ZM330.981 41.0302L329.998 40.8498L327.022 57.0738L328.005 57.2542L328.989 57.4347L331.965 41.2107L330.981 41.0302ZM328.005 57.2542L328.037 56.2547C326.516 56.2072 325.303 56.1359 324.284 56.076C323.273 56.0165 322.425 55.9662 321.669 55.9662V56.9662V57.9662C322.354 57.9662 323.137 58.012 324.167 58.0725C325.187 58.1326 326.423 58.2053 327.974 58.2537L328.005 57.2542ZM321.669 56.9662V55.9662C320.632 55.9662 319.747 56.0711 318.785 56.4057C317.845 56.7327 316.878 57.2631 315.658 58.044L316.197 58.8862L316.736 59.7285C317.916 58.9733 318.726 58.5438 319.442 58.2947C320.136 58.0534 320.787 57.9662 321.669 57.9662V56.9662ZM316.197 58.8862L315.651 58.0486C311.261 60.9119 307.154 63.3 303.418 65.4073L303.909 66.2782L304.401 67.1492C308.153 65.0325 312.302 62.6206 316.744 59.7238L316.197 58.8862ZM303.909 66.2782L303.42 65.4059C288.446 73.799 277.864 76.9902 265.413 76.9902V77.9902V78.9902C278.307 78.9902 289.228 75.6534 304.398 67.1506L303.909 66.2782ZM265.413 77.9902V76.9902H263.205V77.9902V78.9902H265.413V77.9902ZM263.205 77.9902V76.9902C259.103 76.9902 255.661 73.3604 255.661 69.0622H254.661H253.661C253.661 74.3641 257.9 78.9902 263.205 78.9902V77.9902Z" fill="url(#paint0_linear_1090_961)" mask="url(#path-1-outside-1_1090_961)"/>
<defs>
<linearGradient id="paint0_linear_1090_961" x1="332" y1="51.4902" x2="-2" y2="51.4902" gradientUnits="userSpaceOnUse">
<stop stop-color="#FFCD00"/>
<stop offset="0.5" stop-color="#FFF0B3"/>
<stop offset="1" stop-color="#FFCD00"/>
</linearGradient>
</defs>
</svg>
