<svg width="24" height="19" viewBox="0 0 24 19" fill="none" xmlns="http://www.w3.org/2000/svg">
<path d="M21.6 0H2.4C1.08 0 0.012 1.06875 0.012 2.375L0 16.625C0 17.9312 1.08 19 2.4 19H21.6C22.92 19 24 17.9312 24 16.625V2.375C24 1.06875 22.92 0 21.6 0ZM21.12 5.04688L12.636 10.2956C12.252 10.5331 11.748 10.5331 11.364 10.2956L2.88 5.04688C2.75967 4.98003 2.6543 4.88972 2.57027 4.78141C2.48623 4.67311 2.42527 4.54905 2.39109 4.41675C2.35691 4.28446 2.3502 4.14667 2.37139 4.01174C2.39257 3.87681 2.4412 3.74753 2.51434 3.63173C2.58747 3.51594 2.68359 3.41603 2.79687 3.33806C2.91015 3.26008 3.03825 3.20567 3.17339 3.1781C3.30854 3.15054 3.44794 3.1504 3.58315 3.17769C3.71835 3.20498 3.84656 3.25913 3.96 3.33687L12 8.3125L20.04 3.33687C20.1534 3.25913 20.2817 3.20498 20.4169 3.17769C20.5521 3.1504 20.6915 3.15054 20.8266 3.1781C20.9618 3.20567 21.0898 3.26008 21.2031 3.33806C21.3164 3.41603 21.4125 3.51594 21.4857 3.63173C21.5588 3.74753 21.6074 3.87681 21.6286 4.01174C21.6498 4.14667 21.6431 4.28446 21.6089 4.41675C21.5747 4.54905 21.5138 4.67311 21.4297 4.78141C21.3457 4.88972 21.2403 4.98003 21.12 5.04688Z" fill="#FFCD00"/>
</svg>
