<svg width="24" height="24" viewBox="0 0 24 24" fill="none" xmlns="http://www.w3.org/2000/svg">
<path d="M5.96693 6.91461e-07C5.41929 -0.000328588 4.87796 0.11695 4.37955 0.343905C3.88115 0.570861 3.43729 0.9022 3.07799 1.31552C0.349549 4.05005 -0.451435 7.12659 0.229551 10.2211C0.889537 13.2137 2.8965 16.0607 5.41344 18.5792C7.93339 21.0977 10.7788 23.1063 13.7683 23.7678C16.8612 24.4518 19.9406 23.6583 22.6781 20.9402C23.0929 20.5804 23.4256 20.1357 23.6537 19.6362C23.8818 19.1367 23.9999 18.5939 24 18.0448C24.0001 17.4957 23.8823 16.9529 23.6545 16.4532C23.4267 15.9536 23.0942 15.5087 22.6796 15.1487L20.8646 13.3337C20.1081 12.578 19.0825 12.1535 18.0132 12.1535C16.9439 12.1535 15.9183 12.578 15.1617 13.3337L14.2363 14.2607C14.124 14.373 13.9907 14.4621 13.844 14.5228C13.6973 14.5836 13.5401 14.6149 13.3813 14.6149C13.2225 14.6149 13.0652 14.5836 12.9185 14.5228C12.7718 14.4621 12.6386 14.373 12.5263 14.2607L9.74535 11.4781C9.51892 11.2512 9.39176 10.9437 9.39176 10.6231C9.39176 10.3025 9.51892 9.99505 9.74535 9.76812L10.6723 8.83811C11.4285 8.08146 11.8532 7.05553 11.8532 5.98582C11.8532 4.91611 11.4285 3.89018 10.6723 3.13354L8.85737 1.31702C8.49741 0.903996 8.05325 0.572784 7.5547 0.345625C7.05616 0.118466 6.51478 0.000619524 5.96693 6.91461e-07Z" fill="#FFCD00"/>
</svg>
