<svg width="104" height="104" viewBox="0 0 104 104" fill="none" xmlns="http://www.w3.org/2000/svg">
<g filter="url(#filter0_d_1040_2425)">
<circle cx="56" cy="46" r="40" fill="#10069F"/>
</g>
<path d="M68.7273 56.9087C68.7273 53.6686 68.7253 51.3301 68.4858 49.5481C68.2498 47.7922 67.7983 46.713 66.997 45.9118C66.1959 45.1106 65.1167 44.659 63.3607 44.4229C61.5784 44.1834 59.2396 44.1815 56 44.1815C52.7599 44.1815 50.4214 44.1834 48.6394 44.4229C46.8835 44.659 45.8043 45.1105 45.0031 45.9118C44.2019 46.7129 43.7503 47.7921 43.5142 49.5481C43.2747 51.3304 43.2728 53.6692 43.2728 56.9087C43.2728 60.1488 43.2747 62.4873 43.5142 64.2694C43.7503 66.0253 44.2018 67.1045 45.0031 67.9057C45.8042 68.7069 46.8834 69.1585 48.6394 69.3945C50.4217 69.6341 52.7605 69.636 56 69.636C59.2401 69.636 61.5786 69.634 63.3607 69.3945C65.1166 69.1585 66.1958 68.707 66.997 67.9057C67.7982 67.1045 68.2498 66.0254 68.4858 64.2694C68.7254 62.4871 68.7273 60.1483 68.7273 56.9087ZM70.5455 56.9087C70.5455 60.0969 70.5477 62.5802 70.288 64.5117C70.0249 66.4692 69.4779 67.9958 68.2825 69.1912C67.0871 70.3866 65.5605 70.9336 63.603 71.1967C61.6717 71.4563 59.1888 71.4542 56 71.4542C52.8119 71.4542 50.3286 71.4563 48.3971 71.1967C46.4396 70.9336 44.9129 70.3866 43.7176 69.1912C42.5221 67.9958 41.9752 66.4692 41.712 64.5117C41.4525 62.5804 41.4546 60.0975 41.4546 56.9087C41.4546 53.7205 41.4524 51.2373 41.712 49.3058C41.9752 47.3483 42.5222 45.8216 43.7176 44.6262C44.913 43.4308 46.4396 42.8839 48.3971 42.6207C50.3284 42.3612 52.8113 42.3633 56 42.3633C59.1882 42.3633 61.6715 42.3611 63.603 42.6207C65.5605 42.8839 67.0872 43.4309 68.2825 44.6262C69.4779 45.8217 70.0249 47.3483 70.288 49.3058C70.5476 51.2371 70.5455 53.72 70.5455 56.9087Z" fill="#FFCD00"/>
<path d="M61.5509 56.9087C61.5508 55.4368 60.9652 54.0255 59.9244 52.9847C58.8836 51.9439 57.4724 51.3592 56.0004 51.3592C54.5284 51.3592 53.1164 51.9439 52.0756 52.9847C51.0349 54.0255 50.4501 55.4369 50.45 56.9087C50.45 58.3807 51.0347 59.7928 52.0756 60.8336C53.1164 61.8745 54.5284 62.4592 56.0004 62.4592C57.4723 62.4591 58.8836 61.8743 59.9244 60.8336C60.9653 59.7928 61.5509 58.3808 61.5509 56.9087ZM63.3691 56.9087C63.3691 58.8628 62.5925 60.7373 61.2108 62.1191C59.829 63.5009 57.9546 64.2773 56.0004 64.2773C54.0462 64.2773 52.1719 63.501 50.79 62.1191C49.4082 60.7373 48.6318 58.8629 48.6318 56.9087C48.6319 54.9547 49.4084 53.081 50.79 51.6992C52.1719 50.3174 54.0462 49.541 56.0004 49.541C57.9546 49.5411 59.829 50.3174 61.2108 51.6992C62.5924 53.0809 63.369 54.9548 63.3691 56.9087Z" fill="#FFCD00"/>
<circle cx="63.9995" cy="48" r="1" fill="#FFCD00"/>
<path d="M56.0001 26.9096C56.0001 25.9452 55.6167 25.0206 54.9347 24.3386C54.2528 23.6567 53.3281 23.2733 52.3637 23.2733C51.3993 23.2733 50.4747 23.6567 49.7927 24.3386C49.1108 25.0206 48.7274 25.9452 48.7274 26.9096C48.7274 27.9548 48.8665 29.3752 50.2428 30.7741L56.9332 35.791C57.0407 35.7171 57.163 35.6346 57.2963 35.5424C57.846 35.1623 58.5956 34.6379 59.3959 34.0634C61.023 32.8952 62.7754 31.5761 63.5392 30.8123C64.9501 29.4014 65.091 27.9641 65.091 26.9096C65.091 25.9452 64.7076 25.0206 64.0257 24.3386C63.3437 23.6567 62.4191 23.2733 61.4546 23.2733C60.4902 23.2733 59.5656 23.6567 58.8836 24.3386C58.2017 25.0206 57.8183 25.9452 57.8183 26.9096C57.8183 27.4117 57.4113 27.8187 56.9092 27.8187C56.4071 27.8187 56.0001 27.4117 56.0001 26.9096ZM66.9092 26.9096C66.9092 28.1969 66.7197 30.2028 64.8247 32.0978C63.9355 32.987 62.0517 34.3949 60.4559 35.5407C59.6447 36.1231 58.8861 36.6532 58.3305 37.0375C58.0526 37.2297 57.8246 37.3858 57.6665 37.4938C57.5875 37.5477 57.5257 37.5895 57.4836 37.6181C57.4626 37.6323 57.4466 37.6435 57.4356 37.6509C57.4302 37.6546 57.426 37.6579 57.4232 37.6598C57.4218 37.6608 57.4204 37.6611 57.4197 37.6616L57.4188 37.6625C57.0977 37.8797 56.6742 37.8692 56.3641 37.6367L49.0914 32.1822C49.0569 32.1564 49.0241 32.1283 48.9937 32.0978C47.0987 30.2028 46.9092 28.1969 46.9092 26.9096C46.9092 25.463 47.4843 24.076 48.5072 23.0531C49.5301 22.0302 50.9171 21.4551 52.3637 21.4551C53.8104 21.4551 55.1973 22.0302 56.2203 23.0531C56.479 23.3119 56.7098 23.5933 56.9092 23.8938C57.1085 23.5933 57.3393 23.3119 57.5981 23.0531C58.621 22.0302 60.008 21.4551 61.4546 21.4551C62.9013 21.4551 64.2882 22.0302 65.3112 23.0531C66.3341 24.076 66.9092 25.463 66.9092 26.9096Z" fill="#FFCD00"/>
<defs>
<filter id="filter0_d_1040_2425" x="0" y="0" width="104" height="104" filterUnits="userSpaceOnUse" color-interpolation-filters="sRGB">
<feFlood flood-opacity="0" result="BackgroundImageFix"/>
<feColorMatrix in="SourceAlpha" type="matrix" values="0 0 0 0 0 0 0 0 0 0 0 0 0 0 0 0 0 0 127 0" result="hardAlpha"/>
<feOffset dx="-4" dy="6"/>
<feGaussianBlur stdDeviation="6"/>
<feComposite in2="hardAlpha" operator="out"/>
<feColorMatrix type="matrix" values="0 0 0 0 0 0 0 0 0 0 0 0 0 0 0 0 0 0 0.15 0"/>
<feBlend mode="normal" in2="BackgroundImageFix" result="effect1_dropShadow_1040_2425"/>
<feBlend mode="normal" in="SourceGraphic" in2="effect1_dropShadow_1040_2425" result="shape"/>
</filter>
</defs>
</svg>
