<svg width="72" height="72" viewBox="0 0 72 72" fill="none" xmlns="http://www.w3.org/2000/svg">
<g filter="url(#filter0_d_3065_205)">
<circle cx="40" cy="30" r="24" fill="#10069F"/>
</g>
<path d="M47.6371 36.5456C47.6371 34.6016 47.6359 33.1985 47.4922 32.1293C47.3506 31.0757 47.0796 30.4282 46.5989 29.9474C46.1182 29.4667 45.4707 29.1958 44.4171 29.0542C43.3477 28.9104 41.9444 28.9093 40.0007 28.9093C38.0567 28.9093 36.6535 28.9105 35.5843 29.0542C34.5308 29.1958 33.8833 29.4667 33.4025 29.9474C32.9218 30.4281 32.6509 31.0756 32.5092 32.1293C32.3655 33.1986 32.3643 34.6019 32.3643 36.5456C32.3643 38.4897 32.3655 39.8928 32.5092 40.962C32.6509 42.0156 32.9218 42.6631 33.4025 43.1438C33.8832 43.6245 34.5307 43.8955 35.5843 44.0371C36.6537 44.1808 38.057 44.182 40.0007 44.182C41.9448 44.182 43.3479 44.1808 44.4171 44.0371C45.4706 43.8955 46.1182 43.6246 46.5989 43.1438C47.0796 42.6631 47.3506 42.0156 47.4922 40.962C47.6359 39.8927 47.6371 38.4894 47.6371 36.5456ZM48.728 36.5456C48.728 38.4585 48.7293 39.9485 48.5735 41.1074C48.4156 42.2819 48.0874 43.1979 47.3702 43.9151C46.653 44.6324 45.737 44.9606 44.5625 45.1184C43.4037 45.2742 41.914 45.2729 40.0007 45.2729C38.0878 45.2729 36.5978 45.2742 35.4389 45.1184C34.2645 44.9606 33.3484 44.6324 32.6312 43.9151C31.914 43.1979 31.5858 42.2819 31.4279 41.1074C31.2722 39.9486 31.2734 38.4589 31.2734 36.5456C31.2734 34.6327 31.2721 33.1428 31.4279 31.9838C31.5858 30.8094 31.914 29.8934 32.6312 29.1761C33.3485 28.4589 34.2644 28.1307 35.4389 27.9728C36.5977 27.8171 38.0874 27.8184 40.0007 27.8184C41.9136 27.8184 43.4036 27.8171 44.5625 27.9728C45.737 28.1307 46.653 28.4589 47.3702 29.1761C48.0875 29.8934 48.4156 30.8094 48.5735 31.9838C48.7293 33.1426 48.728 34.6324 48.728 36.5456Z" fill="#FFCD00"/>
<path d="M43.3315 36.5456C43.3314 35.6625 42.9801 34.8157 42.3556 34.1912C41.7312 33.5668 40.8844 33.2159 40.0012 33.2159C39.118 33.2159 38.2708 33.5667 37.6463 34.1912C37.0219 34.8157 36.671 35.6625 36.671 36.5456C36.671 37.4288 37.0218 38.276 37.6463 38.9006C38.2708 39.5251 39.118 39.8759 40.0012 39.8759C40.8844 39.8759 41.7312 39.525 42.3556 38.9006C42.9802 38.276 43.3315 37.4288 43.3315 36.5456ZM44.4224 36.5456C44.4224 37.7181 43.9565 38.8428 43.1275 39.6719C42.2984 40.501 41.1737 40.9668 40.0012 40.9668C38.8287 40.9668 37.7041 40.501 36.875 39.6719C36.0459 38.8428 35.5801 37.7181 35.5801 36.5456C35.5801 35.3732 36.046 34.249 36.875 33.4199C37.7041 32.5908 38.8287 32.125 40.0012 32.125C41.1737 32.125 42.2984 32.5908 43.1275 33.4199C43.9564 34.249 44.4224 35.3733 44.4224 36.5456Z" fill="#FFCD00"/>
<circle cx="44.5" cy="31.5" r="0.5" fill="#FFCD00"/>
<path d="M39.9995 18.5462C39.9995 17.9675 39.7694 17.4127 39.3603 17.0036C38.9511 16.5944 38.3963 16.3643 37.8176 16.3643C37.239 16.3643 36.6842 16.5944 36.275 17.0036C35.8659 17.4127 35.6358 17.9675 35.6358 18.5462C35.6358 19.1733 35.7193 20.0255 36.5451 20.8649L40.5593 23.875C40.6238 23.8307 40.6972 23.7812 40.7772 23.7259C41.107 23.4978 41.5568 23.1831 42.0369 22.8384C43.0132 22.1375 44.0646 21.346 44.5229 20.8878C45.3695 20.0412 45.454 19.1789 45.454 18.5462C45.454 17.9675 45.224 17.4127 44.8148 17.0036C44.4056 16.5944 43.8508 16.3643 43.2722 16.3643C42.6935 16.3643 42.1388 16.5944 41.7296 17.0036C41.3204 17.4127 41.0904 17.9675 41.0904 18.5462C41.0904 18.8474 40.8462 19.0916 40.5449 19.0916C40.2437 19.0916 39.9995 18.8474 39.9995 18.5462ZM46.5449 18.5462C46.5449 19.3186 46.4312 20.5221 45.2942 21.6591C44.7607 22.1926 43.6304 23.0374 42.6729 23.7248C42.1862 24.0742 41.7311 24.3923 41.3977 24.6229C41.231 24.7382 41.0942 24.8318 40.9993 24.8967C40.9519 24.929 40.9148 24.9541 40.8896 24.9712C40.877 24.9798 40.8674 24.9865 40.8608 24.9909C40.8575 24.9932 40.855 24.9951 40.8533 24.9963C40.8525 24.9968 40.8517 24.997 40.8512 24.9973L40.8507 24.9979C40.658 25.1282 40.4039 25.1219 40.2179 24.9824L35.8542 21.7097C35.8336 21.6942 35.8139 21.6773 35.7956 21.6591C34.6586 20.5221 34.5449 19.3186 34.5449 18.5462C34.5449 17.6782 34.89 16.846 35.5037 16.2322C36.1175 15.6185 36.9497 15.2734 37.8176 15.2734C38.6856 15.2734 39.5178 15.6185 40.1316 16.2322C40.2868 16.3875 40.4253 16.5564 40.5449 16.7367C40.6645 16.5564 40.803 16.3875 40.9583 16.2322C41.572 15.6185 42.4042 15.2734 43.2722 15.2734C44.1402 15.2734 44.9724 15.6185 45.5861 16.2322C46.1999 16.846 46.5449 17.6782 46.5449 18.5462Z" fill="#FFCD00"/>
<defs>
<filter id="filter0_d_3065_205" x="0" y="0" width="72" height="72" filterUnits="userSpaceOnUse" color-interpolation-filters="sRGB">
<feFlood flood-opacity="0" result="BackgroundImageFix"/>
<feColorMatrix in="SourceAlpha" type="matrix" values="0 0 0 0 0 0 0 0 0 0 0 0 0 0 0 0 0 0 127 0" result="hardAlpha"/>
<feOffset dx="-4" dy="6"/>
<feGaussianBlur stdDeviation="6"/>
<feComposite in2="hardAlpha" operator="out"/>
<feColorMatrix type="matrix" values="0 0 0 0 0 0 0 0 0 0 0 0 0 0 0 0 0 0 0.15 0"/>
<feBlend mode="normal" in2="BackgroundImageFix" result="effect1_dropShadow_3065_205"/>
<feBlend mode="normal" in="SourceGraphic" in2="effect1_dropShadow_3065_205" result="shape"/>
</filter>
</defs>
</svg>
