<svg width="24" height="27" viewBox="0 0 24 27" fill="none" xmlns="http://www.w3.org/2000/svg">
<path d="M14.312 26.1488C17.798 23.1872 24 17.1365 24 11.5839C24 8.51169 22.7357 5.56527 20.4853 3.39286C18.2348 1.22045 15.1826 0 12 0C8.8174 0 5.76515 1.22045 3.51472 3.39286C1.26428 5.56527 4.74244e-08 8.51169 0 11.5839C0 17.1365 6.2 23.1872 9.688 26.1488C10.3242 26.697 11.1472 27 12 27C12.8528 27 13.6758 26.697 14.312 26.1488ZM8 11.5839C8 10.5599 8.42143 9.57772 9.17157 8.85358C9.92172 8.12945 10.9391 7.72263 12 7.72263C13.0609 7.72263 14.0783 8.12945 14.8284 8.85358C15.5786 9.57772 16 10.5599 16 11.5839C16 12.608 15.5786 13.5902 14.8284 14.3143C14.0783 15.0384 13.0609 15.4453 12 15.4453C10.9391 15.4453 9.92172 15.0384 9.17157 14.3143C8.42143 13.5902 8 12.608 8 11.5839Z" fill="#FFCD00"/>
</svg>
