<svg width="136" height="52" viewBox="0 0 136 52" fill="none" xmlns="http://www.w3.org/2000/svg">
<mask id="path-1-outside-1_1451_280" maskUnits="userSpaceOnUse" x="0" y="0" width="136" height="52" fill="black">
<rect fill="white" width="136" height="52"/>
<path d="M11.1992 34C4.19922 34 1.83922 30.36 1.75922 23.6L1.55922 4.72L7.07922 4.12L7.11922 23.04C7.11922 26.76 7.91922 27.48 11.1992 27.48C12.8792 27.48 14.3192 28.96 14.3192 30.72C14.3192 32.48 12.8792 34 11.1992 34ZM8.07141 30.72C8.07141 29 9.43141 27.48 11.1914 27.48C13.9114 27.48 15.4314 26.32 17.9914 21.96C20.8714 17.2 23.2714 14.72 27.2314 14.72C31.4714 14.72 34.6714 18.72 34.8714 25.84C35.0314 32.12 31.7114 35.28 27.5514 35.28C24.3514 35.28 21.0714 33.48 18.7914 30.12C17.1914 32.2 14.8714 34 11.1914 34C9.43141 34 8.07141 32.48 8.07141 30.72ZM21.7514 25.32C23.5514 27.32 25.7514 28.72 27.7114 28.72C29.1914 28.72 29.9514 27.76 29.9514 25.8C29.9514 23.08 29.1114 20.92 27.0714 20.92C25.5914 20.92 24.0314 21.52 21.7514 25.32ZM54.4364 8.36L50.9164 5.04V4.88L54.2364 1.44H54.3964L57.9164 4.72V4.88L54.6364 8.36H54.4364ZM60.3964 46.36C51.3164 46.36 46.1964 42.92 46.1964 35.72C46.1964 28.88 51.2764 22.84 61.0364 19.64L59.1564 18.72C56.9964 17.76 55.4764 17.12 54.2364 17.12C52.4764 17.12 51.2764 18.28 49.5964 21.08L45.9964 18.72C48.4764 12.6 51.5164 10.88 54.0764 10.88C56.1964 10.88 58.5164 11.72 61.9564 13.24C63.1164 13.76 64.3564 14.4 65.7964 15.04C69.1164 16.6 70.6364 17.16 72.2364 17.64L70.8364 23.28C69.7564 23.2 68.3564 23.24 67.2364 23.36C67.7564 26.44 69.2364 27.48 73.3964 27.48C75.1164 27.48 76.5564 28.96 76.5564 30.72C76.5564 32.48 75.1164 34 73.3964 34C66.6364 34 63.4364 31.16 62.8764 24.64C56.3164 26.8 51.7164 30.44 51.8764 34.8C52.0764 38.64 56.4764 39.92 62.1564 39.92C64.7964 39.92 67.9564 39.68 70.7564 39.32L71.1164 45.04C67.3564 46.12 63.3564 46.36 60.3964 46.36ZM107.539 24.96C107.579 31.32 105.019 34 100.339 34C98.0189 34 95.8589 33.08 94.0589 31.48C92.2589 33.12 89.6189 34 86.8989 34C84.8589 34 82.7789 33.32 80.8589 32.08C79.1789 33.36 76.8589 34 73.4189 34C71.6989 34 70.2589 32.44 70.2589 30.68C70.2589 28.92 71.6589 27.48 73.4189 27.48C76.0189 27.48 77.7389 26.88 78.4989 25.92C79.2589 24.96 79.4589 24.44 79.8189 19.56L84.1789 19.76C84.1389 23.2 84.1389 25.4 83.8189 27.12C84.7789 27.36 85.7789 27.48 86.6589 27.48C88.6189 27.48 90.2589 26.92 91.0189 25.96C91.7789 25 91.9789 24.48 92.3389 19.6L96.6989 19.76C96.6589 22.76 96.6589 24.88 96.4589 26.48C97.7789 27.24 99.2989 27.48 100.339 27.48C101.739 27.48 102.459 27 102.459 25.56C102.459 24.28 101.979 21.68 101.179 17.6L106.539 15.8C107.139 19.36 107.539 22.96 107.539 24.96ZM121.16 34C114.16 34 111.8 30.36 111.72 23.6L111.52 4.72L117.04 4.12L117.08 23.04C117.08 26.76 117.88 27.48 121.16 27.48C122.84 27.48 124.28 28.96 124.28 30.72C124.28 32.48 122.84 34 121.16 34ZM134.352 23.8C134.512 30.44 129.992 34 121.472 34H121.152C119.392 34 118.032 32.48 118.032 30.72C118.032 29 119.392 27.48 121.152 27.48H121.392C126.472 27.48 129.272 26.52 129.232 24.2C129.232 22.32 128.672 19.88 127.432 15.2L132.872 13.24C134.032 18.52 134.272 20.68 134.352 23.8ZM130.112 37.32H130.272L133.712 40.56V40.72L130.472 44.12H130.312L127.952 41.88L125.032 44.92H124.872L121.432 41.64V41.48L124.672 38.12H124.832L127.192 40.36L130.112 37.32ZM127.912 44.16H128.072L131.312 47.16V47.32L128.272 50.52H128.112L124.872 47.48V47.32L127.912 44.16Z"/>
</mask>
<path d="M1.75922 23.6L0.759274 23.6106L0.759289 23.6118L1.75922 23.6ZM1.55922 4.72L1.45116 3.72585L0.54967 3.82384L0.559275 4.73059L1.55922 4.72ZM7.07922 4.12L8.07922 4.11788L8.07687 3.00567L6.97116 3.12585L7.07922 4.12ZM7.11922 23.04H8.11922L8.11922 23.0379L7.11922 23.04ZM11.1992 34V33C7.86463 33 5.86459 32.1371 4.64975 30.6916C3.39963 29.2042 2.79825 26.892 2.75915 23.5882L1.75922 23.6L0.759289 23.6118C0.80019 27.068 1.41881 29.9558 3.11869 31.9784C4.85385 34.0429 7.53381 35 11.1992 35V34ZM1.75922 23.6L2.75916 23.5894L2.55916 4.7094L1.55922 4.72L0.559275 4.73059L0.759275 23.6106L1.75922 23.6ZM1.55922 4.72L1.66728 5.71414L7.18728 5.11414L7.07922 4.12L6.97116 3.12585L1.45116 3.72585L1.55922 4.72ZM7.07922 4.12L6.07922 4.12211L6.11922 23.0421L7.11922 23.04L8.11922 23.0379L8.07922 4.11788L7.07922 4.12ZM7.11922 23.04H6.11922C6.11922 23.9941 6.16938 24.8189 6.31756 25.5122C6.46737 26.213 6.73055 26.8429 7.20267 27.3421C8.14073 28.334 9.59165 28.48 11.1992 28.48V27.48V26.48C9.52679 26.48 8.93771 26.266 8.65576 25.9679C8.51789 25.8221 8.37607 25.5745 8.27338 25.0941C8.16906 24.6061 8.11922 23.9459 8.11922 23.04H7.11922ZM11.1992 27.48V28.48C12.2947 28.48 13.3192 29.4795 13.3192 30.72H14.3192H15.3192C15.3192 28.4405 13.4637 26.48 11.1992 26.48V27.48ZM14.3192 30.72H13.3192C13.3192 31.9767 12.2792 33 11.1992 33V34V35C13.4792 35 15.3192 32.9833 15.3192 30.72H14.3192ZM17.9914 21.96L17.1357 21.4423L17.1291 21.4537L17.9914 21.96ZM34.8714 25.84L35.8711 25.8145L35.871 25.8119L34.8714 25.84ZM18.7914 30.12L19.6189 29.5585L18.8422 28.4139L17.9988 29.5103L18.7914 30.12ZM21.7514 25.32L20.8939 24.8055L20.5135 25.4394L21.0081 25.989L21.7514 25.32ZM8.07141 30.72H9.07141C9.07141 29.4943 10.0399 28.48 11.1914 28.48V27.48V26.48C8.82287 26.48 7.07141 28.5057 7.07141 30.72H8.07141ZM11.1914 27.48V28.48C12.7274 28.48 14.0234 28.1416 15.2775 27.1348C16.4693 26.1778 17.5656 24.6602 18.8537 22.4663L17.9914 21.96L17.1291 21.4537C15.8572 23.6198 14.9135 24.8622 14.0253 25.5752C13.1994 26.2384 12.3754 26.48 11.1914 26.48V27.48ZM17.9914 21.96L18.847 22.4777C20.2747 20.1179 21.525 18.4268 22.8474 17.3226C24.1308 16.2509 25.4962 15.72 27.2314 15.72V14.72V13.72C25.0066 13.72 23.192 14.4291 21.5654 15.7874C19.9778 17.1132 18.5881 19.0421 17.1358 21.4423L17.9914 21.96ZM27.2314 14.72V15.72C28.9979 15.72 30.5676 16.5382 31.7537 18.1927C32.958 19.8724 33.7755 22.4386 33.8718 25.8681L34.8714 25.84L35.871 25.8119C35.7673 22.1214 34.8849 19.1276 33.3791 17.0273C31.8552 14.9018 29.7049 13.72 27.2314 13.72V14.72ZM34.8714 25.84L33.8717 25.8655C33.9473 28.8309 33.1992 30.9295 32.0674 32.2698C30.9452 33.5987 29.3657 34.28 27.5514 34.28V35.28V36.28C29.8971 36.28 32.0576 35.3813 33.5954 33.5602C35.1236 31.7505 35.9555 29.1291 35.8711 25.8145L34.8714 25.84ZM27.5514 35.28V34.28C24.7365 34.28 21.7451 32.6918 19.6189 29.5585L18.7914 30.12L17.9639 30.6815C20.3977 34.2682 23.9663 36.28 27.5514 36.28V35.28ZM18.7914 30.12L17.9988 29.5103C16.5279 31.4224 14.474 33 11.1914 33V34V35C15.2688 35 17.8549 32.9776 19.584 30.7297L18.7914 30.12ZM11.1914 34V33C10.0476 33 9.07141 31.9938 9.07141 30.72H8.07141H7.07141C7.07141 32.9662 8.81526 35 11.1914 35V34ZM21.7514 25.32L21.0081 25.989C22.874 28.0622 25.3245 29.72 27.7114 29.72V28.72V27.72C26.1783 27.72 24.2288 26.5778 22.4947 24.651L21.7514 25.32ZM27.7114 28.72V29.72C28.6851 29.72 29.5711 29.391 30.1775 28.6067C30.7464 27.8709 30.9514 26.8817 30.9514 25.8H29.9514H28.9514C28.9514 26.6783 28.7764 27.1491 28.5953 27.3833C28.4517 27.569 28.2177 27.72 27.7114 27.72V28.72ZM29.9514 25.8H30.9514C30.9514 24.363 30.7336 22.9572 30.1606 21.8728C29.5587 20.7338 28.5339 19.92 27.0714 19.92V20.92V21.92C27.649 21.92 28.0641 22.1862 28.3923 22.8072C28.7492 23.4828 28.9514 24.517 28.9514 25.8H29.9514ZM27.0714 20.92V19.92C26.1581 19.92 25.1827 20.1163 24.1235 20.8861C23.1075 21.6245 22.0648 22.854 20.8939 24.8055L21.7514 25.32L22.6089 25.8345C23.718 23.986 24.5953 23.0155 25.2993 22.5039C25.9601 22.0237 26.5047 21.92 27.0714 21.92V20.92ZM54.4364 8.36L53.7503 9.08747L54.0392 9.36H54.4364V8.36ZM50.9164 5.04H49.9164V5.47144L50.2303 5.76747L50.9164 5.04ZM50.9164 4.88L50.1969 4.18555L49.9164 4.47614V4.88H50.9164ZM54.2364 1.44V0.44H53.8118L53.5169 0.745554L54.2364 1.44ZM54.3964 1.44L55.0781 0.708392L54.7901 0.44H54.3964V1.44ZM57.9164 4.72H58.9164V4.28496L58.5981 3.98839L57.9164 4.72ZM57.9164 4.88L58.6441 5.56588L58.9164 5.27699V4.88H57.9164ZM54.6364 8.36V9.36H55.0681L55.3641 9.04589L54.6364 8.36ZM61.0364 19.64L61.348 20.5902L63.6864 19.8235L61.476 18.7418L61.0364 19.64ZM59.1564 18.72L59.596 17.8218L59.5794 17.8137L59.5625 17.8062L59.1564 18.72ZM49.5964 21.08L49.0482 21.9163L49.9185 22.4869L50.4539 21.5945L49.5964 21.08ZM45.9964 18.72L45.0696 18.3444L44.7611 19.1059L45.4482 19.5563L45.9964 18.72ZM61.9564 13.24L62.3655 12.3275L62.3606 12.3253L61.9564 13.24ZM65.7964 15.04L66.2217 14.1349L66.2122 14.1305L66.2025 14.1262L65.7964 15.04ZM72.2364 17.64L73.207 17.8809L73.4365 16.956L72.5238 16.6822L72.2364 17.64ZM70.8364 23.28L70.7625 24.2773L71.6037 24.3396L71.807 23.5209L70.8364 23.28ZM67.2364 23.36L67.1299 22.3657L66.0735 22.4789L66.2504 23.5265L67.2364 23.36ZM62.8764 24.64L63.8727 24.5544L63.7645 23.2948L62.5637 23.6902L62.8764 24.64ZM51.8764 34.8L50.8771 34.8367L50.8774 34.8443L50.8778 34.852L51.8764 34.8ZM70.7564 39.32L71.7544 39.2572L71.6874 38.1921L70.6289 38.3282L70.7564 39.32ZM71.1164 45.04L71.3925 46.0011L72.1649 45.7793L72.1144 44.9772L71.1164 45.04ZM54.4364 8.36L55.1225 7.63253L51.6025 4.31253L50.9164 5.04L50.2303 5.76747L53.7503 9.08747L54.4364 8.36ZM50.9164 5.04H51.9164V4.88H50.9164H49.9164V5.04H50.9164ZM50.9164 4.88L51.636 5.57444L54.956 2.13445L54.2364 1.44L53.5169 0.745554L50.1969 4.18555L50.9164 4.88ZM54.2364 1.44V2.44H54.3964V1.44V0.44H54.2364V1.44ZM54.3964 1.44L53.7147 2.17161L57.2347 5.45161L57.9164 4.72L58.5981 3.98839L55.0781 0.708392L54.3964 1.44ZM57.9164 4.72H56.9164V4.88H57.9164H58.9164V4.72H57.9164ZM57.9164 4.88L57.1887 4.19411L53.9087 7.67411L54.6364 8.36L55.3641 9.04589L58.6441 5.56588L57.9164 4.88ZM54.6364 8.36V7.36H54.4364V8.36V9.36H54.6364V8.36ZM60.3964 46.36V45.36C55.9558 45.36 52.6516 44.5142 50.4804 42.9318C48.364 41.3895 47.1964 39.0539 47.1964 35.72H46.1964H45.1964C45.1964 39.5861 46.5888 42.5705 49.3024 44.5482C51.9612 46.4858 55.7571 47.36 60.3964 47.36V46.36ZM46.1964 35.72H47.1964C47.1964 29.4739 51.8208 23.7139 61.348 20.5902L61.0364 19.64L60.7249 18.6898C50.732 21.9661 45.1964 28.2861 45.1964 35.72H46.1964ZM61.0364 19.64L61.476 18.7418L59.596 17.8218L59.1564 18.72L58.7169 19.6182L60.5969 20.5382L61.0364 19.64ZM59.1564 18.72L59.5625 17.8062C58.4876 17.3284 57.5305 16.9113 56.6799 16.6155C55.8318 16.3205 55.0193 16.12 54.2364 16.12V17.12V18.12C54.6935 18.12 55.2611 18.2395 56.0229 18.5045C56.7823 18.7687 57.6653 19.1516 58.7503 19.6338L59.1564 18.72ZM54.2364 17.12V16.12C53.0914 16.12 52.1219 16.5136 51.2272 17.2981C50.3745 18.0456 49.5893 19.1482 48.7389 20.5655L49.5964 21.08L50.4539 21.5945C51.2835 20.2118 51.9383 19.3344 52.5456 18.8019C53.1109 18.3064 53.6215 18.12 54.2364 18.12V17.12ZM49.5964 21.08L50.1447 20.2437L46.5447 17.8837L45.9964 18.72L45.4482 19.5563L49.0482 21.9163L49.5964 21.08ZM45.9964 18.72L46.9232 19.0956C49.327 13.1636 52.0953 11.88 54.0764 11.88V10.88V9.88C50.9375 9.88 47.6258 12.0364 45.0696 18.3444L45.9964 18.72ZM54.0764 10.88V11.88C55.9563 11.88 58.0929 12.6262 61.5522 14.1547L61.9564 13.24L62.3606 12.3253C58.9399 10.8138 56.4365 9.88 54.0764 9.88V10.88ZM61.9564 13.24L61.5474 14.1525C62.1125 14.4058 62.6986 14.6891 63.3384 14.9964C63.9739 15.3016 64.6555 15.6273 65.3903 15.9538L65.7964 15.04L66.2025 14.1262C65.4973 13.8127 64.8389 13.4984 64.2044 13.1936C63.5742 12.8909 62.9603 12.5942 62.3655 12.3275L61.9564 13.24ZM65.7964 15.04L65.3711 15.9451C68.7193 17.5183 70.2871 18.0993 71.9491 18.5978L72.2364 17.64L72.5238 16.6822C70.9857 16.2207 69.5135 15.6817 66.2217 14.1349L65.7964 15.04ZM72.2364 17.64L71.2659 17.3991L69.8659 23.0391L70.8364 23.28L71.807 23.5209L73.207 17.8809L72.2364 17.64ZM70.8364 23.28L70.9103 22.2827C69.7605 22.1976 68.2993 22.2404 67.1299 22.3657L67.2364 23.36L67.3429 24.3543C68.4136 24.2396 69.7524 24.2024 70.7625 24.2773L70.8364 23.28ZM67.2364 23.36L66.2504 23.5265C66.5316 25.1923 67.1123 26.5396 68.3917 27.4037C69.609 28.2258 71.28 28.48 73.3964 28.48V27.48V26.48C71.3528 26.48 70.2038 26.2142 69.5111 25.7463C68.8805 25.3204 68.4612 24.6077 68.2225 23.1935L67.2364 23.36ZM73.3964 27.48V28.48C74.54 28.48 75.5564 29.4879 75.5564 30.72H76.5564H77.5564C77.5564 28.4321 75.6928 26.48 73.3964 26.48V27.48ZM76.5564 30.72H75.5564C75.5564 31.9683 74.5244 33 73.3964 33V34V35C75.7084 35 77.5564 32.9917 77.5564 30.72H76.5564ZM73.3964 34V33C70.1371 33 67.9324 32.3129 66.4759 31.0177C65.026 29.7284 64.1411 27.6789 63.8727 24.5544L62.8764 24.64L61.8801 24.7256C62.1717 28.1211 63.1669 30.7516 65.1469 32.5123C67.1204 34.2671 69.8958 35 73.3964 35V34ZM62.8764 24.64L62.5637 23.6902C59.2046 24.7962 56.2787 26.3017 54.1938 28.146C52.1059 29.9931 50.7825 32.259 50.8771 34.8367L51.8764 34.8L52.8757 34.7633C52.8103 32.981 53.707 31.2469 55.519 29.644C57.3341 28.0383 59.9882 26.6438 63.1892 25.5898L62.8764 24.64ZM51.8764 34.8L50.8778 34.852C51.0029 37.254 52.4858 38.8116 54.5618 39.7167C56.5855 40.599 59.2695 40.92 62.1564 40.92V39.92V38.92C59.3633 38.92 57.0073 38.601 55.361 37.8833C53.767 37.1884 52.95 36.186 52.8751 34.748L51.8764 34.8ZM62.1564 39.92V40.92C64.8483 40.92 68.052 40.6759 70.8839 40.3118L70.7564 39.32L70.6289 38.3282C67.8608 38.6841 64.7445 38.92 62.1564 38.92V39.92ZM70.7564 39.32L69.7584 39.3828L70.1184 45.1028L71.1164 45.04L72.1144 44.9772L71.7544 39.2572L70.7564 39.32ZM71.1164 45.04L70.8403 44.0789C67.209 45.1219 63.3148 45.36 60.3964 45.36V46.36V47.36C63.398 47.36 67.5038 47.1181 71.3925 46.0011L71.1164 45.04ZM107.539 24.96H106.539L106.539 24.9663L107.539 24.96ZM94.0589 31.48L94.7233 30.7326L94.0507 30.1347L93.3854 30.7408L94.0589 31.48ZM80.8589 32.08L81.4014 31.24L80.8115 30.859L80.2529 31.2846L80.8589 32.08ZM78.4989 25.92L79.283 26.5407L78.4989 25.92ZM79.8189 19.56L79.8647 18.561L78.8932 18.5165L78.8216 19.4864L79.8189 19.56ZM84.1789 19.76L85.1788 19.7716L85.1901 18.8053L84.2247 18.761L84.1789 19.76ZM83.8189 27.12L82.8358 26.9371L82.6637 27.862L83.5764 28.0901L83.8189 27.12ZM92.3389 19.6L92.3756 18.6007L91.4125 18.5653L91.3416 19.5264L92.3389 19.6ZM96.6989 19.76L97.6988 19.7733L97.7118 18.7965L96.7356 18.7607L96.6989 19.76ZM96.4589 26.48L95.4666 26.356L95.3842 27.0152L95.9599 27.3466L96.4589 26.48ZM101.179 17.6L100.861 16.652L100.029 16.9314L100.198 17.7924L101.179 17.6ZM106.539 15.8L107.525 15.6338L107.33 14.4793L106.221 14.852L106.539 15.8ZM107.539 24.96L106.539 24.9663C106.558 28.0393 105.944 30.0206 104.94 31.2251C103.968 32.3928 102.486 33 100.339 33V34V35C102.872 35 105.01 34.2672 106.477 32.5049C107.914 30.7794 108.56 28.2407 108.539 24.9537L107.539 24.96ZM100.339 34V33C98.2966 33 96.3663 32.193 94.7233 30.7326L94.0589 31.48L93.3945 32.2274C95.3515 33.967 97.7412 35 100.339 35V34ZM94.0589 31.48L93.3854 30.7408C91.8054 32.1804 89.4229 33 86.8989 33V34V35C89.815 35 92.7124 34.0596 94.7324 32.2192L94.0589 31.48ZM86.8989 34V33C85.0823 33 83.1879 32.3937 81.4014 31.24L80.8589 32.08L80.3164 32.92C82.37 34.2463 84.6355 35 86.8989 35V34ZM80.8589 32.08L80.2529 31.2846C78.8163 32.3791 76.7469 33 73.4189 33V34V35C76.9709 35 79.5415 34.3409 81.465 32.8754L80.8589 32.08ZM73.4189 34V33C72.306 33 71.2589 31.9442 71.2589 30.68H70.2589H69.2589C69.2589 32.9358 71.0918 35 73.4189 35V34ZM70.2589 30.68H71.2589C71.2589 29.4558 72.2275 28.48 73.4189 28.48V27.48V26.48C71.0903 26.48 69.2589 28.3842 69.2589 30.68H70.2589ZM73.4189 27.48V28.48C76.0821 28.48 78.2216 27.8813 79.283 26.5407L78.4989 25.92L77.7149 25.2993C77.2562 25.8787 75.9557 26.48 73.4189 26.48V27.48ZM78.4989 25.92L79.283 26.5407C79.4859 26.2844 79.6907 26.0092 79.8679 25.6581C80.046 25.3052 80.1774 24.9143 80.2854 24.4257C80.4937 23.4826 80.6373 22.0581 80.8162 19.6336L79.8189 19.56L78.8216 19.4864C78.6405 21.9419 78.5041 23.2174 78.3325 23.9943C78.2504 24.3657 78.1668 24.5898 78.0825 24.7569C77.9971 24.9258 77.8919 25.0756 77.7149 25.2993L78.4989 25.92ZM79.8189 19.56L79.7731 20.5589L84.1331 20.7589L84.1789 19.76L84.2247 18.761L79.8647 18.561L79.8189 19.56ZM84.1789 19.76L83.179 19.7484C83.1384 23.2394 83.1357 25.3251 82.8358 26.9371L83.8189 27.12L84.802 27.3029C85.1421 25.4749 85.1394 23.1606 85.1788 19.7716L84.1789 19.76ZM83.8189 27.12L83.5764 28.0901C84.6132 28.3494 85.6947 28.48 86.6589 28.48V27.48V26.48C85.8632 26.48 84.9446 26.3706 84.0614 26.1499L83.8189 27.12ZM86.6589 27.48V28.48C88.7309 28.48 90.759 27.8993 91.803 26.5807L91.0189 25.96L90.2349 25.3393C89.7588 25.9407 88.5069 26.48 86.6589 26.48V27.48ZM91.0189 25.96L91.803 26.5807C92.0059 26.3244 92.2107 26.0492 92.3879 25.6981C92.566 25.3452 92.6974 24.9543 92.8054 24.4657C93.0137 23.5226 93.1573 22.0981 93.3362 19.6736L92.3389 19.6L91.3416 19.5264C91.1605 21.9819 91.0241 23.2574 90.8525 24.0343C90.7704 24.4057 90.6868 24.6298 90.6025 24.7969C90.5172 24.9658 90.4119 25.1156 90.2349 25.3393L91.0189 25.96ZM92.3389 19.6L92.3022 20.5993L96.6622 20.7593L96.6989 19.76L96.7356 18.7607L92.3756 18.6007L92.3389 19.6ZM96.6989 19.76L95.699 19.7467C95.6585 22.7862 95.6577 24.8272 95.4666 26.356L96.4589 26.48L97.4512 26.604C97.6601 24.9328 97.6593 22.7338 97.6988 19.7733L96.6989 19.76ZM96.4589 26.48L95.9599 27.3466C97.4713 28.2168 99.176 28.48 100.339 28.48V27.48V26.48C99.4218 26.48 98.0865 26.2632 96.9579 25.6134L96.4589 26.48ZM100.339 27.48V28.48C101.113 28.48 101.94 28.3559 102.569 27.8238C103.239 27.2583 103.459 26.4328 103.459 25.56H102.459H101.459C101.459 26.1272 101.319 26.2617 101.278 26.2962C101.198 26.3642 100.965 26.48 100.339 26.48V27.48ZM102.459 25.56H103.459C103.459 24.8281 103.325 23.7843 103.105 22.4656C102.883 21.1296 102.56 19.4464 102.16 17.4076L101.179 17.6L100.198 17.7924C100.598 19.8336 100.915 21.4904 101.133 22.7944C101.353 24.1157 101.459 25.0119 101.459 25.56H102.459ZM101.179 17.6L101.497 18.548L106.857 16.748L106.539 15.8L106.221 14.852L100.861 16.652L101.179 17.6ZM106.539 15.8L105.553 15.9662C106.15 19.5106 106.539 23.0449 106.539 24.96H107.539H108.539C108.539 22.8751 108.128 19.2094 107.525 15.6338L106.539 15.8ZM111.72 23.6L110.72 23.6106L110.72 23.6118L111.72 23.6ZM111.52 4.72L111.412 3.72585L110.511 3.82384L110.52 4.73059L111.52 4.72ZM117.04 4.12L118.04 4.11788L118.038 3.00567L116.932 3.12585L117.04 4.12ZM117.08 23.04H118.08L118.08 23.0379L117.08 23.04ZM121.16 34V33C117.826 33 115.826 32.1371 114.611 30.6916C113.361 29.2042 112.759 26.892 112.72 23.5882L111.72 23.6L110.72 23.6118C110.761 27.068 111.38 29.9558 113.08 31.9784C114.815 34.0429 117.495 35 121.16 35V34ZM111.72 23.6L112.72 23.5894L112.52 4.7094L111.52 4.72L110.52 4.73059L110.72 23.6106L111.72 23.6ZM111.52 4.72L111.628 5.71414L117.148 5.11414L117.04 4.12L116.932 3.12585L111.412 3.72585L111.52 4.72ZM117.04 4.12L116.04 4.12211L116.08 23.0421L117.08 23.04L118.08 23.0379L118.04 4.11788L117.04 4.12ZM117.08 23.04H116.08C116.08 23.9941 116.13 24.8189 116.278 25.5122C116.428 26.213 116.691 26.8429 117.164 27.3421C118.102 28.334 119.553 28.48 121.16 28.48V27.48V26.48C119.488 26.48 118.899 26.266 118.617 25.9679C118.479 25.8221 118.337 25.5745 118.234 25.0941C118.13 24.6061 118.08 23.9459 118.08 23.04H117.08ZM121.16 27.48V28.48C122.256 28.48 123.28 29.4795 123.28 30.72H124.28H125.28C125.28 28.4405 123.425 26.48 121.16 26.48V27.48ZM124.28 30.72H123.28C123.28 31.9767 122.24 33 121.16 33V34V35C123.44 35 125.28 32.9833 125.28 30.72H124.28ZM134.352 23.8L135.352 23.7759L135.352 23.7744L134.352 23.8ZM129.232 24.2H128.232V24.2086L128.232 24.2172L129.232 24.2ZM127.432 15.2L127.093 14.2592L126.231 14.5699L126.466 15.4561L127.432 15.2ZM132.872 13.24L133.849 13.0254L133.605 11.9132L132.533 12.2992L132.872 13.24ZM130.112 37.32V36.32H129.686L129.391 36.6273L130.112 37.32ZM130.272 37.32L130.958 36.592L130.669 36.32H130.272V37.32ZM133.712 40.56H134.712V40.1281L134.398 39.8321L133.712 40.56ZM133.712 40.72L134.436 41.4099L134.712 41.1202V40.72H133.712ZM130.472 44.12V45.12H130.901L131.196 44.8099L130.472 44.12ZM130.312 44.12L129.624 44.8453L129.913 45.12H130.312V44.12ZM127.952 41.88L128.641 41.1547L127.92 40.4704L127.231 41.1873L127.952 41.88ZM125.032 44.92V45.92H125.458L125.754 45.6127L125.032 44.92ZM124.872 44.92L124.182 45.6437L124.472 45.92H124.872V44.92ZM121.432 41.64H120.432V42.0682L120.742 42.3637L121.432 41.64ZM121.432 41.48L120.713 40.7859L120.432 41.0764V41.48H121.432ZM124.672 38.12V37.12H124.247L123.952 37.4259L124.672 38.12ZM124.832 38.12L125.521 37.3947L125.231 37.12H124.832V38.12ZM127.192 40.36L126.504 41.0853L127.225 41.7696L127.914 41.0527L127.192 40.36ZM127.912 44.16V43.16H127.487L127.192 43.4667L127.912 44.16ZM128.072 44.16L128.752 43.4262L128.464 43.16H128.072V44.16ZM131.312 47.16H132.312V46.7231L131.992 46.4262L131.312 47.16ZM131.312 47.32L132.037 48.0088L132.312 47.7193V47.32H131.312ZM128.272 50.52V51.52H128.702L128.997 51.2088L128.272 50.52ZM128.112 50.52L127.428 51.2493L127.717 51.52H128.112V50.52ZM124.872 47.48H123.872V47.913L124.188 48.2093L124.872 47.48ZM124.872 47.32L124.152 46.6267L123.872 46.9171V47.32H124.872ZM134.352 23.8L133.353 23.8241C133.427 26.8916 132.431 29.1159 130.547 30.6056C128.619 32.1304 125.617 33 121.472 33V34V35C125.848 35 129.366 34.0896 131.788 32.1744C134.254 30.2241 135.438 27.3484 135.352 23.7759L134.352 23.8ZM121.472 34V33H121.152V34V35H121.472V34ZM121.152 34V33C120.008 33 119.032 31.9938 119.032 30.72H118.032H117.032C117.032 32.9662 118.776 35 121.152 35V34ZM118.032 30.72H119.032C119.032 29.4943 120.001 28.48 121.152 28.48V27.48V26.48C118.784 26.48 117.032 28.5057 117.032 30.72H118.032ZM121.152 27.48V28.48H121.392V27.48V26.48H121.152V27.48ZM121.392 27.48V28.48C123.963 28.48 126.09 28.2417 127.603 27.639C128.369 27.3335 129.039 26.9108 129.516 26.3196C130.009 25.7103 130.246 24.9833 130.232 24.1828L129.232 24.2L128.232 24.2172C128.239 24.5767 128.141 24.8397 127.961 25.0629C127.766 25.3042 127.426 25.5565 126.862 25.781C125.715 26.2383 123.901 26.48 121.392 26.48V27.48ZM129.232 24.2H130.232C130.232 22.1624 129.628 19.5842 128.399 14.9439L127.432 15.2L126.466 15.4561C127.716 20.1758 128.232 22.4776 128.232 24.2H129.232ZM127.432 15.2L127.771 16.1408L133.211 14.1808L132.872 13.24L132.533 12.2992L127.093 14.2592L127.432 15.2ZM132.872 13.24L131.896 13.4546C133.046 18.6913 133.275 20.786 133.353 23.8256L134.352 23.8L135.352 23.7744C135.27 20.574 135.019 18.3487 133.849 13.0254L132.872 13.24ZM130.112 37.32V38.32H130.272V37.32V36.32H130.112V37.32ZM130.272 37.32L129.587 38.048L133.027 41.288L133.712 40.56L134.398 39.8321L130.958 36.592L130.272 37.32ZM133.712 40.56H132.712V40.72H133.712H134.712V40.56H133.712ZM133.712 40.72L132.988 40.0301L129.748 43.4301L130.472 44.12L131.196 44.8099L134.436 41.4099L133.712 40.72ZM130.472 44.12V43.12H130.312V44.12V45.12H130.472V44.12ZM130.312 44.12L131.001 43.3947L128.641 41.1547L127.952 41.88L127.264 42.6053L129.624 44.8453L130.312 44.12ZM127.952 41.88L127.231 41.1873L124.311 44.2273L125.032 44.92L125.754 45.6127L128.674 42.5727L127.952 41.88ZM125.032 44.92V43.92H124.872V44.92V45.92H125.032V44.92ZM124.872 44.92L125.562 44.1963L122.122 40.9163L121.432 41.64L120.742 42.3637L124.182 45.6437L124.872 44.92ZM121.432 41.64H122.432V41.48H121.432H120.432V41.64H121.432ZM121.432 41.48L122.152 42.1741L125.392 38.8141L124.672 38.12L123.952 37.4259L120.713 40.7859L121.432 41.48ZM124.672 38.12V39.12H124.832V38.12V37.12H124.672V38.12ZM124.832 38.12L124.144 38.8453L126.504 41.0853L127.192 40.36L127.881 39.6347L125.521 37.3947L124.832 38.12ZM127.192 40.36L127.914 41.0527L130.834 38.0127L130.112 37.32L129.391 36.6273L126.471 39.6673L127.192 40.36ZM127.912 44.16V45.16H128.072V44.16V43.16H127.912V44.16ZM128.072 44.16L127.393 44.8938L130.633 47.8938L131.312 47.16L131.992 46.4262L128.752 43.4262L128.072 44.16ZM131.312 47.16H130.312V47.32H131.312H132.312V47.16H131.312ZM131.312 47.32L130.587 46.6313L127.547 49.8313L128.272 50.52L128.997 51.2088L132.037 48.0088L131.312 47.32ZM128.272 50.52V49.52H128.112V50.52V51.52H128.272V50.52ZM128.112 50.52L128.797 49.7907L125.557 46.7507L124.872 47.48L124.188 48.2093L127.428 51.2493L128.112 50.52ZM124.872 47.48H125.872V47.32H124.872H123.872V47.48H124.872ZM124.872 47.32L125.593 48.0133L128.633 44.8533L127.912 44.16L127.192 43.4667L124.152 46.6267L124.872 47.32Z" fill="#FFE166" mask="url(#path-1-outside-1_1451_280)"/>
</svg>
