<svg width="104" height="104" viewBox="0 0 104 104" fill="none" xmlns="http://www.w3.org/2000/svg">
<g filter="url(#filter0_d_1040_2424)">
<rect x="16" y="6" width="80" height="80" rx="40" fill="#10069F" shape-rendering="crispEdges"/>
<path d="M79 59C79.5523 59 80 59.4477 80 60C80 60.5523 79.5523 61 79 61H30C29.4477 61 29 60.5523 29 60C29 59.4477 29.4477 59 30 59H79ZM61 49.5C61.5523 49.5 62 49.9477 62 50.5C62 51.0523 61.5523 51.5 61 51.5H30C29.4477 51.5 29 51.0523 29 50.5C29 49.9477 29.4477 49.5 30 49.5H61ZM55 40C55.5523 40 56 40.4477 56 41C56 41.5523 55.5523 42 55 42H30C29.4477 42 29 41.5523 29 41C29 40.4477 29.4477 40 30 40H55Z" fill="#FFCD00"/>
<path d="M71 36C71 34.9391 70.5783 33.922 69.8281 33.1719C69.078 32.4217 68.0609 32 67 32C65.9391 32 64.922 32.4217 64.1719 33.1719C63.4217 33.922 63 34.9391 63 36C63 37.1497 63.1531 38.7122 64.667 40.251L72.0264 45.7695C72.1446 45.6883 72.2792 45.5975 72.4258 45.4961C73.0305 45.0779 73.8551 44.5011 74.7354 43.8691C76.5252 42.5841 78.4528 41.1331 79.293 40.293C80.845 38.7409 81 37.16 81 36C81 34.9391 80.5783 33.922 79.8281 33.1719C79.078 32.4217 78.0609 32 77 32C75.9391 32 74.922 32.4217 74.1719 33.1719C73.4217 33.922 73 34.9391 73 36C73 36.5523 72.5523 37 72 37C71.4477 37 71 36.5523 71 36ZM83 36C83 37.416 82.7916 39.6225 80.707 41.707C79.729 42.6851 77.6568 44.2338 75.9014 45.4941C75.009 46.1348 74.1747 46.7179 73.5635 47.1406C73.2577 47.3521 73.007 47.5237 72.833 47.6426C72.7462 47.7019 72.6781 47.7478 72.6318 47.7793C72.6088 47.795 72.5911 47.8073 72.5791 47.8154C72.5731 47.8195 72.5686 47.8231 72.5654 47.8252C72.5639 47.8262 72.5623 47.8266 72.5615 47.8271L72.5605 47.8281C72.2074 48.067 71.7415 48.0556 71.4004 47.7998L63.4004 41.7998C63.3625 41.7714 63.3264 41.7405 63.293 41.707C61.2084 39.6225 61 37.416 61 36C61 34.4087 61.6326 32.883 62.7578 31.7578C63.883 30.6326 65.4087 30 67 30C68.5913 30 70.117 30.6326 71.2422 31.7578C71.5268 32.0425 71.7807 32.3521 72 32.6826C72.2193 32.3521 72.4732 32.0425 72.7578 31.7578C73.883 30.6326 75.4087 30 77 30C78.5913 30 80.117 30.6326 81.2422 31.7578C82.3674 32.883 83 34.4087 83 36Z" fill="#FFCD00"/>
</g>
<defs>
<filter id="filter0_d_1040_2424" x="0" y="0" width="104" height="104" filterUnits="userSpaceOnUse" color-interpolation-filters="sRGB">
<feFlood flood-opacity="0" result="BackgroundImageFix"/>
<feColorMatrix in="SourceAlpha" type="matrix" values="0 0 0 0 0 0 0 0 0 0 0 0 0 0 0 0 0 0 127 0" result="hardAlpha"/>
<feOffset dx="-4" dy="6"/>
<feGaussianBlur stdDeviation="6"/>
<feComposite in2="hardAlpha" operator="out"/>
<feColorMatrix type="matrix" values="0 0 0 0 0 0 0 0 0 0 0 0 0 0 0 0 0 0 0.15 0"/>
<feBlend mode="normal" in2="BackgroundImageFix" result="effect1_dropShadow_1040_2424"/>
<feBlend mode="normal" in="SourceGraphic" in2="effect1_dropShadow_1040_2424" result="shape"/>
</filter>
</defs>
</svg>
