<svg width="127" height="117" viewBox="0 0 127 117" fill="none" xmlns="http://www.w3.org/2000/svg">
<path d="M79.4389 59.6397C79.4389 59.6397 104.93 66.0256 109.332 33.8953C111.39 18.8777 104.166 19.5805 98.2845 20.017C91.4665 20.5211 78.9478 30.3925 77.8456 33.4806C77.8456 33.4806 84.8274 20.8136 78.256 3.76196C76.4794 -0.845231 68.0246 4.37305 62.5335 10.3312C52.7036 20.9925 56.2894 42.4528 61.9114 45.8007C69.8272 50.517 79.4389 59.6397 79.4389 59.6397Z" fill="#FFD100" stroke="#0A1F8F" stroke-width="2.39" stroke-linecap="round" stroke-linejoin="round"/>
<path d="M79.8598 56.6493C79.8598 56.6493 97.1733 46.7213 109.679 52.5899C122.184 58.4564 131.442 79.2968 119.36 89.7617C103.956 103.101 112.518 79.7267 112.651 73.5612C112.651 73.5612 95.6325 70.0191 88.223 78.4893C80.8113 86.9616 79.8598 56.6471 79.8598 56.6471V56.6493Z" fill="#FFD100" stroke="#0A1F8F" stroke-width="2.39" stroke-linecap="round" stroke-linejoin="round"/>
<path d="M81.859 55.6189C85.9883 53.6198 95.8159 49.5473 104.749 51.0729C110.687 55.0384 112.407 63.4518 111.848 73.4192C108.398 72.8474 94.6701 71.1188 88.2209 78.4934C86.6321 80.3092 85.3422 80.3398 84.2925 79.2725C84.2379 79.1329 78.605 64.7264 81.8569 55.6189H81.859Z" fill="#FDB913" stroke="#0A1F8F" stroke-width="2.39" stroke-linecap="round" stroke-linejoin="round"/>
<path d="M101.671 72.9346C101.671 72.9346 97.0773 61.9852 86.4421 53.7136C85.9096 53.299 90.3225 52.6377 89.7507 52.2994C77.71 45.1955 76.9855 37.2076 71.3765 26.651C66.0557 16.6379 58.4869 16.9129 58.4869 16.9129L51.479 36.7559L85.5015 71.7386L96.9114 74.0935L101.671 72.9303V72.9346Z" fill="#231F20"/>
<path d="M84.4739 53.2862C80.301 49.2596 76.82 44.4821 74.2752 39.1809C69.2425 28.6963 60.1721 14.9533 43.2885 17.9542C20.102 22.0747 3.34719 58.092 2.101 79.1703C0.854813 100.246 11.2782 111.927 26.9986 114.465C36.6211 116.019 96.9685 115.958 100.991 87.6885C103.599 69.3557 90.6394 59.2378 84.4739 53.2884V53.2862Z" fill="#FDB913" stroke="#0A1F8F" stroke-width="2.39" stroke-linecap="round" stroke-linejoin="round"/>
<path d="M69.9493 42.8086C69.9493 42.8086 78.8516 46.868 85.1938 53.9959" stroke="#0A1F8F" stroke-width="2.39" stroke-linecap="round" stroke-linejoin="round"/>
<path d="M112.651 73.561C112.651 73.561 116.176 50.2632 99.7678 50.7477" stroke="#0A1F8F" stroke-width="2.39" stroke-linecap="round" stroke-linejoin="round"/>
<path d="M109.657 73.1168C109.657 73.1168 116.953 53.1297 101.606 50.7988C101.606 50.7988 113.182 50.7486 112.959 69.555L112.654 73.562L109.659 73.1168H109.657Z" fill="#0A1F8F" stroke="#0A1F8F" stroke-width="2.39" stroke-linecap="round" stroke-linejoin="round"/>
<g style="mix-blend-mode:overlay" opacity="0.6">
<path d="M112.173 92.6105C112.167 92.641 112.16 92.6716 112.152 92.6999C113.439 93.0186 115.622 92.0212 119.151 88.9679C128.001 81.3031 124.627 67.6954 117.132 59.498C120.646 66.0367 123.404 77.7544 112.328 92.7349L112.173 92.6105Z" fill="white"/>
</g>
<path d="M101.922 21.562C102.684 20.9662 107.485 20.4272 108.544 25.5603C109.707 31.2085 107.057 39.9493 105.61 44.0917C105.434 44.6002 104.788 44.3972 104.792 43.8341C104.836 39.1244 104.731 29.2531 103.216 25.1216C102.236 22.4481 101.097 22.2059 101.922 21.562Z" fill="#FFD100"/>
<g style="mix-blend-mode:overlay" opacity="0.79">
<path d="M82.6339 58.3627C83.3214 58.7774 83.8517 57.6621 83.2275 57.1122C78.8298 53.247 72.3566 48.1291 68.0724 47.2911C63.0986 46.3155 75.1698 53.8712 82.6339 58.3627Z" fill="#FFD100"/>
</g>
<g style="mix-blend-mode:overlay" opacity="0.79">
<path d="M62.14 26.2429C55.6756 19.3419 38.4122 17.31 20.7669 37.3887C20.1668 38.0718 20.9372 39.4774 21.7818 39.2417L62.0047 27.9976C62.6267 27.823 62.6987 26.8387 62.14 26.2407V26.2429Z" fill="#FFD100"/>
</g>
<path d="M84.4739 53.2862C80.301 49.2596 76.82 44.4821 74.2752 39.1809C69.2425 28.6963 60.1721 14.9533 43.2885 17.9542C20.102 22.0747 3.34719 58.092 2.101 79.1703C0.854809 100.246 11.2782 111.927 26.9986 114.465C36.6211 116.019 96.9685 115.958 100.991 87.6885C103.599 69.3557 90.6394 59.2378 84.4739 53.2884V53.2862Z" stroke="#0A1F8F" stroke-width="2.39" stroke-linecap="round" stroke-linejoin="round"/>
<g style="mix-blend-mode:overlay" opacity="0.79">
<path d="M42.9408 28.1625C40.767 29.9107 39.6758 32.2394 40.503 33.3655C41.3301 34.4917 43.7614 33.9897 45.9351 32.2416C48.1088 30.4934 49.2001 28.1647 48.3729 27.0386C47.5457 25.9124 45.1145 26.4144 42.9408 28.1625Z" fill="white"/>
<path d="M53.6243 42.7563C51.4506 44.5044 50.3594 46.8331 51.1865 47.9593C52.0137 49.0854 54.4449 48.5835 56.6186 46.8353C58.7924 45.0871 59.8837 42.7585 59.0565 41.6323C58.2293 40.5062 55.798 41.0081 53.6243 42.7563Z" fill="white"/>
<path d="M64.8724 58.6684C62.6986 60.4165 61.6074 62.7452 62.4346 63.8714C63.2617 64.9976 65.693 64.4956 67.8667 62.7474C70.0404 60.9993 71.1317 58.6706 70.3045 57.5444C69.4774 56.4183 67.0461 56.9202 64.8724 58.6684Z" fill="white"/>
<path d="M77.0116 75.1606C74.8378 76.9087 73.7465 79.2374 74.5737 80.3636C75.4009 81.4897 77.8322 80.9878 80.0059 79.2396C82.1796 77.4914 83.2709 75.1628 82.4437 74.0366C81.6165 72.9104 79.1853 73.4124 77.0116 75.1606Z" fill="white"/>
<path d="M82.2529 97.4859C81.4402 96.3467 82.6167 94.114 84.8805 92.4993C87.1443 90.8845 89.6383 90.499 90.4509 91.6383C91.2636 92.7776 90.0872 95.0102 87.8233 96.625C85.5595 98.2398 83.0655 98.6252 82.2529 97.4859Z" fill="white"/>
<path d="M57.4197 81.7615C56.7504 80.951 57.5814 79.1598 59.2757 77.7607C60.97 76.3615 62.886 75.8842 63.5553 76.6947C64.2245 77.5051 63.3936 79.2964 61.6993 80.6955C60.005 82.0947 58.0889 82.5719 57.4197 81.7615Z" fill="white"/>
<path d="M66.7626 96.8674C66.3199 95.9062 67.5674 94.387 69.549 93.4744C71.5306 92.5617 73.4959 92.601 73.9386 93.5623C74.3813 94.5235 73.1338 96.0426 71.1522 96.9553C69.1706 97.868 67.2053 97.8286 66.7626 96.8674Z" fill="white"/>
<path d="M45.9148 66.1599C45.2455 65.3495 46.0765 63.5583 47.7708 62.1591C49.4651 60.7599 51.3811 60.2827 52.0504 61.0931C52.7197 61.9036 51.8887 63.6948 50.1944 65.0939C48.5001 66.4931 46.5841 66.9704 45.9148 66.1599Z" fill="white"/>
<path d="M36.4284 48.9002C35.7592 48.0897 36.5901 46.2985 38.2844 44.8993C39.9787 43.5001 41.8948 43.0229 42.5641 43.8334C43.2333 44.6438 42.4024 46.435 40.7081 47.8342C39.0138 49.2334 37.0977 49.7106 36.4284 48.9002Z" fill="white"/>
<path d="M27.6418 35.2048C26.9726 34.3944 27.8035 32.6032 29.4978 31.204C31.1921 29.8049 33.1082 29.3276 33.7775 30.138C34.4467 30.9485 33.6158 32.7397 31.9215 34.1389C30.2272 35.538 28.3111 36.0153 27.6418 35.2048Z" fill="white"/>
<path d="M25.0948 50.4637C24.0473 51.9827 23.7396 53.6522 24.4118 54.1957C25.0818 54.7369 26.4764 53.9469 27.5261 52.4279C28.5737 50.9089 28.8814 49.2393 28.2092 48.6959C27.5392 48.1546 26.1446 48.9447 25.0948 50.4637Z" fill="white"/>
<path d="M33.4562 62.8758C32.4086 64.3948 32.1009 66.0644 32.7731 66.6078C33.4431 67.149 34.8377 66.359 35.8874 64.84C36.935 63.321 37.2428 61.6514 36.5706 61.108C35.9006 60.5667 34.506 61.3568 33.4562 62.8758Z" fill="white"/>
<path d="M42.3818 80.7027C41.8244 80.0282 42.5053 78.5452 43.9027 77.3904C45.3002 76.2356 46.8849 75.8462 47.4423 76.5208C47.9998 77.1954 47.3188 78.6783 45.9214 79.8332C44.524 80.988 42.9393 81.3773 42.3818 80.7027Z" fill="white"/>
<path d="M29.6162 79.0546C29.0799 78.4252 29.4594 77.221 30.4639 76.3649C31.4684 75.5088 32.7176 75.3249 33.2539 75.9543C33.7903 76.5836 33.4108 77.7878 32.4062 78.6439C31.4017 79.5 30.1526 79.6839 29.6162 79.0546Z" fill="white"/>
<path d="M18.5934 77.6966C17.8164 78.6481 17.5611 79.7699 18.0238 80.202C18.4843 80.6342 19.4882 80.213 20.2652 79.2592C21.0421 78.3077 21.2975 77.1859 20.8348 76.7537C20.3743 76.3216 19.3703 76.7428 18.5934 77.6966Z" fill="white"/>
<path d="M26.419 92.694C26.0465 92.1735 26.5424 91.1807 27.5265 90.4764C28.5106 89.7721 29.6103 89.623 29.9828 90.1435C30.3553 90.664 29.8595 91.6569 28.8754 92.3612C27.8912 93.0655 26.7915 93.2145 26.419 92.694Z" fill="white"/>
<path d="M16.0077 94.596C15.5503 94.1569 15.865 93.0869 16.7106 92.2061C17.5562 91.3252 18.6124 90.9671 19.0698 91.4062C19.5272 91.8452 19.2125 92.9152 18.3669 93.7961C17.5213 94.6769 16.4651 95.035 16.0077 94.596Z" fill="white"/>
<path d="M22.4126 64.9321C21.6946 66.0713 21.6378 67.3874 22.2904 67.8741C22.9408 68.3607 24.0516 67.8326 24.7718 66.6933C25.4899 65.5541 25.5466 64.2381 24.8941 63.7514C24.2437 63.2647 23.1328 63.7928 22.4126 64.9321Z" fill="white"/>
<path d="M10.0053 64.1384C9.49463 65.437 9.6583 66.7552 10.3698 67.0826C11.0813 67.4099 12.0721 66.6264 12.5806 65.3278C13.0913 64.0293 12.9276 62.7111 12.2161 62.3837C11.5047 62.0541 10.5138 62.8398 10.0053 64.1384Z" fill="white"/>
<path d="M13.6128 48.3468C13.0344 49.5995 13.1282 50.9221 13.8245 51.304C14.5207 51.6838 15.5529 50.9766 16.1313 49.7239C16.7096 48.4712 16.6158 47.1486 15.9196 46.7667C15.2234 46.3869 14.1911 47.094 13.6128 48.3468Z" fill="white"/>
<path d="M38.1768 92.8456C37.6404 92.2163 38.02 91.012 39.0245 90.1559C40.029 89.2998 41.2781 89.116 41.8145 89.7453C42.3508 90.3746 41.9713 91.5788 40.9668 92.4349C39.9623 93.291 38.7131 93.4749 38.1768 92.8456Z" fill="white"/>
<path d="M35.6955 105.745C35.3451 104.99 36.0246 103.93 37.2132 103.379C38.4018 102.828 39.6494 102.993 39.9998 103.749C40.3502 104.505 39.6707 105.564 38.4821 106.115C37.2935 106.667 36.0459 106.501 35.6955 105.745Z" fill="white"/>
<path d="M50.3966 95.0331C49.9943 94.2492 50.9678 92.9467 52.5709 92.1239C54.1741 91.301 55.7998 91.2694 56.2022 92.0533C56.6045 92.8372 55.6311 94.1397 54.0279 94.9625C52.4248 95.7854 50.799 95.817 50.3966 95.0331Z" fill="white"/>
</g>
</svg>
