<svg width="18" height="18" viewBox="0 0 18 18" fill="none" xmlns="http://www.w3.org/2000/svg">
<path d="M4.4752 5.18596e-07C4.06447 -0.000246441 3.65847 0.0877126 3.28467 0.257929C2.91086 0.428146 2.57797 0.67665 2.30849 0.986637C0.262161 3.03754 -0.338576 5.34494 0.172163 7.66584C0.667153 9.91024 2.17237 12.0455 4.06008 13.9344C5.95004 15.8233 8.08412 17.3297 10.3262 17.8258C12.6459 18.3388 14.9555 17.7437 17.0086 15.7052C17.3197 15.4353 17.5692 15.1018 17.7403 14.7271C17.9113 14.3525 17.9999 13.9455 18 13.5336C18.0001 13.1217 17.9117 12.7147 17.7409 12.3399C17.57 11.9652 17.3207 11.6315 17.0097 11.3615L15.6485 10.0002C15.081 9.43347 14.3119 9.11512 13.5099 9.11512C12.7079 9.11512 11.9387 9.43347 11.3713 10.0002L10.6772 10.6955C10.593 10.7797 10.493 10.8465 10.383 10.8921C10.273 10.9377 10.155 10.9612 10.036 10.9612C9.91686 10.9612 9.79894 10.9377 9.68891 10.8921C9.57889 10.8465 9.47892 10.7797 9.39472 10.6955L7.30901 8.6086C7.13919 8.4384 7.04382 8.20778 7.04382 7.96734C7.04382 7.72691 7.13919 7.49629 7.30901 7.32609L8.00425 6.62858C8.57134 6.0611 8.8899 5.29165 8.8899 4.48937C8.8899 3.68709 8.57134 2.91764 8.00425 2.35015L6.64303 0.987762C6.37306 0.677997 6.03994 0.429588 5.66603 0.259219C5.29212 0.0888495 4.88609 0.000464643 4.4752 5.18596e-07Z" fill="#FFCD00"/>
</svg>
