<svg width="18" height="14" viewBox="0 0 18 14" fill="none" xmlns="http://www.w3.org/2000/svg">
<path d="M16.2 0H1.8C0.81 0 0.00899999 0.7875 0.00899999 1.75L0 12.25C0 13.2125 0.81 14 1.8 14H16.2C17.19 14 18 13.2125 18 12.25V1.75C18 0.7875 17.19 0 16.2 0ZM15.84 3.71875L9.477 7.58625C9.189 7.76125 8.811 7.76125 8.523 7.58625L2.16 3.71875C2.06975 3.6695 1.99073 3.60295 1.9277 3.52315C1.86467 3.44334 1.81896 3.35193 1.79332 3.25445C1.76768 3.15697 1.76265 3.05544 1.77854 2.95602C1.79443 2.85659 1.8309 2.76134 1.88575 2.67601C1.9406 2.59069 2.01269 2.51707 2.09765 2.45962C2.18262 2.40217 2.27868 2.36207 2.38005 2.34176C2.48141 2.32145 2.58595 2.32135 2.68736 2.34145C2.78876 2.36156 2.88492 2.40147 2.97 2.45875L9 6.125L15.03 2.45875C15.1151 2.40147 15.2112 2.36156 15.3126 2.34145C15.414 2.32135 15.5186 2.32145 15.62 2.34176C15.7213 2.36207 15.8174 2.40217 15.9023 2.45962C15.9873 2.51707 16.0594 2.59069 16.1142 2.67601C16.1691 2.76134 16.2056 2.85659 16.2215 2.95602C16.2373 3.05544 16.2323 3.15697 16.2067 3.25445C16.181 3.35193 16.1353 3.44334 16.0723 3.52315C16.0093 3.60295 15.9302 3.6695 15.84 3.71875Z" fill="#FFCD00"/>
</svg>
