<svg width="46" height="65" viewBox="0 0 46 65" fill="none" xmlns="http://www.w3.org/2000/svg">
<path d="M40.285 2.17851C39.7328 2.18948 39.2758 1.75007 39.2648 1.1979C39.2541 0.645959 39.6931 0.189593 40.2451 0.178623L41.1793 0.165381C42.1187 0.156503 43.075 0.161981 44.0484 0.18242L44.1502 0.189656C44.6534 0.251205 45.0378 0.684898 45.0271 1.20255C45.0155 1.7547 44.5588 2.19377 44.0067 2.18221L43.0587 2.16681C42.1168 2.15647 41.1922 2.16048 40.285 2.17851ZM25.5965 3.94615C25.0599 4.07533 24.5205 3.74513 24.3909 3.20851C24.2614 2.67164 24.591 2.13121 25.1279 2.00166C27.467 1.43729 29.9763 0.991944 32.6575 0.680553C33.2059 0.617049 33.702 1.0098 33.7658 1.55819C33.8295 2.10678 33.4365 2.60377 32.8879 2.66749C30.2817 2.97016 27.8522 3.40191 25.5965 3.94615ZM12.1765 9.64442C11.7211 9.95678 11.0983 9.84076 10.7858 9.38546C10.4734 8.93005 10.5894 8.3072 11.0448 7.99478C13.0321 6.63162 15.2949 5.40496 17.8376 4.34956C18.3477 4.13786 18.9327 4.38027 19.1444 4.89024C19.3562 5.40031 19.1147 5.98557 18.6047 6.19732C16.1804 7.20356 14.0412 8.3654 12.1765 9.64442ZM1.96132 21.2379C1.44157 21.0511 1.17169 20.4785 1.35847 19.9588L1.52327 19.5168C2.37253 17.3112 3.62091 15.1799 5.27602 13.1899L5.34552 13.115C5.70727 12.7601 6.28575 12.7294 6.68383 13.0603C7.10845 13.4135 7.16629 14.0445 6.81313 14.4691L6.51391 14.8358C5.04392 16.68 3.95942 18.6343 3.24045 20.635L3.20086 20.7292C2.98223 21.1866 2.44867 21.413 1.96132 21.2379ZM2.05161 35.3495C1.00759 33.0591 0.387414 30.6523 0.212458 28.2156L0.182852 27.7283L0.18326 27.6254C0.210771 27.1195 0.617552 26.7065 1.13459 26.6821C1.68626 26.6559 2.15472 27.0821 2.18084 27.6338C2.2917 29.9748 2.85993 32.3011 3.87129 34.5199L2.96112 34.9341L2.05161 35.3495ZM13.4524 38.6567C12.9826 38.9469 12.3659 38.8012 12.0755 38.3315C11.7852 37.8618 11.931 37.245 12.4007 36.9547C13.5962 36.2155 14.9428 35.5787 16.433 35.0508C18.0839 34.4661 19.5896 34.3889 20.9072 34.7407L21.0048 34.7722C21.4787 34.9518 21.7489 35.4647 21.6153 35.9649C21.4727 36.4984 20.9247 36.8155 20.3911 36.673L20.0575 36.599C19.2527 36.4548 18.2723 36.5213 17.1011 36.9361C15.73 37.4218 14.5142 38.0002 13.4524 38.6567ZM20.8049 48.8076C20.3016 48.8674 19.8243 48.5377 19.7116 48.0324C19.5913 47.4933 19.9312 46.9584 20.4702 46.8382L20.673 46.7881C22.6058 46.2538 23.6828 44.4313 23.773 42.2819L23.777 41.8323L23.7802 41.7303C23.8206 41.2251 24.2381 40.8226 24.7557 40.8115C25.2734 40.8005 25.7077 41.1851 25.7695 41.6882L25.7765 41.7903L25.7781 42.0692C25.7462 44.9629 24.2643 48.0405 20.906 48.7901L20.8049 48.8076ZM3.37623 35.8445C2.87384 36.0735 2.28081 35.8517 2.05161 35.3495L3.87129 34.5199C4.10009 35.0223 3.87854 35.6155 3.37623 35.8445ZM7.5358 53.4804C7.03436 53.6093 6.52353 53.334 6.34837 52.8584L6.31865 52.7607L6.17292 52.1578C5.50095 49.1572 5.61944 46.3241 6.55953 43.7945L6.60006 43.7007C6.82362 43.2456 7.36042 43.0247 7.84585 43.2051C7.87126 43.2145 7.89554 43.2263 7.91971 43.2375C7.40512 42.7733 6.91469 42.2955 6.4492 41.805C6.06912 41.4045 6.08529 40.7714 6.48567 40.3912C6.86133 40.0347 7.44157 40.0267 7.82582 40.3575L7.89954 40.4276L8.2066 40.7456C8.93154 41.4819 9.72069 42.1885 10.5731 42.8601C11.5554 43.6341 12.4783 44.2817 13.3425 44.8156L13.7091 45.0373L13.7951 45.0938C14.2027 45.3948 14.3239 45.9614 14.0604 46.4068C13.779 46.8819 13.1659 47.0392 12.6908 46.7581C11.636 46.1332 10.5178 45.3626 9.33569 44.4312C8.99561 44.1633 8.66476 43.8895 8.34269 43.6108C8.50256 43.8652 8.54714 44.1877 8.43438 44.4911L8.28643 44.9177C7.6368 46.9263 7.56321 49.213 8.12513 51.7211L8.25485 52.262L8.27539 52.3631C8.35124 52.8641 8.03716 53.3514 7.5358 53.4804ZM13.9684 64.4097C13.5396 64.7577 12.9102 64.692 12.5621 64.2633C11.6037 63.0832 10.7461 61.9107 9.98998 60.7496C9.6886 60.2868 9.81971 59.6674 10.2825 59.366C10.7453 59.0646 11.3648 59.1957 11.6661 59.6585C12.2025 60.4821 12.7954 61.3159 13.4454 62.1581L14.1138 63.0031L14.1746 63.0857C14.4526 63.5094 14.3703 64.0833 13.9684 64.4097Z" fill="#10069F"/>
</svg>
