<svg width="28" height="23" viewBox="0 0 28 23" fill="none" xmlns="http://www.w3.org/2000/svg">
<path d="M2.30106 4.63072C2.51532 4.50609 2.58802 4.23097 2.46339 4.01672C2.3387 3.80261 2.0639 3.73009 1.84971 3.85468L1.48847 4.06757C1.12625 4.28336 0.76089 4.5086 0.392482 4.74355L0.355121 4.77009C0.176566 4.91109 0.130402 5.16705 0.255277 5.36302C0.388556 5.572 0.666091 5.63378 0.875075 5.50052L1.23493 5.27342C1.59365 5.04967 1.94903 4.83549 2.30106 4.63072ZM8.34489 1.88113C8.58078 1.80544 8.71054 1.55298 8.635 1.31702C8.55939 1.08097 8.3069 0.950696 8.07085 1.02629C7.04238 1.35571 5.97645 1.77045 4.87585 2.27668C4.65078 2.38029 4.5522 2.64664 4.6557 2.87177C4.75927 3.09696 5.02593 3.19579 5.25112 3.09221C6.32092 2.60015 7.35311 2.1988 8.34489 1.88113ZM14.8196 0.934474C15.067 0.947976 15.2787 0.758162 15.2923 0.510704C15.3058 0.263215 15.116 0.0514796 14.8685 0.037958C13.7885 -0.0209592 12.6348 0.0367367 11.4137 0.225405C11.1687 0.263248 11.001 0.492681 11.0388 0.737614C11.0767 0.982563 11.3058 1.15061 11.5507 1.11279C12.715 0.93291 13.8062 0.879197 14.8196 0.934474ZM21.441 2.99575C21.5967 2.80287 21.5666 2.52037 21.3737 2.36468L21.2074 2.2337C20.3672 1.58626 19.3913 1.06041 18.2924 0.683672L18.2483 0.671161C18.0268 0.619502 17.7978 0.742732 17.7224 0.96248C17.642 1.19695 17.7671 1.45236 18.0015 1.53275L18.2018 1.60354C19.1957 1.96758 20.0675 2.4638 20.81 3.06308L20.8471 3.08994C21.0377 3.21429 21.2951 3.17659 21.441 2.99575ZM24.6991 8.42703C24.5649 7.30532 24.2411 6.23789 23.7397 5.26286L23.6373 5.06913L23.6131 5.02978C23.4845 4.84224 23.2322 4.77883 23.0283 4.89008C22.8107 5.00879 22.7305 5.28149 22.8492 5.49909C23.353 6.42247 23.6779 7.44694 23.8079 8.53358L24.2535 8.48L24.6991 8.42703ZM21.0999 12.3551C21.3477 12.3568 21.5501 12.157 21.5518 11.9092C21.5535 11.6614 21.3538 11.4589 21.1059 11.4572C20.4751 11.4528 19.8103 11.5228 19.1158 11.6682C18.3464 11.8292 17.7511 12.1509 17.3281 12.5932L17.298 12.6281C17.1582 12.8075 17.1743 13.0672 17.3422 13.2278C17.5213 13.399 17.8055 13.3928 17.9768 13.2136L18.0874 13.1074C18.3623 12.8643 18.7537 12.6611 19.2995 12.5468C19.9385 12.4131 20.5396 12.3512 21.0999 12.3551ZM20.6495 17.9624C20.8564 17.8679 20.9625 17.6302 20.8878 17.4101C20.8081 17.1754 20.553 17.0496 20.3183 17.1293L20.2289 17.1574C19.3632 17.4036 18.525 16.9561 17.9889 16.1531L17.8825 15.9817L17.8575 15.9433C17.7241 15.7591 17.4701 15.7022 17.2691 15.8187C17.068 15.9353 16.9913 16.184 17.085 16.3913L17.1061 16.4321L17.1706 16.5394C17.858 17.6414 19.1442 18.4755 20.6066 17.9793L20.6495 17.9624ZM24.3068 8.92591C24.5528 8.89648 24.7284 8.67307 24.6991 8.42703L23.8079 8.53358C23.8374 8.77958 24.0607 8.95529 24.3068 8.92591ZM26.827 16.6578C27.0494 16.5903 27.181 16.3655 27.1371 16.1423L27.1257 16.0979L27.0409 15.8328C26.5984 14.5256 25.892 13.4671 24.9413 12.7166L24.9039 12.6901C24.712 12.5678 24.4546 12.6083 24.3106 12.7908C24.3031 12.8003 24.2965 12.8105 24.2899 12.8204C24.3788 12.5224 24.4554 12.2248 24.5194 11.9281C24.5717 11.6859 24.4177 11.4469 24.1755 11.3946C23.9483 11.3455 23.724 11.4779 23.6539 11.6943L23.642 11.7384L23.5984 11.932C23.4923 12.3834 23.3546 12.8385 23.1845 13.2949C22.9885 13.8208 22.7858 14.2844 22.5791 14.6907L22.4902 14.8613L22.4704 14.903C22.3844 15.1135 22.4701 15.359 22.6751 15.4683C22.8938 15.5848 23.1656 15.5021 23.2821 15.2834C23.5408 14.7977 23.7896 14.2414 24.0255 13.6085C24.0934 13.4264 24.1564 13.2442 24.2148 13.0622C24.2129 13.1971 24.271 13.3311 24.385 13.4211L24.5413 13.5502C25.259 14.1687 25.8208 15.0282 26.1906 16.1209L26.2671 16.3585L26.2828 16.402C26.3706 16.6118 26.6047 16.7254 26.827 16.6578ZM26.911 22.3489C27.1566 22.3823 27.3825 22.2103 27.416 21.9647C27.5081 21.2886 27.5633 20.639 27.5823 20.0174C27.5898 19.7697 27.395 19.5628 27.1473 19.5552C26.8995 19.5477 26.6926 19.7424 26.6851 19.9902C26.6716 20.4311 26.6388 20.8891 26.5861 21.3637L26.5271 21.8436L26.523 21.8894C26.5153 22.1168 26.6808 22.3176 26.911 22.3489Z" fill="#10069F"/>
</svg>
