<svg width="20" height="20" viewBox="0 0 20 20" fill="none" xmlns="http://www.w3.org/2000/svg">
<path d="M13.6357 1.22363C11.8998 0.5046 9.9893 0.316058 8.14648 0.682617C6.30373 1.0492 4.61078 1.95367 3.28223 3.28223C1.95367 4.61078 1.0492 6.30373 0.682617 8.14648C0.316057 9.9893 0.504601 11.8998 1.22363 13.6357C1.94267 15.3714 3.15956 16.8556 4.72168 17.8994C6.28395 18.9433 8.12108 19.5 10 19.5C11.5704 19.5 13.0515 19.1184 14.3555 18.4443C14.4317 18.4049 14.5168 18.386 14.6016 18.3887L14.6865 18.3994L19.3574 19.3564L18.3994 14.6865C18.3764 14.5744 18.3918 14.4571 18.4443 14.3555C19.1195 13.0505 19.5 11.5717 19.5 10C19.5 8.12108 18.9433 6.28395 17.8994 4.72168C16.8556 3.15956 15.3714 1.94267 13.6357 1.22363Z" stroke="black" stroke-linecap="round" stroke-linejoin="round"/>
</svg>
