<svg width="73" height="167" viewBox="0 0 73 167" fill="none" xmlns="http://www.w3.org/2000/svg">
<path d="M15.6036 97.4684C15.9073 97.9295 15.7799 98.5493 15.3189 98.8532C14.8578 99.157 14.238 99.0295 13.9341 98.5684C12.4696 96.3467 11.0518 93.9987 9.72312 91.5119C9.46296 91.0248 9.64666 90.4194 10.1337 90.1591C10.6207 89.8989 11.2261 90.0827 11.4864 90.5697L11.9772 91.4737C13.1307 93.5684 14.3484 95.564 15.6036 97.4684ZM4.24622 75.0499C4.74456 74.9096 5.26187 75.1724 5.44788 75.6438L5.48054 75.7412L5.76559 76.7283C6.44579 79.0165 7.22369 81.2096 8.07884 83.3141C8.28673 83.8257 8.04026 84.4088 7.52872 84.6168C7.01706 84.8247 6.43395 84.5783 6.22605 84.0667C5.222 81.5956 4.32153 79.004 3.5553 76.2829C3.40582 75.7515 3.71496 75.1997 4.24622 75.0499ZM25.0783 111.275L24.3559 111.967C23.3045 110.867 22.2669 109.692 21.2467 108.44C20.4051 107.407 19.5568 106.34 18.7089 105.239C18.372 104.801 18.4535 104.173 18.8911 103.836C19.3287 103.5 19.9563 103.581 20.2932 104.019C21.1284 105.103 21.9651 106.155 22.7969 107.176C23.7842 108.388 24.7877 109.523 25.802 110.584L25.0783 111.275ZM25.802 110.584C26.1835 110.983 26.1693 111.617 25.7702 111.999C25.371 112.38 24.7375 112.366 24.3559 111.967L25.802 110.584ZM1.82799 59.0114C2.34488 58.983 2.79175 59.3526 2.87071 59.8532L2.88136 59.9553L2.94597 60.9866C3.08652 63.0384 3.30553 65.0277 3.59509 66.9575L3.74504 67.9179L3.75654 68.0196C3.78761 68.5254 3.43161 68.9829 2.92076 69.0667C2.40993 69.1504 1.92549 68.8309 1.79332 68.3418L1.77226 68.2411L1.61719 67.2543C1.31968 65.2716 1.09417 63.2289 0.949939 61.1236L0.884571 60.0656L0.884822 59.9628C0.90822 59.4566 1.31116 59.0401 1.82799 59.0114ZM40.4595 121.14C40.8973 121.395 41.0798 121.946 40.866 122.417C40.6378 122.92 40.0444 123.143 39.5414 122.914L38.5277 122.438C36.1589 121.292 33.7748 119.881 31.4147 118.165C30.9683 117.84 30.8692 117.215 31.1938 116.768C31.5186 116.322 32.1442 116.224 32.5909 116.548C35.1771 118.429 37.7879 119.922 40.3678 121.093L40.4595 121.14ZM56.8703 145.285C57.3878 145.295 57.8052 145.697 57.8463 146.203L57.8504 146.305L57.8457 146.784C57.8546 149.025 58.2438 151.375 59.1436 153.809L59.3451 154.332L59.3778 154.429C59.5163 154.917 59.2666 155.44 58.786 155.631C58.2728 155.835 57.6908 155.584 57.4866 155.071C56.3501 152.215 55.8572 149.442 55.8466 146.793L55.8501 146.265L55.8574 146.163C55.9187 145.66 56.3526 145.275 56.8703 145.285ZM66.4159 164.604C66.8048 164.996 66.8023 165.629 66.4108 166.018C66.0188 166.407 65.3854 166.405 64.9963 166.013C63.8968 164.906 62.9109 163.802 62.0309 162.703L61.9702 162.62C61.6951 162.194 61.7821 161.621 62.1861 161.297C62.6172 160.952 63.2466 161.022 63.5919 161.453L64.2367 162.235C64.9014 163.019 65.6265 163.809 66.4159 164.604ZM2.70335 42.7967C3.25054 42.8698 3.63531 43.3725 3.5625 43.9196C3.23949 46.3351 3.0192 48.6799 2.893 50.9555L2.84497 51.9267L2.83502 52.0284C2.76173 52.53 2.31875 52.9049 1.80141 52.8821C1.28416 52.8592 0.875544 52.4469 0.846656 51.9409L0.846062 51.8385L0.895776 50.8448C1.02489 48.5166 1.25016 46.1207 1.57989 43.655C1.65318 43.1078 2.15614 42.7237 2.70335 42.7967ZM57.9503 124.798C58.4552 124.841 58.855 125.261 58.8629 125.779C58.871 126.331 58.4304 126.785 57.8785 126.794L56.7825 126.795C54.1952 126.765 51.4045 126.486 48.4938 125.866C47.9536 125.751 47.6094 125.22 47.7244 124.68C47.8396 124.14 48.3706 123.796 48.9107 123.911L49.5036 124.032C52.4588 124.616 55.2733 124.833 57.8476 124.794L57.9503 124.798ZM63.6652 129.71C64.0747 130.027 64.1707 130.598 63.9027 131.028L63.8445 131.113L63.2434 131.912C61.8529 133.813 60.5662 135.956 59.5985 138.293C59.3872 138.803 58.8026 139.045 58.2923 138.833C57.7822 138.622 57.5396 138.038 57.7506 137.528C58.791 135.016 60.1642 132.733 61.6297 130.73L62.2625 129.889L62.329 129.811C62.678 129.444 63.2556 129.393 63.6652 129.71ZM6.22224 26.957C6.71993 27.0999 7.02097 27.596 6.93091 28.0949L6.90726 28.1943L6.62513 29.1939C6.07086 31.1866 5.58163 33.1372 5.15453 35.0472L4.94601 35.9986L4.91969 36.0973C4.76398 36.5798 4.26512 36.8748 3.75879 36.7663C3.2525 36.6577 2.91841 36.1841 2.97411 35.6803L2.99024 35.5795L3.20289 34.61C3.71004 32.3421 4.30213 30.0198 4.98488 27.642C5.13742 27.1113 5.6915 26.8046 6.22224 26.957ZM67.2597 125.433C66.731 125.593 66.1731 125.293 66.0137 124.765C65.8543 124.236 66.1537 123.678 66.6824 123.519L67.2597 125.433ZM72.3504 121.279C72.5557 121.413 72.7074 121.619 72.7716 121.862C72.8742 122.25 72.709 122.549 72.692 122.582C72.617 122.727 72.5195 122.822 72.5112 122.831C72.423 122.922 72.2975 123.019 72.2042 123.09C72.0877 123.178 71.933 123.291 71.7384 123.428C71.5401 123.566 71.3224 123.7 71.0909 123.835C70.8989 123.984 70.6877 124.151 70.46 124.336L69.6497 125.014L69.5692 125.078C69.2132 125.326 68.74 125.312 68.3992 125.057C68.0351 125.187 67.6553 125.314 67.2597 125.433L66.6824 123.519C68.0495 123.107 69.1529 122.636 69.964 122.178C70.3947 121.847 70.7396 121.602 70.9719 121.447C71.0841 121.373 71.1989 121.299 71.2927 121.249C71.3171 121.236 71.3598 121.215 71.411 121.194C71.436 121.184 71.4812 121.166 71.5383 121.151C71.5742 121.141 71.7151 121.104 71.8965 121.121C71.994 121.13 72.1689 121.161 72.3504 121.279ZM11.7181 11.6606C12.1967 11.8581 12.4407 12.3843 12.2955 12.87L12.2612 12.9666L11.4829 14.8866C10.9766 16.1589 10.4955 17.4162 10.0382 18.6586L9.36997 20.5116L9.33115 20.6063C9.11507 21.0647 8.58212 21.2942 8.09389 21.1219C7.60565 20.9496 7.33497 20.4365 7.45452 19.9439L7.48351 19.8459L8.16063 17.9675C8.62406 16.7084 9.11211 15.4351 9.62474 14.147L10.4129 12.2032L10.4562 12.1104C10.696 11.664 11.2396 11.4632 11.7181 11.6606ZM16.819 0.573169C17.3144 0.81729 17.5181 1.41676 17.274 1.91216C16.6652 3.1475 16.0784 4.37054 15.5131 5.58061C15.2792 6.08071 14.6843 6.29623 14.184 6.06254C13.6838 5.82879 13.4677 5.23431 13.7013 4.73401C14.2725 3.51115 14.8652 2.27573 15.48 1.02815C15.7241 0.532743 16.3236 0.329049 16.819 0.573169Z" fill="#10069F"/>
</svg>
