<svg width="143" height="43" viewBox="0 0 143 43" fill="none" xmlns="http://www.w3.org/2000/svg">
<mask id="path-1-outside-1_1451_269" maskUnits="userSpaceOnUse" x="0" y="0" width="143" height="43" fill="black">
<rect fill="white" width="143" height="43"/>
<path d="M11.0859 31C4.08594 31 1.72594 27.36 1.64594 20.6L1.44594 1.72L6.96594 1.12L7.00594 20.04C7.00594 23.76 7.80594 24.48 11.0859 24.48C12.7659 24.48 14.2059 25.96 14.2059 27.72C14.2059 29.48 12.7659 31 11.0859 31ZM7.95812 27.72C7.95812 26 9.31812 24.48 11.0781 24.48C13.7981 24.48 15.3181 23.32 17.8781 18.96C20.7581 14.2 23.1581 11.72 27.1181 11.72C31.3581 11.72 34.5581 15.72 34.7581 22.84C34.9181 29.12 31.5981 32.28 27.4381 32.28C24.2381 32.28 20.9581 30.48 18.6781 27.12C17.0781 29.2 14.7581 31 11.0781 31C9.31812 31 7.95812 29.48 7.95812 27.72ZM21.6381 22.32C23.4381 24.32 25.6381 25.72 27.5981 25.72C29.0781 25.72 29.8381 24.76 29.8381 22.8C29.8381 20.08 28.9981 17.92 26.9581 17.92C25.4781 17.92 23.9181 18.52 21.6381 22.32ZM48.8431 9.64C57.0031 11.4 64.5231 15.32 64.4831 23.56C64.4831 29.48 59.5231 31.96 53.8431 31.96C48.3631 31.96 45.9631 29.44 46.0031 25.64C46.0031 22.48 47.3631 18.96 49.6031 15.6L47.6831 15.12L48.8431 9.64ZM54.3231 25.64C57.1631 25.64 59.4031 24.84 59.4031 23.68C59.4031 21.36 58.0031 19 53.6831 17.04C52.0031 19.24 50.8431 21.76 51.0031 23.48C51.1231 25.04 52.0031 25.64 54.3231 25.64ZM61.5463 41.48L61.3463 36.04C69.0263 35.76 72.1063 33.12 72.1063 28.08C72.1063 25.48 71.1863 22.12 69.7063 17.68L75.1463 15.28C76.5063 19.88 77.4663 23.84 77.4663 27.2C77.4663 36.16 72.6263 42 61.5463 41.48ZM90.9688 31C83.9688 31 81.6087 27.36 81.5288 20.6L81.3288 1.72L86.8488 1.12L86.8888 20.04C86.8888 23.76 87.6888 24.48 90.9688 24.48C92.6488 24.48 94.0888 25.96 94.0888 27.72C94.0888 29.48 92.6488 31 90.9688 31ZM87.8409 27.72C87.8409 26 89.2009 24.48 90.9609 24.48H91.2009C96.6009 24.48 99.4009 23.52 99.4009 21.2C99.4009 19.32 98.8009 16.88 97.6009 12.2L103.041 10.24C104.161 15.52 104.441 17.68 104.521 20.8C104.641 27.44 100.161 31 91.2809 31H90.9609C89.2009 31 87.8409 29.48 87.8409 27.72ZM96.6009 41.48L93.0809 38.12V37.96L96.3609 34.52H96.5609L100.081 37.8V38L96.7609 41.48H96.6009ZM102.601 41.48L102.401 36.04C110.081 35.76 113.161 33.12 113.161 28.08C113.161 25.48 112.241 22.12 110.761 17.68L116.201 15.28C117.561 19.88 118.521 23.84 118.521 27.2C118.521 36.16 113.681 42 102.601 41.48ZM129.551 32.12C124.991 32.12 122.831 29.76 122.831 25.96C122.831 24.2 123.231 22.2 123.991 19.48L128.111 20.4C127.791 21.88 127.631 22.96 127.631 23.64C127.631 25.08 128.511 25.64 130.111 25.64C132.271 25.64 135.351 25.24 136.151 24.28C136.311 24.08 136.391 23.92 136.391 23.68C136.391 21.04 134.991 17.64 129.831 13.76L133.111 9.04C139.791 14.4 141.471 18.88 141.471 23.52C141.471 29.48 136.591 32.16 129.551 32.12Z"/>
</mask>
<path d="M1.64594 20.6L0.645993 20.6106L0.646008 20.6118L1.64594 20.6ZM1.44594 1.72L1.33788 0.725853L0.436388 0.823841L0.445994 1.73059L1.44594 1.72ZM6.96594 1.12L7.96594 1.11788L7.96358 0.00566864L6.85788 0.125854L6.96594 1.12ZM7.00594 20.04H8.00594L8.00594 20.0379L7.00594 20.04ZM11.0859 31V30C7.75135 30 5.75131 29.1371 4.53647 27.6916C3.28635 26.2042 2.68497 23.892 2.64587 20.5882L1.64594 20.6L0.646008 20.6118C0.686909 24.068 1.30553 26.9558 3.0054 28.9784C4.74056 31.0429 7.42053 32 11.0859 32V31ZM1.64594 20.6L2.64588 20.5894L2.44588 1.7094L1.44594 1.72L0.445994 1.73059L0.645994 20.6106L1.64594 20.6ZM1.44594 1.72L1.554 2.71414L7.074 2.11414L6.96594 1.12L6.85788 0.125854L1.33788 0.725853L1.44594 1.72ZM6.96594 1.12L5.96594 1.12211L6.00594 20.0421L7.00594 20.04L8.00594 20.0379L7.96594 1.11788L6.96594 1.12ZM7.00594 20.04H6.00594C6.00594 20.9941 6.0561 21.8189 6.20428 22.5122C6.35409 23.213 6.61727 23.8429 7.08939 24.3421C8.02745 25.334 9.47836 25.48 11.0859 25.48V24.48V23.48C9.41351 23.48 8.82442 23.266 8.54248 22.9679C8.40461 22.8221 8.26278 22.5745 8.1601 22.0941C8.05578 21.6061 8.00594 20.9459 8.00594 20.04H7.00594ZM11.0859 24.48V25.48C12.1814 25.48 13.2059 26.4795 13.2059 27.72H14.2059H15.2059C15.2059 25.4405 13.3504 23.48 11.0859 23.48V24.48ZM14.2059 27.72H13.2059C13.2059 28.9767 12.1659 30 11.0859 30V31V32C13.3659 32 15.2059 29.9833 15.2059 27.72H14.2059ZM17.8781 18.96L17.0225 18.4423L17.0158 18.4537L17.8781 18.96ZM34.7581 22.84L35.7578 22.8145L35.7577 22.8119L34.7581 22.84ZM18.6781 27.12L19.5056 26.5585L18.7289 25.4139L17.8855 26.5103L18.6781 27.12ZM21.6381 22.32L20.7806 21.8055L20.4003 22.4394L20.8948 22.989L21.6381 22.32ZM7.95813 27.72H8.95813C8.95813 26.4943 9.92666 25.48 11.0781 25.48V24.48V23.48C8.70959 23.48 6.95813 25.5057 6.95813 27.72H7.95813ZM11.0781 24.48V25.48C12.6141 25.48 13.9101 25.1416 15.1642 24.1348C16.356 23.1778 17.4523 21.6602 18.7405 19.4663L17.8781 18.96L17.0158 18.4537C15.7439 20.6198 14.8002 21.8622 13.9121 22.5752C13.0861 23.2384 12.2622 23.48 11.0781 23.48V24.48ZM17.8781 18.96L18.7337 19.4777C20.1615 17.1179 21.4117 15.4268 22.7341 14.3226C24.0175 13.2509 25.3829 12.72 27.1181 12.72V11.72V10.72C24.8933 10.72 23.0788 11.4291 21.4522 12.7874C19.8645 14.1132 18.4748 16.0421 17.0225 18.4423L17.8781 18.96ZM27.1181 11.72V12.72C28.8846 12.72 30.4543 13.5382 31.6404 15.1927C32.8447 16.8724 33.6622 19.4386 33.7585 22.8681L34.7581 22.84L35.7577 22.8119C35.6541 19.1214 34.7716 16.1276 33.2658 14.0273C31.742 11.9018 29.5916 10.72 27.1181 10.72V11.72ZM34.7581 22.84L33.7584 22.8655C33.834 25.8309 33.0859 27.9295 31.9541 29.2698C30.8319 30.5987 29.2524 31.28 27.4381 31.28V32.28V33.28C29.7838 33.28 31.9443 32.3813 33.4822 30.5602C35.0103 28.7505 35.8422 26.1291 35.7578 22.8145L34.7581 22.84ZM27.4381 32.28V31.28C24.6232 31.28 21.6318 29.6918 19.5056 26.5585L18.6781 27.12L17.8506 27.6815C20.2845 31.2682 23.853 33.28 27.4381 33.28V32.28ZM18.6781 27.12L17.8855 26.5103C16.4146 28.4224 14.3608 30 11.0781 30V31V32C15.1555 32 17.7416 29.9776 19.4707 27.7297L18.6781 27.12ZM11.0781 31V30C9.93427 30 8.95813 28.9938 8.95813 27.72H7.95813H6.95813C6.95813 29.9662 8.70198 32 11.0781 32V31ZM21.6381 22.32L20.8948 22.989C22.7607 25.0622 25.2112 26.72 27.5981 26.72V25.72V24.72C26.065 24.72 24.1155 23.5778 22.3814 21.651L21.6381 22.32ZM27.5981 25.72V26.72C28.5718 26.72 29.4578 26.391 30.0642 25.6067C30.6331 24.8709 30.8381 23.8817 30.8381 22.8H29.8381H28.8381C28.8381 23.6783 28.6631 24.1491 28.482 24.3833C28.3384 24.569 28.1045 24.72 27.5981 24.72V25.72ZM29.8381 22.8H30.8381C30.8381 21.363 30.6203 19.9572 30.0473 18.8728C29.4454 17.7338 28.4206 16.92 26.9581 16.92V17.92V18.92C27.5357 18.92 27.9508 19.1862 28.279 19.8072C28.6359 20.4828 28.8381 21.517 28.8381 22.8H29.8381ZM26.9581 17.92V16.92C26.0448 16.92 25.0694 17.1163 24.0102 17.8861C22.9942 18.6245 21.9515 19.854 20.7806 21.8055L21.6381 22.32L22.4956 22.8345C23.6047 20.986 24.4821 20.0155 25.186 19.5039C25.8468 19.0237 26.3914 18.92 26.9581 18.92V17.92ZM48.8431 9.64L49.054 8.66248L48.0727 8.45083L47.8648 9.43291L48.8431 9.64ZM64.4831 23.56L63.4831 23.5551V23.56H64.4831ZM46.0031 25.64L47.0031 25.6505V25.64H46.0031ZM49.6031 15.6L50.4352 16.1547L51.2223 14.974L49.8457 14.6299L49.6031 15.6ZM47.6831 15.12L46.7048 14.9129L46.5051 15.8563L47.4406 16.0901L47.6831 15.12ZM53.6831 17.04L54.0963 16.1293L53.3714 15.8005L52.8884 16.4331L53.6831 17.04ZM51.0031 23.48L52.0002 23.4033L51.9996 23.3953L51.9988 23.3874L51.0031 23.48ZM48.8431 9.64L48.6323 10.6175C52.6453 11.4831 56.4008 12.8616 59.1279 14.9622C61.8175 17.034 63.5014 19.7963 63.4831 23.5551L64.4831 23.56L65.4831 23.5649C65.5049 19.0837 63.4487 15.766 60.3484 13.3778C57.2854 11.0184 53.2009 9.55692 49.054 8.66248L48.8431 9.64ZM64.4831 23.56H63.4831C63.4831 26.1952 62.4012 27.988 60.7211 29.1598C58.9943 30.3641 56.5585 30.96 53.8431 30.96V31.96V32.96C56.8078 32.96 59.692 32.3159 61.8652 30.8002C64.0851 29.252 65.4831 26.8448 65.4831 23.56H64.4831ZM53.8431 31.96V30.96C51.2388 30.96 49.5391 30.3594 48.5066 29.468C47.4992 28.5984 46.9854 27.329 47.0031 25.6505L46.0031 25.64L45.0032 25.6295C44.9809 27.751 45.647 29.6416 47.1997 30.982C48.7271 32.3006 50.9675 32.96 53.8431 32.96V31.96ZM46.0031 25.64H47.0031C47.0031 22.7489 48.2568 19.4222 50.4352 16.1547L49.6031 15.6L48.7711 15.0453C46.4694 18.4978 45.0031 22.2111 45.0031 25.64H46.0031ZM49.6031 15.6L49.8457 14.6299L47.9257 14.1499L47.6831 15.12L47.4406 16.0901L49.3606 16.5701L49.6031 15.6ZM47.6831 15.12L48.6614 15.3271L49.8214 9.84709L48.8431 9.64L47.8648 9.43291L46.7048 14.9129L47.6831 15.12ZM54.3231 25.64V26.64C55.8218 26.64 57.2197 26.4308 58.2809 26.0307C58.809 25.8316 59.3085 25.5648 59.6922 25.2057C60.0846 24.8383 60.4031 24.3235 60.4031 23.68H59.4031H58.4031C58.4031 23.6165 58.4416 23.6367 58.3253 23.7456C58.2002 23.8627 57.9622 24.0134 57.5753 24.1593C56.8065 24.4492 55.6645 24.64 54.3231 24.64V25.64ZM59.4031 23.68H60.4031C60.4031 22.2998 59.9802 20.9101 58.9474 19.6046C57.9283 18.3164 56.3493 17.1515 54.0963 16.1293L53.6831 17.04L53.27 17.9507C55.337 18.8885 56.6179 19.8836 57.3789 20.8454C58.1261 21.7899 58.4031 22.7402 58.4031 23.68H59.4031ZM53.6831 17.04L52.8884 16.4331C52.0073 17.5869 51.2519 18.8377 50.734 20.0461C50.2246 21.2345 49.9052 22.4741 50.0074 23.5726L51.0031 23.48L51.9988 23.3874C51.941 22.7659 52.1216 21.8855 52.5723 20.8339C53.0144 19.8023 53.679 18.6931 54.4779 17.6469L53.6831 17.04ZM51.0031 23.48L50.0061 23.5567C50.0805 24.5246 50.4185 25.4087 51.2889 25.9807C52.0713 26.4948 53.1243 26.64 54.3231 26.64V25.64V24.64C53.202 24.64 52.655 24.4852 52.3873 24.3093C52.2078 24.1913 52.0457 23.9954 52.0002 23.4033L51.0031 23.48ZM61.5462 41.48L60.5469 41.5167L60.5807 42.4358L61.4994 42.4789L61.5462 41.48ZM61.3462 36.04L61.3098 35.0407L60.3102 35.0771L60.3469 36.0767L61.3462 36.04ZM69.7063 17.68L69.3026 16.7651L68.4697 17.1326L68.7576 17.9962L69.7063 17.68ZM75.1462 15.28L76.1052 14.9965L75.7829 13.9061L74.7426 14.3651L75.1462 15.28ZM61.5462 41.48L62.5456 41.4433L62.3456 36.0033L61.3462 36.04L60.3469 36.0767L60.5469 41.5167L61.5462 41.48ZM61.3462 36.04L61.3827 37.0393C65.2971 36.8966 68.2387 36.152 70.2143 34.6389C72.254 33.0767 73.1062 30.8228 73.1062 28.08H72.1062H71.1062C71.1062 30.3772 70.4185 31.9633 68.9982 33.0511C67.5137 34.188 65.0754 34.9034 61.3098 35.0407L61.3462 36.04ZM72.1062 28.08H73.1062C73.1062 25.2941 72.129 21.7859 70.6549 17.3638L69.7063 17.68L68.7576 17.9962C70.2435 22.4541 71.1062 25.6659 71.1062 28.08H72.1062ZM69.7063 17.68L70.1099 18.5949L75.5499 16.1949L75.1462 15.28L74.7426 14.3651L69.3026 16.7651L69.7063 17.68ZM75.1462 15.28L74.1873 15.5635C75.5477 20.1649 76.4662 24 76.4662 27.2H77.4662H78.4662C78.4662 23.68 77.4648 19.5951 76.1052 14.9965L75.1462 15.28ZM77.4662 27.2H76.4662C76.4662 31.5111 75.3033 34.9109 72.9653 37.1769C70.6312 39.439 66.9588 40.7329 61.5931 40.4811L61.5462 41.48L61.4994 42.4789C67.2137 42.7471 71.5013 41.381 74.3572 38.6131C77.2092 35.8491 78.4662 31.8489 78.4662 27.2H77.4662ZM81.5287 20.6L80.5288 20.6106L80.5288 20.6118L81.5287 20.6ZM81.3288 1.72L81.2207 0.725853L80.3192 0.823841L80.3288 1.73059L81.3288 1.72ZM86.8487 1.12L87.8487 1.11788L87.8464 0.00566864L86.7407 0.125854L86.8487 1.12ZM86.8887 20.04H87.8888L87.8887 20.0379L86.8887 20.04ZM90.9688 31V30C87.6342 30 85.6341 29.1371 84.4193 27.6916C83.1692 26.2042 82.5678 23.892 82.5287 20.5882L81.5287 20.6L80.5288 20.6118C80.5697 24.068 81.1883 26.9558 82.8882 28.9784C84.6234 31.0429 87.3033 32 90.9688 32V31ZM81.5287 20.6L82.5287 20.5894L82.3287 1.7094L81.3288 1.72L80.3288 1.73059L80.5288 20.6106L81.5287 20.6ZM81.3288 1.72L81.4368 2.71414L86.9568 2.11414L86.8487 1.12L86.7407 0.125854L81.2207 0.725853L81.3288 1.72ZM86.8487 1.12L85.8488 1.12211L85.8888 20.0421L86.8887 20.04L87.8887 20.0379L87.8487 1.11788L86.8487 1.12ZM86.8887 20.04H85.8887C85.8887 20.9941 85.9389 21.8189 86.0871 22.5122C86.2369 23.213 86.5001 23.8429 86.9722 24.3421C87.9103 25.334 89.3612 25.48 90.9688 25.48V24.48V23.48C89.2963 23.48 88.7072 23.266 88.4253 22.9679C88.2874 22.8221 88.1456 22.5745 88.0429 22.0941C87.9386 21.6061 87.8887 20.9459 87.8887 20.04H86.8887ZM90.9688 24.48V25.48C92.0642 25.48 93.0888 26.4795 93.0888 27.72H94.0888H95.0888C95.0888 25.4405 93.2333 23.48 90.9688 23.48V24.48ZM94.0888 27.72H93.0888C93.0888 28.9767 92.0488 30 90.9688 30V31V32C93.2487 32 95.0888 29.9833 95.0888 27.72H94.0888ZM97.6009 12.2L97.262 11.2592L96.4064 11.5675L96.6323 12.4484L97.6009 12.2ZM103.041 10.24L104.019 10.0325L103.781 8.91038L102.702 9.2992L103.041 10.24ZM104.521 20.8L105.521 20.7819L105.521 20.7744L104.521 20.8ZM96.6009 41.48L95.9105 42.2034L96.2003 42.48H96.6009V41.48ZM93.0809 38.12H92.0809V38.5479L92.3905 38.8434L93.0809 38.12ZM93.0809 37.96L92.3572 37.2699L92.0809 37.5597V37.96H93.0809ZM96.3609 34.52V33.52H95.9327L95.6372 33.8299L96.3609 34.52ZM96.5609 34.52L97.2427 33.7884L96.9546 33.52H96.5609V34.52ZM100.081 37.8H101.081V37.365L100.763 37.0684L100.081 37.8ZM100.081 38L100.804 38.6903L101.081 38.4005V38H100.081ZM96.7609 41.48V42.48H97.189L97.4845 42.1703L96.7609 41.48ZM87.8409 27.72H88.8409C88.8409 26.4943 89.8095 25.48 90.9609 25.48V24.48V23.48C88.5924 23.48 86.8409 25.5057 86.8409 27.72H87.8409ZM90.9609 24.48V25.48H91.2009V24.48V23.48H90.9609V24.48ZM91.2009 24.48V25.48C93.9276 25.48 96.1313 25.2422 97.6856 24.6431C98.4731 24.3395 99.1571 23.9197 99.6473 23.3314C100.153 22.7248 100.401 21.9997 100.401 21.2H99.4009H98.4009C98.4009 21.5603 98.2991 21.8252 98.1108 22.0511C97.9073 22.2953 97.5538 22.5505 96.9663 22.7769C95.7705 23.2378 93.8742 23.48 91.2009 23.48V24.48ZM99.4009 21.2H100.401C100.401 19.1623 99.7546 16.573 98.5696 11.9516L97.6009 12.2L96.6323 12.4484C97.8473 17.187 98.4009 19.4777 98.4009 21.2H99.4009ZM97.6009 12.2L97.9399 13.1408L103.38 11.1808L103.041 10.24L102.702 9.2992L97.262 11.2592L97.6009 12.2ZM103.041 10.24L102.063 10.4475C103.176 15.697 103.443 17.7908 103.521 20.8256L104.521 20.8L105.521 20.7744C105.438 17.5692 105.146 15.343 104.019 10.0325L103.041 10.24ZM104.521 20.8L103.521 20.8181C103.577 23.8885 102.581 26.1105 100.663 27.6002C98.696 29.1273 95.6134 30 91.2809 30V31V32C95.8285 32 99.4259 31.0927 101.889 29.1798C104.401 27.2295 105.585 24.3515 105.521 20.7819L104.521 20.8ZM91.2809 31V30H90.9609V31V32H91.2809V31ZM90.9609 31V30C89.8171 30 88.8409 28.9938 88.8409 27.72H87.8409H86.8409C86.8409 29.9662 88.5848 32 90.9609 32V31ZM96.6009 41.48L97.2914 40.7566L93.7714 37.3966L93.0809 38.12L92.3905 38.8434L95.9105 42.2034L96.6009 41.48ZM93.0809 38.12H94.0809V37.96H93.0809H92.0809V38.12H93.0809ZM93.0809 37.96L93.8047 38.6501L97.0847 35.2101L96.3609 34.52L95.6372 33.8299L92.3572 37.2699L93.0809 37.96ZM96.3609 34.52V35.52H96.5609V34.52V33.52H96.3609V34.52ZM96.5609 34.52L95.8792 35.2516L99.3992 38.5316L100.081 37.8L100.763 37.0684L97.2427 33.7884L96.5609 34.52ZM100.081 37.8H99.0809V38H100.081H101.081V37.8H100.081ZM100.081 38L99.3574 37.3097L96.0374 40.7897L96.7609 41.48L97.4845 42.1703L100.804 38.6903L100.081 38ZM96.7609 41.48V40.48H96.6009V41.48V42.48H96.7609V41.48ZM102.601 41.48L101.602 41.5167L101.635 42.4358L102.554 42.4789L102.601 41.48ZM102.401 36.04L102.365 35.0407L101.365 35.0771L101.402 36.0767L102.401 36.04ZM110.761 17.68L110.357 16.7651L109.524 17.1326L109.812 17.9962L110.761 17.68ZM116.201 15.28L117.16 14.9965L116.838 13.9061L115.797 14.3651L116.201 15.28ZM102.601 41.48L103.6 41.4433L103.4 36.0033L102.401 36.04L101.402 36.0767L101.602 41.5167L102.601 41.48ZM102.401 36.04L102.437 37.0393C106.352 36.8966 109.293 36.152 111.269 34.6389C113.309 33.0767 114.161 30.8228 114.161 28.08H113.161H112.161C112.161 30.3772 111.473 31.9633 110.053 33.0511C108.568 34.188 106.13 34.9034 102.365 35.0407L102.401 36.04ZM113.161 28.08H114.161C114.161 25.2941 113.184 21.7859 111.71 17.3638L110.761 17.68L109.812 17.9962C111.298 22.4541 112.161 25.6659 112.161 28.08H113.161ZM110.761 17.68L111.165 18.5949L116.605 16.1949L116.201 15.28L115.797 14.3651L110.357 16.7651L110.761 17.68ZM116.201 15.28L115.242 15.5635C116.602 20.1649 117.521 24 117.521 27.2H118.521H119.521C119.521 23.68 118.519 19.5951 117.16 14.9965L116.201 15.28ZM118.521 27.2H117.521C117.521 31.5111 116.358 34.9109 114.02 37.1769C111.686 39.439 108.013 40.7329 102.648 40.4811L102.601 41.48L102.554 42.4789C108.268 42.7471 112.556 41.381 115.412 38.6131C118.264 35.8491 119.521 31.8489 119.521 27.2H118.521ZM129.551 32.12L129.556 31.12H129.551V32.12ZM123.991 19.48L124.209 18.504L123.283 18.2973L123.028 19.2109L123.991 19.48ZM128.111 20.4L129.088 20.6113L129.298 19.6405L128.329 19.424L128.111 20.4ZM136.151 24.28L136.919 24.9202L136.925 24.9125L136.931 24.9047L136.151 24.28ZM129.831 13.76L129.009 13.1893L128.46 13.9804L129.23 14.5593L129.831 13.76ZM133.111 9.04L133.736 8.26004L132.901 7.58954L132.289 8.46934L133.111 9.04ZM129.551 32.12V31.12C127.434 31.12 126.038 30.5735 125.173 29.7434C124.314 28.919 123.831 27.6732 123.831 25.96H122.831H121.831C121.831 28.0468 122.428 29.881 123.788 31.1866C125.143 32.4865 127.107 33.12 129.551 33.12V32.12ZM122.831 25.96H123.831C123.831 24.3422 124.199 22.4506 124.954 19.7491L123.991 19.48L123.028 19.2109C122.262 21.9494 121.831 24.0578 121.831 25.96H122.831ZM123.991 19.48L123.773 20.456L127.893 21.376L128.111 20.4L128.329 19.424L124.209 18.504L123.991 19.48ZM128.111 20.4L127.133 20.1887C126.812 21.6748 126.631 22.8449 126.631 23.64H127.631H128.631C128.631 23.0751 128.769 22.0852 129.088 20.6113L128.111 20.4ZM127.631 23.64H126.631C126.631 24.576 126.929 25.4148 127.665 25.9754C128.343 26.4922 129.228 26.64 130.111 26.64V25.64V24.64C129.393 24.64 129.038 24.5078 128.877 24.3846C128.773 24.3052 128.631 24.144 128.631 23.64H127.631ZM130.111 25.64V26.64C131.242 26.64 132.617 26.5361 133.83 26.3019C134.436 26.1849 135.029 26.0304 135.542 25.8271C136.031 25.6331 136.559 25.3519 136.919 24.9202L136.151 24.28L135.382 23.6398C135.342 23.6881 135.185 23.8169 134.805 23.9679C134.447 24.1096 133.985 24.2351 133.451 24.3381C132.385 24.5439 131.139 24.64 130.111 24.64V25.64ZM136.151 24.28L136.931 24.9047C137.175 24.6007 137.391 24.2259 137.391 23.68H136.391H135.391C135.391 23.6838 135.39 23.6749 135.394 23.6576C135.395 23.6492 135.398 23.6403 135.4 23.6311C135.403 23.6219 135.406 23.6137 135.409 23.6069C135.415 23.5932 135.418 23.5889 135.413 23.5966C135.408 23.6052 135.395 23.6234 135.37 23.6553L136.151 24.28ZM136.391 23.68H137.391C137.391 20.6216 135.746 16.9569 130.432 12.9607L129.831 13.76L129.23 14.5593C134.235 18.3231 135.391 21.4584 135.391 23.68H136.391ZM129.831 13.76L130.652 14.3307L133.932 9.61065L133.111 9.04L132.289 8.46934L129.009 13.1893L129.831 13.76ZM133.111 9.04L132.485 9.81996C135.754 12.443 137.739 14.8029 138.912 17.018C140.078 19.2196 140.471 21.3334 140.471 23.52H141.471H142.471C142.471 21.0666 142.024 18.6204 140.679 16.082C139.342 13.5571 137.147 10.997 133.736 8.26004L133.111 9.04ZM141.471 23.52H140.471C140.471 26.1809 139.405 28.0232 137.593 29.2398C135.725 30.4941 132.973 31.1394 129.556 31.12L129.551 32.12L129.545 33.12C133.169 33.1406 136.376 32.4659 138.708 30.9002C141.096 29.2968 142.471 26.8191 142.471 23.52H141.471Z" fill="#FFE166" mask="url(#path-1-outside-1_1451_269)"/>
</svg>
